<svg width="74" height="74" viewBox="0 0 74 74" fill="none" xmlns="http://www.w3.org/2000/svg">
<path d="M18.5 58.9688C20.4124 58.9688 21.9688 57.4124 21.9688 55.5C21.9688 53.5876 20.4124 52.0312 18.5 52.0312C16.5876 52.0312 15.0312 53.5876 15.0312 55.5C15.0312 57.4124 16.5876 58.9688 18.5 58.9688ZM18.5 54.3438C19.1382 54.3438 19.6562 54.8618 19.6562 55.5C19.6562 56.1382 19.1382 56.6562 18.5 56.6562C17.8618 56.6562 17.3438 56.1382 17.3438 55.5C17.3438 54.8618 17.8618 54.3438 18.5 54.3438Z" fill="#E3A10D"/>
<path d="M31.2188 55.5C31.2188 48.4873 25.5127 42.7812 18.5 42.7812C11.4873 42.7812 5.78125 48.4873 5.78125 55.5C5.78125 62.5127 11.4873 68.2188 18.5 68.2188C25.5127 68.2188 31.2188 62.5127 31.2188 55.5ZM15.444 65.4461C16.0337 64.3372 17.1946 63.5938 18.5 63.5938C19.8054 63.5938 20.9663 64.3372 21.556 65.4461C20.5893 65.7444 19.5638 65.9062 18.5 65.9062C17.4362 65.9062 16.4107 65.7444 15.444 65.4461ZM26.5938 55.5C26.5938 54.1946 27.3372 53.0337 28.4461 52.444C28.7444 53.4107 28.9062 54.4362 28.9062 55.5C28.9062 56.5638 28.7444 57.5893 28.4461 58.556C27.3372 57.9663 26.5938 56.8054 26.5938 55.5ZM21.556 45.5539C20.9663 46.6628 19.8054 47.4062 18.5 47.4062C17.1946 47.4062 16.0337 46.6628 15.444 45.5539C16.4107 45.2556 17.4362 45.0938 18.5 45.0938C19.5638 45.0938 20.5893 45.2556 21.556 45.5539ZM10.4062 55.5C10.4062 56.8054 9.66278 57.9663 8.55394 58.556C8.25562 57.5893 8.09375 56.5638 8.09375 55.5C8.09375 54.4362 8.25562 53.4107 8.55394 52.444C9.66278 53.0337 10.4062 54.1946 10.4062 55.5ZM9.48009 60.6673C11.4133 59.7122 12.7188 57.7339 12.7188 55.5C12.7188 53.2661 11.4133 51.2878 9.48009 50.3327C10.4005 48.7325 11.7325 47.4016 13.3316 46.4813C14.2878 48.4133 16.2661 49.7188 18.5 49.7188C20.7339 49.7188 22.7122 48.4133 23.6673 46.4801C25.2675 47.4005 26.5984 48.7325 27.5187 50.3316C25.5867 51.2878 24.2812 53.2661 24.2812 55.5C24.2812 57.7339 25.5867 59.7122 27.5199 60.6673C26.5995 62.2675 25.2675 63.5984 23.6684 64.5187C22.7122 62.5867 20.7339 61.2812 18.5 61.2812C16.2661 61.2812 14.2878 62.5867 13.3327 64.5199C11.7325 63.5995 10.4005 62.2675 9.48009 60.6673Z" fill="#E3A10D"/>
<path d="M56.6562 11.5625C56.6562 14.7503 59.2497 17.3438 62.4375 17.3438C65.6253 17.3438 68.2188 14.7503 68.2188 11.5625C68.2188 8.37472 65.6253 5.78125 62.4375 5.78125C59.2497 5.78125 56.6562 8.37472 56.6562 11.5625ZM65.9062 11.5625C65.9062 13.4749 64.3499 15.0312 62.4375 15.0312C60.5251 15.0312 58.9688 13.4749 58.9688 11.5625C58.9688 9.65006 60.5251 8.09375 62.4375 8.09375C64.3499 8.09375 65.9062 9.65006 65.9062 11.5625Z" fill="#E3A10D"/>
<path d="M72.8438 11.5625H72.8345C72.7408 5.86797 68.132 1.25916 62.4375 1.1655V1.15625C62.4074 1.15625 62.3785 1.16087 62.3496 1.16087C62.3196 1.16087 62.2907 1.15625 62.2617 1.15625C59.8787 1.15625 57.5385 1.97372 55.6723 3.45834L7.77231 41.5834C3.56819 44.9284 1.15625 49.9315 1.15625 55.3046C1.15625 55.3381 1.16087 55.3693 1.16087 55.4017C1.16087 55.4352 1.15625 55.4665 1.15625 55.5H1.16666C1.27187 65.0148 8.98522 72.7281 18.5 72.8333V72.8438C18.5335 72.8438 18.5647 72.8391 18.5971 72.8391C18.6295 72.8391 18.6619 72.8438 18.6942 72.8438H62.4375C68.176 72.8438 72.8438 68.176 72.8438 62.4375V11.7383C72.8438 11.7082 72.8391 11.6804 72.8391 11.6504C72.8391 11.6203 72.8438 11.5926 72.8438 11.5625ZM70.5266 11.6504C70.4792 16.073 66.8706 19.6562 62.4375 19.6562C57.9755 19.6562 54.3438 16.0256 54.3438 11.5625C54.3438 7.44741 57.4333 4.04803 61.4119 3.54159C61.6085 3.52078 61.805 3.49766 62.0028 3.49072C62.1184 3.48494 62.2328 3.47453 62.3496 3.47337C66.8382 3.52078 70.4792 7.16066 70.5266 11.6504ZM64.5881 24.4281L62.2756 28.6519L64.5881 32.8757L62.2756 37.1006L64.5881 41.3255L62.2756 45.5505L64.587 49.7731L63.3255 52.0752C63.033 52.0509 62.737 52.0312 62.4375 52.0312C56.699 52.0312 52.0312 56.699 52.0312 62.4375C52.0312 62.9659 52.0833 63.4816 52.1596 63.988L51.2647 64.5442L47.5462 62.2317L43.8265 64.5442L40.1126 62.2317L36.3675 64.5604L34.0099 63.2157C35.1731 60.8881 35.8438 58.2738 35.8438 55.5C35.8438 48.8261 32.0501 43.031 26.5105 40.1323L28.6368 35.4992L33.6527 34.4632L35.7871 29.8093L40.7983 28.7756L42.9339 24.1217L47.9485 23.0857L50.0818 18.4318L53.9969 17.6247C55.8873 20.2494 58.9618 21.9688 62.4375 21.9688C62.7023 21.9688 62.9613 21.9491 63.2203 21.9294L64.5881 24.4281ZM52.8129 15.5065L48.4665 16.4026L46.3332 21.0565L41.3186 22.0925L39.183 26.7464L34.1718 27.7801L32.0374 32.434L27.0216 33.47L24.8848 38.125L22.459 38.6292C21.186 38.3308 19.8644 38.1562 18.5 38.1562C17.4501 38.1562 16.4268 38.2661 15.4278 38.4453L52.3481 9.05922C52.1492 9.86281 52.0312 10.6976 52.0312 11.5625C52.0312 12.9581 52.3122 14.2889 52.8129 15.5065ZM3.47337 55.4029C3.52656 47.16 10.2455 40.4688 18.5 40.4688C26.788 40.4688 33.5312 47.212 33.5312 55.5C33.5312 63.7545 26.84 70.4734 18.5971 70.5266C10.2791 70.4734 3.52656 63.7209 3.47337 55.4029ZM27.1164 70.5312C29.4069 69.2131 31.3772 67.3978 32.8572 65.2194L36.4207 67.2521L40.1138 64.9558L43.8277 67.2683L47.5473 64.9558L51.2658 67.2683L52.7909 66.3202C53.4604 67.9782 54.5415 69.4247 55.9116 70.5312H27.1164ZM62.4375 70.5312C57.9755 70.5312 54.3438 66.8995 54.3438 62.4375C54.3438 57.9755 57.9755 54.3438 62.4375 54.3438C66.8995 54.3438 70.5312 57.9755 70.5312 62.4375C70.5312 66.8995 66.8995 70.5312 62.4375 70.5312ZM70.5312 55.9105C69.2871 54.3715 67.6152 53.1956 65.697 52.5608L67.2244 49.7731L64.9107 45.5505L67.2232 41.3255L64.9107 37.1006L67.2232 32.8757L64.9107 28.6519L67.2232 24.4281L65.6056 21.4716C67.5632 20.8437 69.2675 19.6528 70.5312 18.0884V55.9105Z" fill="#E3A10D"/>
<path d="M62.4375 56.6562C59.2497 56.6562 56.6562 59.2497 56.6562 62.4375C56.6562 65.6253 59.2497 68.2188 62.4375 68.2188C65.6253 68.2188 68.2188 65.6253 68.2188 62.4375C68.2188 59.2497 65.6253 56.6562 62.4375 56.6562ZM62.4375 65.9062C60.5251 65.9062 58.9688 64.3499 58.9688 62.4375C58.9688 60.5251 60.5251 58.9688 62.4375 58.9688C64.3499 58.9688 65.9062 60.5251 65.9062 62.4375C65.9062 64.3499 64.3499 65.9062 62.4375 65.9062Z" fill="#E3A10D"/>
</svg>
