<svg width="67" height="65" viewBox="0 0 67 65" fill="none" xmlns="http://www.w3.org/2000/svg">
<path d="M64.4841 52.64C63.3417 41.9378 55.7752 39.1951 48.4399 36.5612C45.1909 35.3934 41.8308 34.1886 38.9587 32.2923C38.3228 31.8738 37.7076 31.4113 37.1364 30.9303C35.7813 29.7809 34.8216 28.2015 34.0955 26.3769C34.4655 26.1734 34.8286 25.9584 35.1685 25.6901C35.594 25.3525 35.6657 24.7374 35.3304 24.3096C34.9951 23.8818 34.3776 23.8078 33.9498 24.15C33.7856 24.2795 33.6053 24.372 33.4318 24.483C33.1774 23.5742 32.9762 22.6122 32.8097 21.6155C33.3647 21.3611 33.9036 21.0605 34.3984 20.6697C34.8239 20.3321 34.8956 19.7169 34.5603 19.2891C34.225 18.8613 33.6053 18.7873 33.1798 19.1296C32.9739 19.2914 32.7496 19.4163 32.5299 19.5458C32.4189 18.5538 32.338 17.5386 32.2802 16.4979C32.7542 16.2621 33.2098 15.9776 33.6284 15.6469C34.0539 15.3093 34.1256 14.6942 33.7903 14.2664C33.4549 13.8386 32.8352 13.7669 32.4097 14.1068C32.3426 14.16 32.2617 14.1947 32.1923 14.2456C32.1646 13.1957 32.1484 12.1435 32.1461 11.0798C32.3843 10.9318 32.6294 10.8046 32.856 10.6265C33.2815 10.2912 33.3578 9.67376 33.0225 9.24595C32.8051 8.97076 32.4721 8.85976 32.1461 8.89213L32.1669 5.6662C32.1669 5.64538 32.1553 5.6292 32.1553 5.60838L32.1646 4.27407C32.1738 2.90276 31.5494 1.65632 30.4556 0.853884C29.2786 -0.0109914 27.7408 -0.232991 26.2469 0.252634L24.4269 0.840009C22.6278 1.42045 21.3652 3.08313 21.2866 4.97476C21.2866 4.98632 21.2866 4.99788 21.2843 5.01176L6.44956 9.78476C5.8645 9.95126 5.31181 10.2311 4.85856 10.5826C4.53944 10.793 4.28506 11.0081 4.11856 11.2C2.88831 12.458 2.31019 14.16 2.52756 15.8666L4.81694 34.8939C5.01581 36.5982 4.97187 38.3095 4.68744 39.9721L2.43275 52.5452C1.01056 53.1187 0 54.5085 0 56.1342V60.4146C0 62.5514 1.73669 64.2881 3.87344 64.2881H16.1713C16.9321 64.2881 17.6814 64.0291 18.2803 63.5596L20.7316 61.6333C21.2588 61.2217 21.9919 61.2217 22.5191 61.6333L24.9704 63.5596C25.5693 64.0291 26.3186 64.2881 27.0794 64.2881H62.8422C64.9789 64.2881 66.7156 62.5514 66.7156 60.4146V56.1342C66.7156 54.5871 65.7976 53.2598 64.4841 52.64ZM62.4606 52.2608H26.2839C27.9327 47.5178 32.3056 46.3315 36.9514 45.129C41.3406 43.9936 45.8245 42.7772 46.9229 38.099C47.2074 38.2008 47.4918 38.3095 47.7739 38.4089C54.9959 41.0035 61.2558 43.2744 62.4606 52.2608ZM25.0259 2.70851L26.8458 2.12113C27.7338 1.83438 28.6288 1.9477 29.2901 2.43795C29.8706 2.86345 30.2013 3.52713 30.1966 4.2602L30.1758 7.71276C30.1758 7.73357 30.1874 7.75207 30.1874 7.77288L30.1758 9.51882C30.1758 9.64139 30.1781 9.76395 30.1758 9.88651C29.9862 9.96051 29.8012 10.0507 29.6046 10.1039C28.86 10.3051 28.0691 10.3374 27.3176 10.1918C26.7787 10.0923 26.2723 10.4438 26.1706 10.978C26.0711 11.5099 26.4226 12.0233 26.9568 12.125C27.3869 12.2036 27.824 12.2453 28.2634 12.2453C28.8854 12.2453 29.5098 12.1666 30.1088 12.0048C30.1342 11.9978 30.155 11.9839 30.1804 11.977C30.1874 13.0431 30.2128 14.0976 30.2521 15.1451C29.5376 15.3186 28.8091 15.3486 28.0853 15.2145C27.5465 15.1058 27.0378 15.4689 26.9406 16.0031C26.8435 16.5373 27.195 17.0506 27.7292 17.1478C28.1663 17.2287 28.6033 17.268 29.0381 17.268C29.4774 17.268 29.9122 17.1778 30.3469 17.0969C30.414 18.1629 30.5088 19.2059 30.6337 20.228C30.044 20.3228 29.4474 20.3483 28.8531 20.2396C28.3212 20.1355 27.8078 20.4939 27.7084 21.0304C27.6112 21.5623 27.9627 22.0757 28.4969 22.1728C28.934 22.2538 29.3711 22.2931 29.8081 22.2931C30.1781 22.2931 30.5458 22.2075 30.9135 22.1497C31.0985 23.2158 31.3251 24.2425 31.6096 25.2207C30.9551 25.3548 30.2891 25.3849 29.6254 25.2623C29.0866 25.1536 28.5779 25.5167 28.4807 26.0509C28.3836 26.5851 28.7351 27.0984 29.2693 27.1956C29.7064 27.2765 30.1434 27.3158 30.5805 27.3158C31.1517 27.3158 31.7159 27.2326 32.2779 27.0938C33.115 29.2051 34.2412 31.0551 35.8623 32.4311C36.1629 32.6831 36.4982 32.9051 36.8173 33.1433L35.1616 34.2926C33.2561 35.6177 30.6545 35.3841 28.9826 33.7376C22.8406 27.6881 22.7989 15.7603 23.2406 5.05338C23.2915 3.98038 24.0084 3.0392 25.0259 2.70851ZM5.56156 12.5343C5.61937 12.4696 5.73038 12.3609 5.99631 12.1851C6.3085 11.9446 6.6415 11.7735 7.01844 11.6671L21.2033 7.09995C21.0877 10.6265 21.0623 14.2363 21.3166 17.712L5.02969 20.2003L4.477 15.6238C4.33825 14.5277 4.73137 13.3876 5.56156 12.5343ZM6.623 40.3098C6.93981 38.4528 6.99069 36.5543 6.76869 34.6626L5.26325 22.1497L21.4924 19.6707C22.1491 25.8243 23.8211 31.4066 27.6113 35.139C28.9386 36.4456 30.6799 37.1162 32.4282 37.1162C33.7741 37.1162 35.1246 36.7185 36.2901 35.9068L38.5586 34.3296C40.6237 35.5969 42.8368 36.5705 45.0729 37.4168C44.3815 40.9526 41.3059 41.9701 36.4566 43.2258C31.5356 44.4977 26.0249 45.9846 24.2257 52.2585H4.48163L6.623 40.3098ZM64.75 60.4146C64.75 61.4668 63.8944 62.3225 62.8422 62.3225H59.8082V59.1358C59.8082 58.5947 59.3688 58.153 58.8254 58.153C58.2819 58.153 57.8426 58.5924 57.8426 59.1358V62.3225H51.8486V59.1358C51.8486 58.5947 51.4092 58.153 50.8657 58.153C50.3223 58.153 49.8829 58.5924 49.8829 59.1358V62.3225H43.8866V59.1358C43.8866 58.5947 43.4473 58.153 42.9038 58.153C42.3604 58.153 41.921 58.5924 41.921 59.1358V62.3225H35.9247V59.1358C35.9247 58.5947 35.4853 58.153 34.9419 58.153C34.3984 58.153 33.9591 58.5924 33.9591 59.1358V62.3225H27.0724C26.7487 62.3225 26.4342 62.2115 26.1798 62.0126L23.7286 60.0863C23.1088 59.5983 22.3665 59.3555 21.6219 59.3555C20.8796 59.3555 20.1349 59.5983 19.5129 60.0863L17.0616 62.0126C16.8073 62.2115 16.4904 62.3225 16.169 62.3225H10.4571V59.1358C10.4571 58.5947 10.0178 58.153 9.47431 58.153C8.93087 58.153 8.4915 58.5924 8.4915 59.1358V62.3225H3.87344C2.82125 62.3225 1.96562 61.4668 1.96562 60.4146V56.1342C1.96562 55.082 2.82125 54.2264 3.87344 54.2264H62.8422C63.8944 54.2264 64.75 55.082 64.75 56.1342V60.4146Z" fill="#E3A10D"/>
</svg>
