<svg width="50" height="55" viewBox="0 0 50 55" fill="none" xmlns="http://www.w3.org/2000/svg">
<path d="M42.8585 44.5944L41.5712 43.3729C41.5064 43.4413 41.4354 43.5024 41.3699 43.5698L33.9902 19.4187C34.9226 18.2175 35.4831 16.7149 35.4831 15.0807C35.4831 11.1677 32.2994 7.98401 28.3864 7.98401V4.72654C28.6224 4.76287 28.8566 4.78783 29.0924 4.83124L29.4162 3.08626C29.0516 3.01883 28.6878 2.97542 28.3232 2.92475C28.0271 1.26584 26.5811 0 24.8378 0C23.0945 0 21.649 1.26603 21.3528 2.92494C20.9883 2.97635 20.6245 3.01901 20.2599 3.08645L20.5837 4.83143C20.8197 4.78802 21.0539 4.76306 21.2897 4.72673V7.98419C17.3767 7.98419 14.193 11.1679 14.193 15.0809C14.193 16.7148 14.7537 18.2176 15.6852 19.4179L8.3053 43.5689C8.23973 43.5015 8.16875 43.4404 8.10392 43.372L6.81666 44.5935C7.10671 44.8986 7.4154 45.1878 7.72147 45.4797L6.24717 50.3055L6.20898 55L11.4083 51.1004L12.1082 48.81C12.2971 48.9236 12.4817 49.0486 12.6716 49.155L13.54 47.6078C13.2375 47.4376 12.9413 47.2442 12.6423 47.0579L15.9085 36.371H33.7666L37.0321 47.0587C36.7331 47.2449 36.4378 47.4383 36.1344 47.6086L37.0029 49.1557C37.1936 49.0484 37.3773 48.9232 37.5662 48.8107L38.2661 51.1011L43.4671 55V50.4324L41.9537 45.4806C42.2598 45.1887 42.5694 44.8996 42.8585 44.5944ZM28.3866 9.75823C31.322 9.75823 33.7091 12.1453 33.7091 15.0807C33.7091 16.7892 32.8965 18.3089 31.6413 19.2829C31.1215 17.5256 29.9389 16.0539 28.383 15.1517C28.383 15.1277 28.3866 15.1047 28.3866 15.0807C28.3866 13.1664 27.6209 11.4304 26.3843 10.152C27.0036 9.90018 27.6787 9.75823 28.3866 9.75823ZM28.0921 17.0884C29.0572 17.8371 29.7581 18.9079 30.0313 20.14C29.5131 20.3093 28.9613 20.4034 28.3866 20.4034C27.6787 20.4034 27.0036 20.2614 26.3843 20.0096C27.1703 19.197 27.7638 18.2 28.0921 17.0884ZM24.8381 19.0371C24.0255 18.3071 23.4365 17.3348 23.1926 16.2312C23.7115 16.0619 24.2633 15.9678 24.8381 15.9678C25.413 15.9678 25.9648 16.0619 26.4836 16.2312C26.2396 17.3348 25.6507 18.3071 24.8381 19.0371ZM24.8381 14.1936C24.2411 14.1936 23.6645 14.2761 23.1101 14.4153C23.2733 13.1141 23.9086 11.96 24.8381 11.1243C25.7677 11.9591 26.403 13.1131 26.5662 14.4145C26.0118 14.2761 25.4352 14.1936 24.8381 14.1936ZM23.2919 20.0096C22.6727 20.2614 21.9976 20.4034 21.2897 20.4034C20.7148 20.4034 20.163 20.3093 19.6442 20.14C19.9175 18.9079 20.6183 17.8371 21.5835 17.0884C21.9125 18.1998 22.506 19.197 23.2919 20.0096ZM21.2897 22.1774C22.5831 22.1774 23.7931 21.8244 24.8381 21.2177C25.8832 21.8244 27.0932 22.1774 28.3866 22.1774C28.9836 22.1774 29.5602 22.0949 30.1146 21.9557C29.7854 24.5772 27.5474 26.613 24.8381 26.613C22.1289 26.613 19.8908 24.577 19.5617 21.9557C20.1161 22.0951 20.6926 22.1774 21.2897 22.1774ZM23.0639 3.54863C23.0639 2.57024 23.8596 1.77441 24.8381 1.77441C25.8167 1.77441 26.6124 2.57005 26.6124 3.54863V8.21743C25.9825 8.38062 25.3873 8.6254 24.8381 8.94396C24.289 8.62466 23.6938 8.38062 23.0639 8.21743V3.54863ZM21.2897 9.75823C21.9976 9.75823 22.6727 9.90018 23.2919 10.152C22.0553 11.4304 21.2897 13.1664 21.2897 15.0807C21.2897 15.1047 21.2932 15.1277 21.2932 15.1517C19.7373 16.0539 18.5548 17.5256 18.035 19.2829C16.7798 18.3087 15.9672 16.7892 15.9672 15.0807C15.9672 12.1453 18.3543 9.75823 21.2897 9.75823ZM9.88094 50.0279L7.98339 51.4516V50.6967L17.1161 20.8069C17.3184 20.955 17.5278 21.0925 17.745 21.2186C17.745 21.2434 17.7414 21.2665 17.7414 21.2905C17.7414 21.9965 17.8487 22.6771 18.0414 23.3211L9.88094 50.0279ZM16.4516 34.5968L19.2042 25.5884C20.5021 27.2855 22.5414 28.3872 24.8381 28.3872C27.1349 28.3872 29.1742 27.2855 30.4721 25.5884L33.2247 34.5968H16.4516ZM41.6931 51.4516L39.7953 50.0287L31.6351 23.3218C31.8275 22.6769 31.935 21.9965 31.935 21.2903C31.935 21.2663 31.9315 21.2434 31.9315 21.2193C32.1489 21.0934 32.3581 20.955 32.5604 20.8076L41.6931 50.6965V51.4516Z" fill="black"/>
<path d="M36.1433 5.38054C35.0939 4.84477 33.9955 4.37812 32.8806 3.99585L32.3066 5.67507C33.3419 6.02902 34.3612 6.46195 35.3361 6.96046L36.1433 5.38054Z" fill="black"/>
<path d="M46.3114 15.0089C45.7179 13.9923 45.0456 13.0067 44.312 12.0815L42.9219 13.1833C43.6041 14.0437 44.2285 14.9584 44.7794 15.9022L46.3114 15.0089Z" fill="black"/>
<path d="M41.9161 9.46622C41.0582 8.65456 40.1366 7.89785 39.175 7.21826L38.1504 8.66685C39.0427 9.29837 39.8997 10.0011 40.6964 10.7552L41.9161 9.46622Z" fill="black"/>
<path d="M47.2406 21.992L48.9634 21.5706C48.6831 20.4236 48.3159 19.2882 47.8733 18.1926L46.2285 18.8579C46.64 19.8746 46.9808 20.9294 47.2406 21.992Z" fill="black"/>
<path d="M49.5583 25.0669L47.793 25.2381C47.8649 25.9868 47.9021 26.747 47.9021 27.5002C47.9021 27.8462 47.8951 28.1895 47.88 28.5319L49.6523 28.6099C49.6684 28.2418 49.6764 27.8719 49.6764 27.5002C49.6762 26.6902 49.6372 25.8715 49.5583 25.0669Z" fill="black"/>
<path d="M46.6621 34.9854L48.3406 35.5603C48.7238 34.4445 49.028 33.2902 49.2473 32.1317L47.5032 31.8025C47.2998 32.8785 47.0168 33.9493 46.6621 34.9854Z" fill="black"/>
<path d="M43.6641 40.8295L45.1117 41.855C45.7956 40.8908 46.4148 39.8714 46.9515 38.8246L45.3735 38.0139C44.8742 38.9871 44.2993 39.9346 43.6641 40.8295Z" fill="black"/>
<path d="M29.8516 50.017L30.2366 51.7495C31.4192 51.4861 32.5883 51.1347 33.7132 50.7027L33.0772 49.0466C32.0339 49.4468 30.949 49.7732 29.8516 50.017Z" fill="black"/>
<path d="M24.8381 50.5648C24.2738 50.5515 23.7114 50.5452 23.149 50.5044L23.0195 52.2732C23.6138 52.3176 24.2144 52.3388 24.8044 52.3388C25.4467 52.3503 26.0419 52.3183 26.6468 52.274L26.519 50.5051C25.9674 50.5452 25.4014 50.5648 24.8381 50.5648Z" fill="black"/>
<path d="M15.9531 50.6993C17.0833 51.1331 18.2525 51.4852 19.4287 51.746L19.8129 50.0135C18.7218 49.7723 17.6368 49.445 16.5891 49.043L15.9531 50.6993Z" fill="black"/>
<path d="M17.3988 5.66603L16.8267 3.98682C15.7099 4.36647 14.6098 4.83127 13.5586 5.3689L14.3658 6.94882C15.3416 6.45031 16.3617 6.01924 17.3988 5.66603Z" fill="black"/>
<path d="M6.77031 13.1656L5.38115 12.062C4.64568 12.9881 3.97149 13.9728 3.37891 14.9877L4.91095 15.8837C5.46107 14.9398 6.08737 14.0261 6.77031 13.1656Z" fill="black"/>
<path d="M2.71484 38.8017C3.25154 39.8504 3.86984 40.8695 4.55203 41.8347L6.00062 40.8092C5.3663 39.9141 4.79235 38.9668 4.29477 37.9927L2.71484 38.8017Z" fill="black"/>
<path d="M2.16983 31.7776L0.425781 32.1049C0.643927 33.266 0.947393 34.4194 1.32891 35.5352L3.00813 34.9622C2.65343 33.927 2.37121 32.8555 2.16983 31.7776Z" fill="black"/>
<path d="M1.77422 27.4992C1.77422 26.7373 1.81148 25.9662 1.886 25.2114L0.120716 25.0366C0.0400523 25.8509 0 26.6795 0 27.5001C0 27.8621 0.00801038 28.2222 0.0230999 28.5825L1.79546 28.5044C1.7813 28.1708 1.77422 27.8364 1.77422 27.4992Z" fill="black"/>
<path d="M11.5468 8.65196L10.5232 7.20337C9.56153 7.88202 8.63809 8.63687 7.7793 9.44779L8.99726 10.7386C9.7957 9.98523 10.6536 9.28348 11.5468 8.65196Z" fill="black"/>
<path d="M3.45628 18.8351L1.81246 18.168C1.36983 19.2591 1.00172 20.3945 0.71875 21.5417L2.44063 21.9666C2.70404 20.9029 3.04551 19.849 3.45628 18.8351Z" fill="black"/>
</svg>
