<svg width="73" height="58" viewBox="0 0 73 58" fill="none" xmlns="http://www.w3.org/2000/svg">
<path d="M36.0893 17.3295C39.3682 17.3295 42.0361 14.6616 42.0361 11.3823C42.0361 8.10301 39.3682 5.43555 36.0893 5.43555C32.8105 5.43555 30.1426 8.10316 30.1426 11.3823C30.1426 14.6614 32.8105 17.3295 36.0893 17.3295ZM36.0893 6.85065C38.588 6.85065 40.621 8.88363 40.621 11.3823C40.621 13.8812 38.588 15.9142 36.0893 15.9142C33.5907 15.9142 31.5577 13.8812 31.5577 11.3823C31.5577 8.88363 33.5907 6.85065 36.0893 6.85065Z" fill="#E3A10D"/>
<path d="M69.3853 47.0331V42.5672C69.3853 28.4036 60.4894 16.2796 47.9799 11.4787L48.848 8.13205C49.9162 4.01696 46.8115 0 42.5564 0H29.6208C25.3689 0 22.2602 4.01349 23.3293 8.13205L24.1973 11.4785C11.6075 16.3104 2.79194 28.4781 2.79194 42.5672V47.0339C0.536383 48.3801 -0.61264 51.1813 0.332016 53.8519C1.1411 56.5542 4.2874 58.4627 7.39468 57.501C26.1664 51.7471 46.0107 51.7474 64.7824 57.5007C67.869 58.4551 70.9868 56.607 71.8451 53.8564C72.7907 51.1882 71.6485 48.383 69.3853 47.0331ZM17.3198 16.825L22.8802 34.1782C23.0003 34.5537 23.4031 34.7551 23.7695 34.6359C24.1419 34.5167 24.3472 34.1183 24.2277 33.7462L18.5351 15.9805C20.4133 14.737 22.4275 13.6834 24.5544 12.8549L28.355 27.5065C28.4524 27.8848 28.8394 28.1125 29.2175 28.0136C29.5961 27.9155 29.8228 27.5296 29.7246 27.1512L24.699 7.77694C23.864 4.55693 26.2921 1.41525 29.621 1.41525H42.5565C45.8829 1.41525 48.3141 4.55461 47.4785 7.77694L42.4529 27.1512C42.3548 27.5296 42.5814 27.9155 42.9601 28.0136C43.3353 28.1118 43.7243 27.8867 43.8225 27.5065L47.6231 12.8546C49.7048 13.6654 51.6782 14.6923 53.5221 15.9013L47.947 33.2842C47.8274 33.6564 48.0327 34.0547 48.4044 34.174C48.7772 34.2941 49.1756 34.0874 49.2944 33.7163L54.7391 16.74C62.7467 22.5352 67.9702 31.9488 67.9702 42.5673V46.4208C47.1093 40.0641 25.068 40.0642 4.20719 46.4211V42.5672C4.20719 32.0009 9.37895 22.6271 17.3198 16.825ZM70.4701 53.4913C69.6907 55.6538 67.3786 56.8216 65.1985 56.1482C46.1552 50.3113 26.0222 50.3116 6.97886 56.1485C4.80295 56.8209 2.48741 55.6548 1.6948 53.4705C0.938614 50.5297 2.32163 48.4767 4.48714 47.8125C25.1597 41.4848 47.0162 41.4839 67.6917 47.8125C69.9388 48.5018 71.3882 50.9012 70.4701 53.4913Z" fill="#E3A10D"/>
</svg>
