<svg width="36" height="36" viewBox="0 0 36 36" fill="none" xmlns="http://www.w3.org/2000/svg">
<circle cx="18" cy="18" r="18" fill="#4B4A4A" fill-opacity="0.27"/>
<path d="M11.7378 24.3881C12.0364 24.3883 12.3228 24.2699 12.534 24.059L21.75 14.8407L21.75 21.0687C21.75 21.3671 21.8685 21.6533 22.0795 21.8642C22.2905 22.0752 22.5766 22.1937 22.875 22.1937C23.1734 22.1937 23.4595 22.0752 23.6705 21.8642C23.8815 21.6533 24 21.3671 24 21.0687L24 12.125C24 11.8266 23.8815 11.5405 23.6705 11.3295C23.4595 11.1185 23.1734 11 22.875 11L13.9313 11C13.6329 11 13.3467 11.1185 13.1358 11.3295C12.9248 11.5405 12.8063 11.8266 12.8063 12.125C12.8063 12.4234 12.9248 12.7095 13.1358 12.9205C13.3467 13.1315 13.6329 13.25 13.9313 13.25L20.1593 13.25L10.9432 22.466C10.732 22.6769 10.6132 22.9632 10.613 23.2617C10.6128 23.5602 10.7312 23.8466 10.9421 24.0579C11.1531 24.2691 11.4393 24.3879 11.7378 24.3881Z" fill="#FDFDFD"/>
</svg>
