<svg width="54" height="62" viewBox="0 0 54 62" fill="none" xmlns="http://www.w3.org/2000/svg">
<path d="M46.5602 26.0026C46.0754 15.8208 37.736 7.38439 27.4572 6.99651C16.0148 6.51166 6.51172 15.6268 6.51172 26.9723C6.51172 33.8571 10.0026 40.1601 15.8208 43.845C16.9844 44.6208 17.6632 45.8814 17.6632 47.3359V51.6026C17.6632 52.1844 18.0511 52.5723 18.6329 52.5723H34.342C34.9238 52.5723 35.3117 52.1844 35.3117 51.6026V47.2389C35.3117 45.7844 35.9905 44.5238 37.1541 43.748C43.2632 40.0632 46.8511 33.1783 46.5602 26.0026ZM36.1844 42.1965C34.439 43.2632 33.3723 45.2026 33.3723 47.3359V50.7298H19.7966V47.4329C19.7966 45.2995 18.7299 43.3601 16.9844 42.2935C11.6511 38.9965 8.54808 33.2753 8.54808 26.9723C8.54808 16.6935 17.0814 8.45106 27.4572 8.93591C36.6693 9.32379 44.2329 16.8874 44.6208 26.0995C44.9117 32.5965 41.7117 38.8026 36.1844 42.1965Z" fill="#E3A10D"/>
<path d="M33.4699 55.2876H19.7002C19.1183 55.2876 18.7305 55.6755 18.7305 56.2573C18.7305 56.8391 19.1183 57.227 19.7002 57.227H33.5668C34.1487 57.227 34.5365 56.8391 34.5365 56.2573C34.4396 55.7724 34.0517 55.2876 33.4699 55.2876Z" fill="#E3A10D"/>
<path d="M30.4636 59.9419H22.706C22.1242 59.9419 21.7363 60.3298 21.7363 60.9116C21.7363 61.4934 22.1242 61.8813 22.706 61.8813H30.4636C31.0454 61.8813 31.4333 61.4934 31.4333 60.9116C31.4333 60.3298 30.9485 59.9419 30.4636 59.9419Z" fill="#E3A10D"/>
<path d="M6.89937 41.615C6.60846 41.2272 5.92968 41.1302 5.5418 41.4211C5.15392 41.712 5.05695 42.3908 5.34786 42.7787C6.02665 43.7484 6.8024 44.6211 7.67513 45.3969C8.06301 45.7847 8.64483 45.7847 9.03271 45.3969C9.42059 45.009 9.42059 44.4272 9.03271 44.0393C8.25695 43.2635 7.57816 42.4878 6.89937 41.615Z" fill="#E3A10D"/>
<path d="M3.11788 15.7237C2.63303 15.5298 2.05121 15.7237 1.85727 16.2086C0.984547 18.3419 0.402729 20.6692 0.0148503 22.8995C-0.0821194 23.3843 0.305759 23.8692 0.887578 23.9662C1.4694 24.0631 1.95424 23.6752 1.95424 23.0934C2.24515 20.9601 2.82697 18.8268 3.60273 16.8874C3.89364 16.4995 3.6997 16.0146 3.11788 15.7237Z" fill="#E3A10D"/>
<path d="M2.05092 29.7843C1.95395 29.2995 1.46911 28.9116 0.984257 28.9116C0.402439 29.0086 0.0145603 29.4934 0.11153 29.9783C0.402439 32.3056 0.984257 34.5359 1.85698 36.7662C2.05092 37.251 2.63274 37.5419 3.11759 37.251C3.60244 37.0571 3.89335 36.4753 3.60244 35.9904C2.82668 33.954 2.24486 31.9177 2.05092 29.7843Z" fill="#E3A10D"/>
<path d="M16.6939 3.6995C17.1787 3.6995 19.3121 2.43889 23.2878 1.95404C23.8696 1.85707 24.2575 1.37222 24.1605 0.887376C24.0636 0.402527 23.5787 0.0146484 23.0939 0.0146484C20.7666 0.305558 18.5363 0.984345 16.306 1.85707C15.8211 2.05101 15.5302 2.63283 15.8211 3.11768C16.0151 3.50556 16.306 3.6995 16.6939 3.6995Z" fill="#E3A10D"/>
<path d="M46.2694 11.457C46.5603 11.8449 47.2391 11.9419 47.627 11.651C48.0148 11.3601 48.1118 10.6813 47.8209 10.2934C46.4633 8.54795 44.8148 6.80249 42.8754 5.34795C42.4876 5.05704 41.8088 5.05704 41.5179 5.54189C41.227 5.92977 41.227 6.60855 41.7118 6.89946C43.3603 8.16007 44.9118 9.71158 46.2694 11.457Z" fill="#E3A10D"/>
<path d="M6.89946 11.4574C8.16007 9.80895 9.71158 8.25744 11.457 6.89986C11.8449 6.60895 11.9419 5.93017 11.651 5.54229C11.3601 5.15441 10.6813 5.05744 10.2934 5.34835C8.45098 6.80289 6.80249 8.45138 5.34795 10.2938C5.05704 10.6817 5.05704 11.3605 5.54189 11.6514C6.02674 11.9423 6.60855 11.8453 6.89946 11.4574Z" fill="#E3A10D"/>
<path d="M29.7849 1.95424C33.7606 2.43909 35.8939 3.6997 36.3788 3.6997C36.7667 3.6997 37.1546 3.50576 37.2515 3.11788C37.4455 2.63303 37.2515 2.05121 36.7667 1.85727C34.6333 0.984547 32.3061 0.402729 30.0758 0.0148503C29.4939 -0.0821194 29.0091 0.305759 29.0091 0.887578C28.9121 1.37243 29.3 1.85727 29.7849 1.95424Z" fill="#E3A10D"/>
<path d="M51.1181 23.2875C51.215 23.7724 51.6999 24.1602 52.1847 24.1602C52.6696 24.0633 53.0575 23.5784 53.0575 23.0936C52.7666 20.7663 52.1847 18.536 51.215 16.4027C51.0211 15.9178 50.4393 15.6269 49.9544 15.9178C49.4696 16.1118 49.1787 16.6936 49.4696 17.1784C50.3423 19.0209 50.8272 21.0572 51.1181 23.2875Z" fill="#E3A10D"/>
<path d="M52.2817 28.9118C51.7968 28.8149 51.312 29.2027 51.215 29.7845C50.9241 31.9179 50.3423 34.0512 49.5665 35.9906C49.3726 36.4755 49.5665 37.0573 50.0514 37.2512C50.5362 37.4452 51.118 37.2512 51.312 36.7664C52.1847 34.633 52.7665 32.3058 53.0574 30.0755C53.1544 29.3967 52.7665 28.9118 52.2817 28.9118Z" fill="#E3A10D"/>
<path d="M46.269 41.6146C45.5902 42.4874 44.9114 43.2631 44.1356 44.0389C43.7478 44.4268 43.7478 45.0086 44.1356 45.3965C44.5235 45.7843 45.1053 45.7843 45.4932 45.3965C46.3659 44.5237 47.1417 43.651 47.8205 42.7783C48.1114 42.3904 48.1114 41.7116 47.6265 41.4207C47.2387 41.1298 46.5599 41.1298 46.269 41.6146Z" fill="#E3A10D"/>
<path d="M40.6449 23.8692L38.6085 23.7722C38.3176 22.7055 37.9298 21.7358 37.3479 20.8631L38.7055 19.3116C39.0934 18.9237 39.0934 18.3419 38.7055 17.954L35.6025 14.851C35.2146 14.4631 34.6328 14.4631 34.2449 14.851L32.6934 16.2086C31.7237 15.6267 30.754 15.2389 29.7843 14.948L29.6873 12.9116C29.6873 12.4267 29.2025 11.9419 28.7176 11.9419H24.354C23.8692 11.9419 23.3843 12.3298 23.3843 12.9116L23.2873 14.948C22.2207 15.2389 21.251 15.6267 20.3782 16.2086L18.8267 14.754C18.4388 14.3661 17.857 14.4631 17.4692 14.754L14.3661 17.857C13.9782 18.2449 13.9782 18.8267 14.3661 19.2146L15.7237 20.7661C15.2388 21.7358 14.754 22.7055 14.4631 23.6752L12.4267 23.7722C11.9419 23.7722 11.457 24.257 11.457 24.7419V29.1055C11.457 29.5904 11.8449 30.0752 12.4267 30.0752L14.4631 30.1722C14.754 31.2389 15.1419 32.2086 15.7237 33.0813L14.3661 34.6328C13.9782 35.0207 14.0752 35.6025 14.3661 35.9904L17.4692 39.0934C17.857 39.4813 18.4388 39.4813 18.8267 39.0934L20.3782 37.7358C21.3479 38.3177 22.3176 38.7055 23.2873 38.9964L23.3843 41.0328C23.3843 41.5177 23.8692 42.0025 24.354 42.0025H28.7176C29.2025 42.0025 29.6873 41.6146 29.6873 41.0328L29.7843 38.9964C30.851 38.7055 31.8207 38.3177 32.6934 37.7358L34.2449 39.0934C34.6328 39.4813 35.2146 39.3843 35.6025 39.0934L38.7055 35.9904C39.0934 35.6025 39.0934 35.0207 38.7055 34.6328L37.3479 33.0813C37.8328 32.1116 38.3176 31.1419 38.6085 30.1722L40.6449 30.0752C41.1298 30.0752 41.6146 29.5904 41.6146 29.1055V24.7419C41.6146 24.257 41.1298 23.8692 40.6449 23.8692ZM39.6752 28.2328L37.8328 28.3298C37.3479 28.3298 37.057 28.6207 36.9601 29.1055C36.6692 30.4631 36.1843 31.6267 35.4085 32.7904C35.1176 33.1783 35.2146 33.6631 35.5055 33.954L36.7661 35.3116L35.0207 37.057L33.5661 35.7964C33.2752 35.5055 32.6934 35.4086 32.4025 35.6995C31.3358 36.4752 30.0752 36.9601 28.7176 37.251C28.2328 37.348 27.9419 37.7358 27.9419 38.1237L27.8449 39.9661H25.3237L25.2267 38.1237C25.2267 37.6389 24.8388 37.348 24.451 37.251C23.0934 36.9601 21.9298 36.4752 20.7661 35.6995C20.3782 35.4086 19.8934 35.5055 19.6025 35.7964L18.2449 37.057L16.4995 35.3116L17.7601 33.954C18.051 33.6631 18.051 33.1783 17.857 32.7904C17.0813 31.6267 16.5964 30.4631 16.3055 29.1055C16.2085 28.7177 15.8207 28.3298 15.4328 28.3298L13.5904 28.2328V25.7116L15.4328 25.6146C15.9176 25.6146 16.2085 25.3237 16.3055 24.8389C16.5964 23.4813 17.0813 22.3177 17.857 21.154C18.1479 20.7661 18.051 20.2813 17.7601 19.9904L16.4995 18.6328L18.2449 16.8873L19.6025 18.148C19.8934 18.4389 20.3782 18.4389 20.7661 18.2449C21.9298 17.4692 23.0934 16.9843 24.451 16.6934C24.8388 16.5964 25.2267 16.2086 25.2267 15.8207L25.3237 13.9783H27.8449L27.9419 15.8207C27.9419 16.3055 28.3298 16.5964 28.7176 16.6934C29.9782 16.9843 31.2388 17.4692 32.4025 18.2449C32.7904 18.5358 33.2752 18.4389 33.5661 18.148L34.9237 16.8873L36.6692 18.6328L35.4085 19.9904C35.1176 20.2813 35.0207 20.7661 35.3116 21.154C36.0873 22.2207 36.5722 23.4813 36.8631 24.7419C36.9601 25.0328 37.057 25.5177 37.7358 25.5177H37.8328L39.5782 25.6146V28.2328H39.6752Z" fill="#E3A10D"/>
<path d="M26.5849 19.7969C22.6092 19.7969 19.4092 22.9969 19.4092 26.9726C19.4092 30.9484 22.6092 34.1484 26.5849 34.1484C30.5607 34.1484 33.7607 30.9484 33.7607 26.9726C33.7607 22.9969 30.5607 19.7969 26.5849 19.7969ZM26.5849 32.209C23.6758 32.209 21.3486 29.8817 21.3486 26.9726C21.3486 24.0635 23.6758 21.7363 26.5849 21.7363C29.494 21.7363 31.8213 24.0635 31.8213 26.9726C31.8213 29.8817 29.494 32.209 26.5849 32.209Z" fill="#E3A10D"/>
</svg>
