<svg width="62" height="62" viewBox="0 0 62 62" fill="none" xmlns="http://www.w3.org/2000/svg">
<path d="M61.1901 30.4944C62.6696 27.5674 62.057 24.093 59.6656 21.8485L56.1948 18.5908C55.3941 17.8395 54.9048 16.9917 54.6543 15.9224L53.5684 11.2879C52.8205 8.09466 50.1178 5.82678 46.843 5.64466L42.0904 5.38028C40.994 5.31928 40.074 4.98441 39.195 4.32653L35.3843 1.47403C32.759 -0.491219 29.2306 -0.491469 26.605 1.47403L22.7943 4.32641C21.9153 4.98441 20.9951 5.31928 19.8989 5.38028L15.1463 5.64466C11.8716 5.82678 9.16888 8.09466 8.42088 11.2879L7.33501 15.9225C7.08463 16.9917 6.59513 17.8395 5.79463 18.5909L2.32363 21.8485C-0.0677404 24.0929 -0.680365 27.5674 0.799135 30.4944L2.94663 34.7425C3.44201 35.7225 3.61201 36.6867 3.48163 37.7769L2.91663 42.5034C2.52751 45.7598 4.29151 48.8152 7.30626 50.1064L11.682 51.9804C12.6913 52.4127 13.4413 53.0419 14.0424 53.9608L16.6478 57.9447C18.4426 60.6894 21.7579 61.8962 24.8975 60.9473L29.454 59.5703C30.5051 59.2525 31.4841 59.2527 32.535 59.5703L37.0915 60.9473C37.8059 61.1632 38.529 61.2675 39.2415 61.2674C41.6606 61.2673 43.9548 60.0649 45.3413 57.9447L47.9468 53.9608C48.5478 53.0419 49.2978 52.4125 50.307 51.9803L54.6828 50.1063C57.6975 48.815 59.4616 45.7597 59.0724 42.5033L58.5074 37.7767C58.377 36.6865 58.547 35.7223 59.0424 34.7424L61.1901 30.4944ZM57.2578 33.8404C56.5856 35.17 56.3449 36.5353 56.5218 38.0143L57.0868 42.7408C57.3741 45.1452 56.1215 47.3147 53.8956 48.268L49.5199 50.142C48.1505 50.7285 47.0885 51.6197 46.2731 52.8663L43.6676 56.8502C42.3424 58.8767 39.988 59.7334 37.6703 59.0329L33.1138 57.6559C32.4008 57.4404 31.6979 57.3327 30.9946 57.3327C30.2916 57.3327 29.5884 57.4404 28.8755 57.6559L24.319 59.0329C22.0013 59.7333 19.647 58.8767 18.3216 56.8502L15.7163 52.8663C14.9008 51.6195 13.8386 50.7284 12.4694 50.142L8.09363 48.268C5.86763 47.3148 4.61513 45.1452 4.90251 42.7408L5.46751 38.0143C5.64438 36.5352 5.40363 35.1699 4.73151 33.8403L2.58401 29.5922C1.49176 27.431 1.92663 24.964 3.69226 23.3068L7.16326 20.0492C8.24938 19.0298 8.94251 17.8292 9.28226 16.3787L10.3681 11.744C10.9204 9.38641 12.8395 7.77603 15.2573 7.64166L20.0099 7.37728C21.4973 7.29453 22.8 6.82028 23.9926 5.92766L27.8034 3.07516C29.7419 1.62416 32.2473 1.62403 34.1858 3.07516L37.9965 5.92766C39.1891 6.82028 40.492 7.29453 41.9793 7.37728L46.7319 7.64166C49.1498 7.77616 51.0688 9.38641 51.621 11.7442L52.7069 16.3787C53.0466 17.8293 53.7399 19.0299 54.826 20.0492L58.2969 23.3068C60.0625 24.9639 60.4974 27.431 59.4051 29.5922L57.2578 33.8404ZM30.9948 10.1889C19.7223 10.1889 10.5515 19.3597 10.5515 30.6322C10.5515 41.9047 19.7223 51.0754 30.9948 51.0754C42.2673 51.0754 51.438 41.9047 51.438 30.6322C51.438 19.3597 42.2673 10.1889 30.9948 10.1889ZM30.9948 49.0754C20.8251 49.0754 12.5515 40.8018 12.5515 30.6322C12.5515 20.4625 20.8251 12.1889 30.9948 12.1889C41.1644 12.1889 49.438 20.4625 49.438 30.6322C49.438 40.8018 41.1644 49.0754 30.9948 49.0754ZM39.5064 21.3659C39.5015 21.3659 39.4964 21.3659 39.4915 21.3659C38.4923 21.3698 37.5551 21.7625 36.853 22.4719L28.5604 30.847L25.1356 27.4222C24.4284 26.7149 23.4879 26.3254 22.4874 26.3254C21.4868 26.3254 20.5464 26.7149 19.839 27.4223C18.3789 28.8825 18.3789 31.2585 19.839 32.7187L25.9216 38.8013C26.6518 39.5313 27.6108 39.8964 28.5699 39.8964C29.529 39.8964 30.4881 39.5314 31.2183 38.8013C33.5244 36.495 35.8513 34.1348 38.1016 31.8524C39.4538 30.4808 40.8061 29.1093 42.1616 27.741C43.6119 26.2775 43.6043 23.906 42.1446 22.4545C41.4385 21.752 40.5021 21.3659 39.5064 21.3659ZM40.741 26.3332C39.3843 27.7027 38.0308 29.0754 36.6773 30.4482C34.4295 32.7282 32.1051 35.0858 29.804 37.3869C29.1235 38.0674 28.0161 38.0674 27.3359 37.3869L21.2534 31.3043C20.573 30.6239 20.573 29.5167 21.2534 28.8362C21.5829 28.5067 22.0211 28.3252 22.4874 28.3252C22.9535 28.3252 23.3919 28.5067 23.7214 28.8362L27.8568 32.9717C28.0444 33.1592 28.2986 33.2645 28.5639 33.2645H28.5664C28.8325 33.2639 29.0874 33.1572 29.2745 32.9682L38.2743 23.8788C38.6 23.5497 39.0351 23.3674 39.4993 23.3657H39.5063C39.9699 23.3657 40.4058 23.5454 40.7345 23.8723C41.4134 24.5478 41.4164 25.6515 40.741 26.3332Z" fill="#E3A10D"/>
</svg>
