<svg xmlns="http://www.w3.org/2000/svg" xmlns:xlink="http://www.w3.org/1999/xlink" viewBox="0 0 957 232.45"><defs><style>.cls-1{fill:url(#linear-gradient);}.cls-2{fill:#1f1e1a;}.cls-3{fill:#bd9936;}.cls-4{fill:#a5862f;}</style><linearGradient id="linear-gradient" x1="2253.71" y1="-1720.77" x2="2079.4" y2="-1949.75" gradientTransform="matrix(1, 0, 0, -1, -2092, -1721.99)" gradientUnits="userSpaceOnUse"><stop offset="0" stop-color="#bd9936"/><stop offset="1" stop-color="#ffd14a"/></linearGradient></defs><g id="Layer_2" data-name="Layer 2"><g id="Layer_1-2" data-name="Layer 1"><path class="cls-1" d="M96.32,0s21.47,14.78,52.75,14.78,42.25-1.3,42.25-1.3S199,131.13,177.54,171.2c-20.49,38.28-76.25,60.26-81.19,61.25-4.94-1-60.72-23-81.2-61.25C-6.28,131.13,1.3,14.65,1.3,14.65s11,.13,42.32.13S96.32,0,96.32,0Z"/><path class="cls-2" d="M96.32,6.39s20.27,14,49.81,14S186,19.13,186,19.13s7.23,111.18-13,149.05c-19.34,36.17-72,56.94-76.66,57.88-4.67-.94-57.33-21.71-76.67-57.88-20.24-37.87-13.07-148-13.07-148s10.41.12,40,.12S96.32,6.39,96.32,6.39Z"/><path class="cls-3" d="M76.57,170.25l-.75.35c-2.06.9-4.11,1.85-6.13,2.83-.81.39-1.67.74-2.45,1.19,0,1.18,0,2.37,0,3.54,1.92-.82,3.82-1.69,5.71-2.58a29.67,29.67,0,0,1,3.6-1.66C76.62,172.7,76.58,171.47,76.57,170.25Z"/><path class="cls-3" d="M124.16,167.91a2.64,2.64,0,0,0,1,.44c0-1.11,0-2.22,0-3.32-.34-.17-.69-.35-1-.5Z"/><path class="cls-3" d="M124.14,158.51v3.43a8.81,8.81,0,0,0,1,.45c0-1.12,0-2.25,0-3.37Z"/><path class="cls-3" d="M125.21,174.28c0-1.11,0-2.22,0-3.33-.35-.16-.72-.3-1.09-.43v3.35A4.64,4.64,0,0,0,125.21,174.28Z"/><path class="cls-3" d="M125.24,180.29v-3.56c-.35-.13-.71-.28-1.07-.39v3.46A11.62,11.62,0,0,0,125.24,180.29Z"/><path class="cls-3" d="M120.58,156.82c0,1.16,0,2.32,0,3.49a11.29,11.29,0,0,0,1.09.57V157.4A10.76,10.76,0,0,0,120.58,156.82Z"/><path class="cls-3" d="M120.62,166.42l1.08.52v-3.53a9,9,0,0,0-1.07-.55Z"/><path class="cls-3" d="M121.66,178.85c0-1.18,0-2.37,0-3.56a8,8,0,0,0-1.06-.4c0,1.18,0,2.36,0,3.53A10.12,10.12,0,0,0,121.66,178.85Z"/><path class="cls-3" d="M121.72,169.43a7.18,7.18,0,0,0-1.1-.48v3.49l1.08.56C121.72,171.81,121.72,170.62,121.72,169.43Z"/><path class="cls-3" d="M67.32,184.05a3.27,3.27,0,0,0,1.24-.46,11.57,11.57,0,0,0,2.08-.86q3-1.3,5.94-2.75v-3.42q-4.65,2.1-9.33,4.13c0,1,0,2,0,3V184Z"/><path class="cls-3" d="M76.52,157.6c-3,1.59-6.2,2.94-9.25,4.47a21,21,0,0,0,.12,3.54c1.72-.75,3.41-1.58,5.11-2.38a45.48,45.48,0,0,0,4.13-2.07A17.71,17.71,0,0,0,76.52,157.6Z"/><path class="cls-3" d="M76.56,164q-3.07,1.33-6.09,2.79a35.4,35.4,0,0,0-3.27,1.61,23.63,23.63,0,0,0,.06,3.51h.06c1.54-.69,3.06-1.43,4.6-2.14s3.16-1.42,4.68-2.24A27.39,27.39,0,0,0,76.56,164Z"/><path class="cls-3" d="M108.18,190.4a23.88,23.88,0,0,0-3-.14c-1.91-.17-3.86-.15-5.78-.17q-6.42-.06-12.83.23a41.14,41.14,0,0,0-5.19.49c-4.66.28-9.49,1.83-13.92,3.26-1.9.62-3.89,1.23-5.73,2,1.2-.1,2.38-.35,3.57-.57,1.6-.29,3.18-.58,4.79-.78,2.84-.36,5.68-.69,8.52-1,1.28-.13,2.58-.17,3.86-.35a20.59,20.59,0,0,0,2.71-.14c1.12-.06,2.3,0,3.42-.16.53,0,1.1,0,1.64-.05l3-.09c2.87-.08,5.73-.06,8.6,0,1.86.13,3.74.11,5.61.24q4.75.28,9.49.82t9.44,1.28c1.71.27,3.42.52,5.11.86a19.26,19.26,0,0,0-3-1.29A68.25,68.25,0,0,0,108.18,190.4Z"/><path class="cls-3" d="M86,140.7c-.58.34-1.14.7-1.68,1.07l0,23c0,2.89,0,5.78,0,8.66a37.08,37.08,0,0,0,.06,4.22c.57-.21,1.15-.42,1.69-.66-.11-3.67,0-7.35,0-11V143.22A13.15,13.15,0,0,0,86,140.7Z"/><path class="cls-3" d="M89.49,138.08l0,0-1.63,1,0,24.44v8.25c0,1.39-.07,2.81,0,4.19a.64.64,0,0,0,.07.31l1.63-.69v-29l0-6.22A11.52,11.52,0,0,0,89.49,138.08Z"/><path class="cls-3" d="M86.73,182.68c1.88-.59,3.76-1.2,5.62-1.83.86-.29,1.8-.57,2.65-.94a5.35,5.35,0,0,0,1.15-.38l.59.27c5.7,2,11.47,3.73,17.22,5.54q15.35,4.88,30.82,9.31a26.15,26.15,0,0,0-3.07-1.34c-2.27-.94-4.55-1.83-6.83-2.73-10.5-4.16-21.19-7.82-31.7-12-1.42-.58-2.88-1.06-4.34-1.57-.86-.29-1.71-.64-2.57-.93-.78.23-1.53.55-2.3.83-1.06.4-2.12.77-3.16,1.18-1.6.51-3.14,1.2-4.71,1.78l-13.33,5q-9,3.3-17.82,6.8c-2.34,1-4.8,1.83-7.07,2.94,1-.23,2-.54,3-.82q3-.82,6-1.76l15.25-4.71Z"/><path class="cls-3" d="M101.75,175.44a10.09,10.09,0,0,0,1.86.61l0-51.64a11.92,11.92,0,0,0-2-1.71q.07,9.64,0,19.3Z"/><path class="cls-3" d="M64.48,185.13l0-24.33a5.85,5.85,0,0,0,1-.5c1.05-.42,2.08-.9,3.08-1.42,2.68-1.27,5.32-2.65,8-3.9v-3.62c-.92.39-1.8.86-2.7,1.29l-5.09,2.43-3.35,1.59a19,19,0,0,0-1.92,1A21.3,21.3,0,0,0,60.76,159v27.74A39,39,0,0,0,64.48,185.13Z"/><path class="cls-3" d="M116.46,170.66l0,6.83c0,1.24,0,2.48,0,3.72a9.6,9.6,0,0,1,1.66.58v-6.47a25.84,25.84,0,0,0,0-2.92c0-2.59,0-5.16,0-7.74V151.78c2,1.08,4,2.09,6,3.16a46.87,46.87,0,0,0,4.13,2.22v12.31c0,2.06-.09,4.15,0,6.2,0,3.34,0,6.7,0,10,1.18.48,2.38.94,3.58,1.38,0-2.14,0-4.29,0-6.43.07-3.68,0-7.37,0-11.06V155.37c-1.12-.63-2.5-1.18-3.69-1.81l-11.68-6.19c-.11,2.54,0,5.26,0,7.83Q116.42,162.93,116.46,170.66Z"/><path class="cls-3" d="M78.79,179.88c1.15-.48,2.28-1,3.41-1.46v-22c0-5.19-.07-10.39,0-15.58,3-2.25,6.1-4.26,9-6.51l0,5.17a18.58,18.58,0,0,0,0,2.36c-.1,1.55,0,3.16,0,4.71l0,9c0,6.45,0,12.9.08,19.35q1-.39,1.92-.81,0-5,0-10.06V134.66c0-1.58.09-3.24,0-4.81v-.18l-.08-.07a27.53,27.53,0,0,0-3.54,2.25L83.22,136a34.46,34.46,0,0,0-4.5,3l.06,26.9Z"/><path class="cls-3" d="M89.79,122.56c1.36-1.34,2.72-2.67,4.1-4,.57-.56,1.12-1.18,1.72-1.7l.06,56.19c1.38.52,2.76,1.07,4.13,1.65l0-35.29c0-7,.09-14,0-21,1,1,2.14,2,3.25,3,.8.7,1.65,1.38,2.4,2.14,0,1.86,0,3.72,0,5.58l0,47.79c.77.25,1.52.54,2.28.82l.07-44.85a31.73,31.73,0,0,0,2.76,2.3l0,43.73c1.17.39,2.3.88,3.46,1.29l0-45.85c-2.08-1.85-4.2-3.64-6.31-5.46,0-1.33,0-2.66,0-4,.08-1.18,0-2.39,0-3.58l-7.6-7c-1.15-1-2.24-2.12-3.41-3.12q-3.56,3.38-7,6.85c-.89.89-1.86,1.76-2.68,2.71l0,10c.93-.51,1.83-1.06,2.71-1.66C89.8,127,89.84,124.78,89.79,122.56Z"/><path class="cls-3" d="M39.13,100.85V82.38H40c2.79,9.06,9.41,14.12,19,14.12,8.63,0,14.56-4.54,14.56-11,0-14.81-34.08-10.72-34.08-31C39.48,42,52,36.19,63.27,36.19c7.06,0,11.94,2.09,15.69,2.09a3.15,3.15,0,0,0,3-2.09h.61V52.83h-.61c-3-7.49-8.45-12.29-17.6-12.29-6.1,0-13.16,3-13.16,10.38,0,14.38,34.07,9.32,34.07,31.46,0,13.07-11.67,18.47-25.18,18.47-8.72,0-14.21-2.61-16.91-2.61a3.41,3.41,0,0,0-3.4,2.61Zm63-17V53.18c0-9.41,0-11-3.31-12.46L92.9,38.1v-.61H127c11.33,0,22.13,3.75,22.13,14.38,0,9.42-7.93,14.56-17,15.08v.18c9.76.43,20,5,20,15.68,0,12.55-12.64,16.74-23.27,16.74H92.9v-.61l5.93-2.62C102.14,94.84,102.14,93.27,102.14,83.86Zm12.2-42V65.21h7.76c7.58,0,13.77-4.45,13.77-11.77,0-9.67-7.24-11.59-13.86-11.59Zm0,27.72V95.19h7.23c9.24,0,16.74-2.44,16.74-12.64s-7.76-13-16.56-13Z"/><path class="cls-3" d="M369.69,67.39h7.19c7,0,13.56-3,13.56-11.63,0-7.28-6-10.8-14-10.8h-6.61c-.08,1.51-.16,3.35-.16,6.86Zm0,4.18V91.16c0,3.68,1.08,5.44,3.76,6.52l5.11,2.1v.58H349.1v-.58l5.1-2.1c2.68-1.08,3.77-2.84,3.77-6.52V55.84c0-9,0-10.54-3.18-12l-5.69-2.51v-.58h30.71c11.21,0,23.35,2.93,23.35,13.89,0,8.95-7,13.31-16.24,14.9v.16c6.53.84,12.05,2.26,13.48,9.38l2.42,12c.76,3.77,1.51,5.69,3.27,6.7l3.68,2v.58H396c-3.6,0-4.43-1.59-5-4.85l-2.76-14.9c-1-5.52-4-9-9.54-9Zm65,0V95.68h23.43c3.27,0,4.69-1.93,6.11-4.86l2.6-5.27h.58v14.81H414.1v-.58l5.69-2.51c3.18-1.43,3.18-2.93,3.18-12V55.84c0-9,0-10.54-3.18-12l-5.69-2.51v-.58h52.06V54.25h-.59l-2.59-5c-1.51-3-2.85-4.27-7.87-4.27H434.69V67.39h16.82c3.77,0,5-2.93,5.86-4.69l1.84-4.18h.59V80.28h-.59L457,75.59c-1.42-3-2.84-4-6.86-4Zm56.92,9L487.51,90c-.92,2.18-1.59,3.6-1.59,4.94s1.09,2.43,3.18,3.27l4.1,1.59v.58H472.53v-.58l3.52-1.51c2.26-1.09,3.68-3.52,5-6.53l23.77-52.22H511l22.68,50.8c1.25,2.84,3.51,6.53,6,7.78l3.52,1.68v.58H514.13v-.58l4.35-1.68c2-.75,3.34-1.76,3.34-3.18a15.16,15.16,0,0,0-1.5-5.1l-4.1-9.21Zm2-4.68h20.59L503.92,52.49Zm59.59,9.37V50c0-3.68-1.09-5.44-3.77-6.52l-5.1-2.1v-.58h29.45v.58l-5.1,2.1c-2.68,1.08-3.77,2.84-3.77,6.52v45.7h20.84c4,0,5.94-3.18,7.78-7.12l2.26-4.85h.59v16.65h-52v-.58L550,97.27C553.21,95.84,553.21,94.34,553.21,85.3Zm62,5.86V52.66c0-2.84-.08-5.44-.25-7.7H604.32c-4.27,0-4.94.84-6.78,4.6l-3.6,7.29h-.58V40.78h55.4V56.85h-.59l-3.6-7.29c-1.84-3.76-2.51-4.6-6.78-4.6H627.17c-.17,2.26-.26,4.86-.26,7.7v38.5c0,3.68,1.09,5.44,3.77,6.44l5.77,2.18v.58H605.66v-.58l5.77-2.18C614.11,96.6,615.2,94.84,615.2,91.16Zm52.6-20.59c0,15.57,5.52,26.86,18.33,26.86,12.3,0,18.32-12.55,18.32-26.86,0-18.58-6.94-26.86-18.32-26.86C676.17,43.71,667.8,51.07,667.8,70.57Zm-13.73,0c0-18.66,13.81-31,32.06-31,19.16,0,32,12.39,32,31,0,20.25-15.57,31.05-32,31.05C667,101.62,654.07,89.23,654.07,70.57Zm90.65-3.18h7.19c7,0,13.56-3,13.56-11.63,0-7.28-6-10.8-14-10.8h-6.61c-.08,1.51-.16,3.35-.16,6.86Zm0,4.18V91.16c0,3.68,1.08,5.44,3.76,6.52l5.11,2.1v.58H724.13v-.58l5.1-2.1c2.68-1.08,3.77-2.84,3.77-6.52V55.84c0-9,0-10.54-3.18-12l-5.69-2.51v-.58h30.71c11.22,0,23.35,2.93,23.35,13.89,0,8.95-7,13.31-16.24,14.9v.16c6.53.84,12.06,2.26,13.48,9.38l2.42,12c.76,3.77,1.51,5.69,3.27,6.7l3.68,2v.58H771c-3.6,0-4.43-1.59-5-4.85l-2.76-14.9c-1-5.52-4-9-9.54-9Zm47.09,30.05V83.88h.84c2.68,8.7,9,13.55,18.24,13.55,8.29,0,14-4.35,14-10.54,0-14.23-32.72-10.29-32.72-29.79,0-12,12.05-17.58,22.84-17.58,6.78,0,11.47,2,15.07,2a3,3,0,0,0,2.84-2h.59v16h-.59c-2.84-7.2-8.12-11.8-16.9-11.8-5.86,0-12.64,2.84-12.64,10,0,13.8,32.72,8.95,32.72,30.21,0,12.55-11.21,17.74-24.18,17.74-8.37,0-13.64-2.51-16.24-2.51a3.26,3.26,0,0,0-3.26,2.51Z"/><path class="cls-3" d="M214.78,101.62V83.88h.84c2.68,8.7,9,13.55,18.24,13.55,8.29,0,14-4.35,14-10.54,0-14.23-32.72-10.29-32.72-29.79,0-12,12-17.58,22.84-17.58,6.78,0,11.47,2,15.07,2a3,3,0,0,0,2.84-2h.59v16h-.59c-2.84-7.2-8.11-11.8-16.9-11.8-5.86,0-12.64,2.84-12.64,10,0,13.8,32.72,8.95,32.72,30.21,0,12.55-11.21,17.74-24.18,17.74-8.37,0-13.64-2.51-16.24-2.51a3.26,3.26,0,0,0-3.26,2.51ZM275.29,85.3V55.84c0-9,0-10.54-3.18-12l-5.69-2.51v-.58h32.72c10.88,0,21.25,3.6,21.25,13.81,0,9-7.61,14-16.31,14.47v.17c9.37.42,19.16,4.77,19.16,15.06,0,12-12.14,16.07-22.34,16.07H266.42v-.58l5.69-2.51C275.29,95.84,275.29,94.34,275.29,85.3ZM287,45V67.39h7.45c7.28,0,13.22-4.27,13.22-11.3,0-9.29-6.94-11.13-13.3-11.13Zm0,26.61V96.18H294C302.82,96.18,310,93.83,310,84s-7.45-12.47-15.9-12.47Z"/><path class="cls-3" d="M225.58,160.63V142.91c0-1.3,0-2.5-.11-3.54h-4.89c-2,0-2.28.39-3.12,2.12l-1.66,3.35h-.27v-7.39H241v7.39h-.27l-1.66-3.35c-.85-1.73-1.15-2.12-3.12-2.12h-4.89c-.08,1-.11,2.24-.11,3.54v17.72c0,1.7.5,2.5,1.73,3l2.66,1v.27H221.19v-.27l2.66-1C225.08,163.13,225.58,162.33,225.58,160.63Zm21.89-15v3.54h.08c1.12-2.08,3-4.12,6.08-4.12a4.19,4.19,0,0,1,4.43,4.47,4.26,4.26,0,0,1-.34,1.85h-4.63a4,4,0,0,0,.35-1.77,1.67,1.67,0,0,0-1.73-1.7c-2,0-4.24,2.58-4.24,5.2v7.36c0,2.43.54,3,1.62,3.47l2.39.69v.27H239.15v-.27l1.77-.69c1.16-.43,1.7-1,1.7-3.47V150c0-2.43-.54-3-1.7-3.47l-1.77-.69v-.27Zm14.77,13.67V150c0-2.43-.54-3-1.61-3.47l-1.81-.69v-.27h8.51c-.08,1.08-.23,2.31-.23,3.62v8.17c0,3,.69,4.89,3.89,4.89a4.33,4.33,0,0,0,4-4.39V150c0-2.43-.54-3-1.62-3.47l-1.81-.69v-.27h8.51c-.07,1.08-.23,2.31-.23,3.62v11.21c0,2.43.54,3,1.62,3.47l1.81.69v.27H275v-3.62H275a7.07,7.07,0,0,1-6.89,4.2C264.52,165.45,262.24,163.56,262.24,159.28ZM300.7,145V152h-.27c-1.31-2.66-2.77-5-5.89-5-2.24,0-3.51,1.15-3.51,3.16,0,4.23,10.67,2,10.67,9.2,0,4.05-3.62,6.13-8.05,6.13-3,0-5-1-6-1a1.31,1.31,0,0,0-1.34,1H286v-7.51h.27c1.38,2.92,2.69,5.58,6.74,5.58,1.88,0,3.54-1.12,3.54-3,0-4.7-10.67-2.39-10.67-9.48,0-3.93,3.31-6,7.51-6,2.73,0,4.74.93,5.58.93a2,2,0,0,0,1.47-.93Zm3.29,2.28v-1.7h3.62v-4a34.28,34.28,0,0,0,5.09-2.47c0,1-.16,3-.23,6.51h5.27v1.7h-5.27v11.9c0,2.46,1.19,3.39,2.46,3.39a5.49,5.49,0,0,0,3.39-1.81l.39.15c-1.31,2.58-3.39,4.51-6.51,4.51s-4.59-2.24-4.59-5.43V147.31Z"/><path class="cls-3" d="M361.38,160.63V142.91c0-1.3,0-2.5-.11-3.54h-4.89c-2,0-2.28.39-3.12,2.12l-1.66,3.35h-.27v-7.39h25.5v7.39h-.27l-1.66-3.35c-.84-1.73-1.15-2.12-3.12-2.12h-4.89c-.08,1-.11,2.24-.11,3.54v17.72c0,1.7.5,2.5,1.73,3l2.66,1v.27H357v-.27l2.66-1C360.88,163.13,361.38,162.33,361.38,160.63Zm21.89-15v3.54h.08c1.12-2.08,3-4.12,6.08-4.12a4.19,4.19,0,0,1,4.43,4.47,4.26,4.26,0,0,1-.34,1.85H388.9a3.94,3.94,0,0,0,.34-1.77,1.67,1.67,0,0,0-1.73-1.7c-2,0-4.24,2.58-4.24,5.2v7.36c0,2.43.54,3,1.62,3.47l2.39.69v.27H375v-.27l1.77-.69c1.16-.43,1.7-1,1.7-3.47V150c0-2.43-.54-3-1.7-3.47l-1.77-.69v-.27Zm25.33,7.63v-3.05c0-2.15-1.23-3.46-3.24-3.46a3,3,0,0,0-3.23,2.85,3.81,3.81,0,0,0,.31,1.54h-4.93c0-5.24,4-6.09,8.16-6.09,3.62,0,7.78,1.16,7.78,5.7v9.82c0,1.7.58,2.51,1.5,2.51a2.33,2.33,0,0,0,1.62-1l.31.11a4.67,4.67,0,0,1-4.7,3.32c-2,0-3.12-1.54-3.39-3.43a7.65,7.65,0,0,1-6.35,3.43c-3.51,0-6.21-1.85-6.21-5.43s2.51-5,6.13-5.67Zm0,5.31v-3.62l-3.82.66a3.77,3.77,0,0,0-3.38,3.89,3.09,3.09,0,0,0,3.19,3.35A4.08,4.08,0,0,0,408.6,158.55Zm9.12-12.94H426v3.51h.07c1.16-2.66,3.09-4.09,6.71-4.09,4.12,0,6.2,2,6.2,6.17v9.24c0,2.43.54,3,1.61,3.47l1.81.69v.27H431v-.27l1.77-.62c1.16-.42,1.31-1.54,1.31-3.54V152.2c0-2.39-1.27-4-3.73-4a4.3,4.3,0,0,0-4.39,4.08v8.17c0,2,.15,3.12,1.35,3.54l1.73.62v.27H417.72v-.27l1.81-.69c1.08-.43,1.61-1,1.61-3.47V150c0-2.43-.53-3-1.61-3.47l-1.81-.69ZM460,145V152h-.27c-1.31-2.66-2.77-5-5.89-5-2.23,0-3.5,1.15-3.5,3.16,0,4.23,10.66,2,10.66,9.2,0,4.05-3.62,6.13-8,6.13-3,0-5-1-6.05-1a1.32,1.32,0,0,0-1.35,1h-.27v-7.51h.27c1.39,2.92,2.7,5.58,6.74,5.58,1.89,0,3.54-1.12,3.54-3,0-4.7-10.66-2.39-10.66-9.48,0-3.93,3.31-6,7.51-6,2.73,0,4.73.93,5.58.93a1.93,1.93,0,0,0,1.46-.93Zm11.43,10c0,5.08,1.92,7.78,5,7.78s5-2.39,5-7.78c0-4.28-1.65-7.4-5-7.4S471.47,150.27,471.47,155.05Zm-4.74,13.09V150c0-2.43-.54-3-1.62-3.47l-1.81-.69v-.27h8.2V149h.08c1.31-2.77,3.43-4,6.63-4,5.27,0,8.81,4.59,8.81,10.09,0,6.36-3.35,10.33-9.16,10.33a6.68,6.68,0,0,1-6.16-4h-.12v6.66c0,2.43.54,3,1.62,3.47l1.92.69v.27H463.3v-.27l1.81-.69C466.19,171.18,466.73,170.57,466.73,168.14Zm36-14.9v-3.05c0-2.15-1.24-3.46-3.24-3.46a3,3,0,0,0-3.23,2.85,4,4,0,0,0,.3,1.54h-4.92c0-5.24,4-6.09,8.16-6.09,3.62,0,7.78,1.16,7.78,5.7v9.82c0,1.7.58,2.51,1.5,2.51a2.33,2.33,0,0,0,1.62-1l.31.11a4.67,4.67,0,0,1-4.7,3.32c-2,0-3.12-1.54-3.39-3.43a7.66,7.66,0,0,1-6.36,3.43c-3.5,0-6.2-1.85-6.2-5.43s2.51-5,6.13-5.67Zm0,5.31v-3.62l-3.82.66a3.78,3.78,0,0,0-3.39,3.89,3.1,3.1,0,0,0,3.2,3.35A4.08,4.08,0,0,0,502.78,158.55Zm17.47-12.94v3.54h.08c1.12-2.08,3-4.12,6.09-4.12a4.19,4.19,0,0,1,4.42,4.47,4.26,4.26,0,0,1-.34,1.85h-4.62a3.94,3.94,0,0,0,.34-1.77,1.67,1.67,0,0,0-1.73-1.7c-2,0-4.24,2.58-4.24,5.2v7.36c0,2.43.54,3,1.62,3.47l2.39.69v.27H511.93v-.27l1.78-.69c1.15-.43,1.69-1,1.69-3.47V150c0-2.43-.54-3-1.69-3.47l-1.78-.69v-.27Zm18.09,7.63h6.28c1.42,0,2-.58,2-2.08,0-2.66-1.27-4.43-3.62-4.43C539.53,146.73,538.34,150.5,538.34,153.24ZM552,154.93H538.3c0,2.93.92,7.67,6.12,7.67a7.19,7.19,0,0,0,6.36-3.32s0,0,0-.07l.69.38a8.76,8.76,0,0,1-8.51,5.86c-6.09,0-10.09-3.66-10.09-10.21A9.79,9.79,0,0,1,543,145C548.81,145,552,148.69,552,154.93Zm2-9.32h8.28v3.51h.08c1.16-2.66,3.08-4.09,6.7-4.09,4.12,0,6.2,2,6.2,6.17v9.24c0,2.43.54,3,1.62,3.47l1.81.69v.27H567.31v-.27l1.77-.62c1.16-.42,1.31-1.54,1.31-3.54V152.2c0-2.39-1.27-4-3.74-4a4.31,4.31,0,0,0-4.39,4.08v8.17c0,2,.16,3.12,1.35,3.54l1.73.62v.27H554v-.27l1.81-.69c1.08-.43,1.62-1,1.62-3.47V150c0-2.43-.54-3-1.62-3.47l-1.81-.69Zm43.79,13.67.77.39c-1.65,4-4.66,5.78-8.28,5.78-4.85,0-9.55-3.16-9.55-10.36a9.84,9.84,0,0,1,9.9-10.06,22.75,22.75,0,0,1,3.47.27,11.41,11.41,0,0,0,2.19.31,1.38,1.38,0,0,0,1.16-.58h.27v7.09h-.27l-.66-1.31c-.73-1.5-2-4.08-5.31-4.08-3,0-5.12,2.5-5.12,8s2.46,7.86,5.7,7.86A7,7,0,0,0,597.77,159.28Zm3.59,8.4h3.85a4.34,4.34,0,0,0-.35,1.58c0,1.08.43,1.69,1.35,1.69,1.08,0,1.77-.54,2.31-1.81l1.62-3.69c-1.46-3.28-5.31-11.1-7.74-16.57a4.62,4.62,0,0,0-1.93-2.54l-.92-.46v-.27h10.63v.27l-1.5.58c-.62.23-1.16.65-1.16,1a4.47,4.47,0,0,0,.43,1.65l4.66,11.06L616.84,150a6.9,6.9,0,0,0,.73-2.39c0-.5-.5-1-1.11-1.19l-1.35-.54v-.27h7.16v.27a5.18,5.18,0,0,0-2.92,3.31L610.91,169c-1,2.39-2.66,3.93-5.39,3.93-2.58,0-4.43-1.66-4.43-3.93A4.21,4.21,0,0,1,601.36,167.68Z"/><path class="cls-3" d="M659.79,160.63V142.91c0-1.3,0-2.5-.11-3.54h-4.9c-2,0-2.27.39-3.12,2.12L650,144.84h-.27v-7.39h25.5v7.39H675l-1.66-3.35c-.85-1.73-1.16-2.12-3.12-2.12H665.3c-.08,1-.12,2.24-.12,3.54v17.72c0,1.7.5,2.5,1.74,3l2.65,1v.27H655.4v-.27l2.66-1C659.29,163.13,659.79,162.33,659.79,160.63Zm21.89-15v3.54h.08c1.11-2.08,3-4.12,6.08-4.12a4.2,4.2,0,0,1,4.43,4.47,4.27,4.27,0,0,1-.35,1.85H687.3a4,4,0,0,0,.35-1.77,1.67,1.67,0,0,0-1.73-1.7c-2,0-4.24,2.58-4.24,5.2v7.36c0,2.43.54,3,1.62,3.47l2.39.69v.27H673.36v-.27l1.77-.69c1.16-.43,1.7-1,1.7-3.47V150c0-2.43-.54-3-1.7-3.47l-1.77-.69v-.27ZM707,153.24v-3.05c0-2.15-1.24-3.46-3.24-3.46a3,3,0,0,0-3.24,2.85,4,4,0,0,0,.31,1.54h-4.93c0-5.24,4-6.09,8.17-6.09,3.62,0,7.78,1.16,7.78,5.7v9.82c0,1.7.58,2.51,1.5,2.51a2.36,2.36,0,0,0,1.62-1l.31.11a4.68,4.68,0,0,1-4.7,3.32c-2,0-3.12-1.54-3.39-3.43a7.66,7.66,0,0,1-6.36,3.43c-3.5,0-6.2-1.85-6.2-5.43s2.51-5,6.13-5.67Zm0,5.31v-3.62l-3.82.66a3.78,3.78,0,0,0-3.39,3.89,3.1,3.1,0,0,0,3.2,3.35A4.08,4.08,0,0,0,707,158.55Zm9.11-12.94h8.29v3.51h.07c1.16-2.66,3.08-4.09,6.7-4.09,4.12,0,6.2,2,6.2,6.17v9.24c0,2.43.54,3,1.62,3.47l1.81.69v.27H729.45v-.27l1.77-.62c1.16-.42,1.31-1.54,1.31-3.54V152.2c0-2.39-1.27-4-3.73-4a4.3,4.3,0,0,0-4.39,4.08v8.17c0,2,.15,3.12,1.34,3.54l1.74.62v.27H716.12v-.27l1.81-.69c1.08-.43,1.62-1,1.62-3.47V150c0-2.43-.54-3-1.62-3.47l-1.81-.69Zm42.33-.58V152h-.27c-1.31-2.66-2.77-5-5.89-5-2.24,0-3.51,1.15-3.51,3.16,0,4.23,10.67,2,10.67,9.2,0,4.05-3.62,6.13-8.05,6.13-3,0-5-1-6-1a1.32,1.32,0,0,0-1.35,1h-.27v-7.51H744c1.38,2.92,2.69,5.58,6.74,5.58,1.89,0,3.54-1.12,3.54-3,0-4.7-10.67-2.39-10.67-9.48,0-3.93,3.32-6,7.51-6,2.74,0,4.74.93,5.59.93a2,2,0,0,0,1.46-.93Zm3.3,2.28v-1.7h3.85v-3.47c0-3.69,3.12-5.54,6.78-5.54,6.39,0,6.66,3.46,6.66,4.35a4.3,4.3,0,0,1-.23,1.35h-4.32a5.7,5.7,0,0,0,.39-2.08c0-1.2-.85-1.93-2.2-1.93-1.88,0-2.23,1.74-2.23,3.43v3.89h5v1.7h-5v13.13c0,2.43.54,3,1.62,3.47l2.31.69v.27H762.17v-.27l1.81-.69c1.08-.43,1.62-1,1.62-3.47V147.31Zm15.33,7.93c0-6.24,4.81-10.21,10.59-10.21s10.59,4,10.59,10.21-4.81,10.21-10.59,10.21S777.08,161.48,777.08,155.24Zm5.62,0c0,5.78,2.12,8.51,5,8.51s5-2.73,5-8.51-2.12-8.51-5-8.51S782.7,149.46,782.7,155.24Zm26-9.63v3.54h.07c1.12-2.08,3-4.12,6.09-4.12a4.2,4.2,0,0,1,4.43,4.47,4.27,4.27,0,0,1-.35,1.85h-4.62a4,4,0,0,0,.35-1.77,1.68,1.68,0,0,0-1.74-1.7c-2,0-4.23,2.58-4.23,5.2v7.36c0,2.43.54,3,1.61,3.47l2.39.69v.27H800.34v-.27l1.77-.69c1.15-.43,1.69-1,1.69-3.47V150c0-2.43-.54-3-1.69-3.47l-1.77-.69v-.27Zm14.85,14.83V150c0-2.43-.54-3-1.62-3.47l-1.81-.69v-.27h8.28V149h.08a6.48,6.48,0,0,1,6.27-4c3,0,5,1,5.86,4.2,1.38-2.66,3.35-4.2,6.39-4.2,4.12,0,6.2,2,6.2,6.17v9.24c0,2.43.54,3,1.62,3.47l1.81.69v.27H845.3v-.27L847,164c1.19-.42,1.35-1.54,1.35-3.54V152.5c0-3.23-2-4.31-3.66-4.31a4,4,0,0,0-3.89,4.16v8.09c0,2,.15,3.12,1.35,3.54l1.65.62v.27H832.9v-.27l1.66-.62c1.19-.42,1.35-1.54,1.35-3.54V152.5c0-3.23-2-4.31-3.66-4.31a4,4,0,0,0-3.89,4.16v8.09c0,2,.15,3.12,1.35,3.54l1.65.62v.27H820.08v-.27l1.81-.69C823,163.48,823.51,162.87,823.51,160.44Zm47.59-7.2v-3.05c0-2.15-1.23-3.46-3.23-3.46a3,3,0,0,0-3.24,2.85,4,4,0,0,0,.31,1.54H860c0-5.24,4-6.09,8.17-6.09,3.62,0,7.78,1.16,7.78,5.7v9.82c0,1.7.57,2.51,1.5,2.51a2.36,2.36,0,0,0,1.62-1l.3.11a4.66,4.66,0,0,1-4.69,3.32c-2.05,0-3.12-1.54-3.39-3.43a7.67,7.67,0,0,1-6.36,3.43c-3.5,0-6.2-1.85-6.2-5.43s2.5-5,6.12-5.67Zm0,5.31v-3.62l-3.81.66a3.78,3.78,0,0,0-3.39,3.89,3.1,3.1,0,0,0,3.2,3.35A4.08,4.08,0,0,0,871.1,158.55Zm9.08-11.24v-1.7h3.63v-4a34.65,34.65,0,0,0,5.08-2.47c0,1-.16,3-.23,6.51h5.27v1.7h-5.27v11.9c0,2.46,1.19,3.39,2.46,3.39a5.49,5.49,0,0,0,3.39-1.81l.39.15c-1.31,2.58-3.39,4.51-6.51,4.51s-4.58-2.24-4.58-5.43V147.31Zm15.09-1.7h8.51c-.11,1.19-.23,2.35-.23,3.54v11.29c0,2.43.54,3,1.62,3.47l1.81.69v.27H895.27v-.27l1.81-.69c1.08-.43,1.62-1,1.62-3.47V150c0-2.43-.54-3-1.62-3.47l-1.81-.69Zm2.93-6.05a2.93,2.93,0,1,1,2.92,2.7A2.73,2.73,0,0,1,898.2,139.56Zm10.9,15.68c0-6.24,4.81-10.21,10.59-10.21s10.59,4,10.59,10.21-4.82,10.21-10.59,10.21S909.1,161.48,909.1,155.24Zm5.62,0c0,5.78,2.12,8.51,5,8.51s5-2.73,5-8.51-2.12-8.51-5-8.51S914.72,149.46,914.72,155.24Zm17.6-9.63h8.28v3.51h.07c1.16-2.66,3.08-4.09,6.71-4.09,4.12,0,6.2,2,6.2,6.17v9.24c0,2.43.54,3,1.61,3.47l1.81.69v.27H945.64v-.27l1.77-.62c1.16-.42,1.31-1.54,1.31-3.54V152.2c0-2.39-1.27-4-3.73-4a4.3,4.3,0,0,0-4.39,4.08v8.17c0,2,.15,3.12,1.34,3.54l1.74.62v.27H932.32v-.27l1.81-.69c1.07-.43,1.61-1,1.61-3.47V150c0-2.43-.54-3-1.61-3.47l-1.81-.69Z"/><circle class="cls-4" cx="334.5" cy="153.12" r="5.43"/><circle class="cls-4" cx="632.91" cy="153.12" r="5.43"/></g></g></svg>