<svg width="70" height="74" viewBox="0 0 70 74" fill="none" xmlns="http://www.w3.org/2000/svg">
<path d="M1.68841 28.4341L1.76502 28.1963L1.82948 27.9989L1.89798 27.7974L1.96649 27.6L2.035 27.4026L2.10755 27.2052L2.18011 27.0077L2.25266 26.8103L2.32522 26.6129L2.36959 26.5042C2.55083 26.0408 3.04643 25.7789 3.53003 25.8957C4.11827 26.0408 4.44462 26.6653 4.22306 27.2254L4.18678 27.3261L4.11423 27.5114L4.04572 27.6967L3.97721 27.8821L3.91275 28.0674L3.84424 28.2568L3.77978 28.4421L3.71532 28.6314L3.65491 28.8167L3.58235 29.0463C3.46947 29.3767 3.20758 29.6226 2.86923 29.7071C2.11146 29.8888 1.44661 29.1755 1.68841 28.4341ZM21.8273 19.7349C21.8025 19.647 21.7901 19.5564 21.7901 19.4652V5.66913C21.7901 5.25678 22.0443 4.88707 22.4295 4.73965L34.6379 0.0657979C34.8671 -0.0219326 35.1204 -0.0219326 35.3496 0.0657979L47.558 4.73965C47.943 4.88707 48.1974 5.25678 48.1974 5.66913V19.4652C48.1974 19.5564 48.185 19.647 48.1603 19.7349C46.4421 25.8386 42.2401 29.9507 35.3142 32.3057C35.2104 32.3409 35.1022 32.3587 34.9938 32.3587C34.8855 32.3587 34.7772 32.3409 34.6733 32.3057C27.7474 29.9505 23.5454 25.8386 21.8273 19.7349ZM23.7804 19.326C25.3047 24.5871 28.9753 28.1839 34.9938 30.3101C41.0122 28.1838 44.6828 24.587 46.2071 19.326V6.35377L34.9938 2.06091L23.7804 6.35377V19.326ZM69.9793 38.6884L69.9752 38.4105C69.9631 37.6287 69.0848 37.1694 68.4321 37.6006C68.146 37.7939 67.9809 38.1043 67.9849 38.4466L67.993 38.7126V38.9141V39.1115V39.313V39.5104L67.9889 39.7119L67.9849 39.9093L67.9768 40.1108L67.9687 40.3767C67.9446 41.0697 68.5973 41.5734 69.2581 41.3679C69.661 41.243 69.939 40.8845 69.9551 40.4614L69.9673 40.1713L69.9713 39.9577L69.9794 39.7483V39.5347L69.9835 39.3251V39.1115V38.9019L69.9793 38.6884ZM16.3748 11.0562C16.7093 11.3303 17.1686 11.3666 17.5353 11.1369L17.7487 11.008L17.9261 10.8991L18.1075 10.7905L18.2887 10.6816L18.474 10.5768L18.6554 10.472L18.8407 10.3673L19.0259 10.2625L19.2073 10.1658C19.9165 9.77497 19.8923 8.7556 19.167 8.39701C18.8769 8.25595 18.5425 8.26404 18.2565 8.4171L18.0631 8.52189L17.8657 8.63058L17.6723 8.74345L17.4789 8.85214L17.2855 8.96502L17.0921 9.07775L16.8987 9.19468L16.7094 9.31146L16.4878 9.44848C15.9114 9.81125 15.851 10.617 16.3748 11.0562ZM50.7036 10.1214L50.9373 10.2463L51.1106 10.343L51.2839 10.4397L51.4572 10.5404L51.6264 10.6371L51.7997 10.7378L51.969 10.8426L52.1422 10.9434L52.376 11.0885C52.7386 11.31 53.1939 11.2859 53.5283 11.0159C54.0602 10.5807 54.0079 9.76283 53.4276 9.4002L53.1738 9.2431L52.9924 9.13441L52.811 9.02558L52.6296 8.92079L52.4482 8.81601L52.2629 8.71122L52.0817 8.60644L51.8964 8.5057L51.6546 8.37273C51.296 8.17935 50.8689 8.21967 50.5546 8.47347C50.0025 8.92484 50.0791 9.77902 50.7036 10.1214ZM26.3269 16.1813C26.3269 11.4024 30.2148 7.51451 34.9938 7.51451C39.7727 7.51451 43.6606 11.4024 43.6606 16.1813C43.6606 20.9602 39.7727 24.8481 34.9938 24.8481C30.2148 24.8481 26.3269 20.9602 26.3269 16.1813ZM28.3174 16.1813C28.3174 19.8627 31.3124 22.8577 34.9938 22.8577C38.6751 22.8577 41.6701 19.8627 41.6701 16.1813C41.6701 12.5 38.6751 9.50499 34.9938 9.50499C31.3124 9.50499 28.3174 12.5 28.3174 16.1813ZM65.8252 27.3825L65.8977 27.5799L65.9703 27.7733L66.0428 27.9707L66.1113 28.1641L66.1798 28.3615L66.2484 28.5549L66.3169 28.7524L66.3813 28.9579C66.627 29.7154 67.6103 29.8927 68.1098 29.2721C68.3153 29.0062 68.3798 28.6717 68.279 28.3535L68.2024 28.1238L68.1339 27.9142L68.0613 27.7088L67.9888 27.4993L67.9162 27.2938L67.8396 27.0842L67.763 26.8788L67.6824 26.6733L67.5857 26.4193C67.3198 25.7425 66.4374 25.5692 65.9337 26.097C65.6718 26.3792 65.5912 26.786 65.7322 27.1446L65.8252 27.3825ZM2.01477 40.3607L2.00667 40.1592L2.00262 39.9618L1.99858 39.7603L1.99453 39.5629L1.99048 39.3614V39.1599V38.9625L1.99453 38.761L1.99858 38.5435C2.01072 37.7617 1.17663 37.2703 0.499644 37.6611C0.201476 37.8383 0.0161875 38.1486 0.00809371 38.4952L0.00404686 38.737V38.9506L0 39.1602L0.00404686 39.3738V39.5832L0.00809371 39.7969L0.0121406 40.0105L0.0161874 40.22L0.0242811 40.4337L0.028328 40.5464C0.0605585 41.3402 0.963156 41.7834 1.60777 41.312C1.87775 41.1146 2.02676 40.8084 2.01881 40.474L2.01477 40.3607ZM32.8128 19.8261C33.0015 20.035 33.2699 20.1542 33.5513 20.1542C33.5541 20.1542 33.5567 20.1542 33.5594 20.1541C33.8437 20.1519 34.1136 20.028 34.3007 19.8138L39.2486 14.1527C39.6102 13.7389 39.568 13.11 39.1541 12.7484C38.7403 12.3865 38.1114 12.4289 37.7498 12.8428L33.5391 17.6605L31.9206 15.8687C31.5523 15.461 30.9229 15.4289 30.5149 15.7973C30.107 16.1657 30.0751 16.7949 30.4435 17.2029L32.8128 19.8261ZM62.6885 53.2469C62.8393 53.7753 62.5332 54.3262 62.0046 54.4769L54.3653 56.6567C54.2757 56.6824 54.1838 56.695 54.0921 56.695C53.9243 56.695 53.7577 56.6525 53.6084 56.5696C53.3777 56.4414 53.2074 56.2266 53.135 55.9728L52.8847 55.0952L50.2927 55.4908C50.3993 55.807 50.4618 56.1392 50.4732 56.4774C50.5031 57.371 50.1824 58.2006 49.57 58.813C48.2322 60.1565 46.1977 60.2756 44.8389 59.0882L44.6386 58.9136C44.5019 59.3693 44.2685 59.7942 43.9466 60.1623C43.3555 60.8419 42.5302 61.2509 41.6246 61.3119C40.762 61.3699 39.9291 61.1052 39.2663 60.5646C39.1328 61.0133 38.9038 61.4411 38.5773 61.8166C37.3467 63.2245 35.2039 63.3702 33.7991 62.1425L33.4662 61.8525C33.3298 62.3092 33.0961 62.7348 32.7736 63.1037C32.1222 63.8524 31.3325 64.0878 30.5601 64.0878C29.7374 64.0878 28.9343 63.8208 28.3381 63.6228C23.8634 62.1323 21.2698 59.0733 18.7616 56.1152C18.1249 55.3645 17.474 54.5976 16.795 53.8626C16.7068 54.0501 16.5626 54.2072 16.3793 54.3092C16.23 54.3922 16.0633 54.4347 15.8955 54.4347C15.8039 54.4347 15.712 54.4221 15.6224 54.3964L7.98304 52.2166C7.45449 52.0658 7.14837 51.515 7.29912 50.9866C7.44986 50.4579 8.00053 50.1514 8.52922 50.3027L15.2112 52.2093L15.3551 51.7041C15.3582 51.6925 15.3615 51.6811 15.365 51.6697L19.7302 36.3547L13.0515 34.4479C12.5229 34.297 12.2169 33.7462 12.3677 33.2178C12.5186 32.6892 13.0691 32.3831 13.5979 32.534L21.2332 34.7138C21.7615 34.8647 22.0678 35.4151 21.917 35.9435L21.747 36.54L25.6742 36.3171C27.0914 36.2398 28.403 36.5222 29.5861 37.1551C30.6377 35.9757 31.9011 35.2607 33.4486 34.9705C35.2493 34.6323 38.5673 34.3621 40.5537 36.3538C42.1336 37.9339 45.8956 38.6316 48.2583 38.8763L48.0665 38.2041C47.9157 37.6756 48.2218 37.1249 48.7504 36.9742L56.3897 34.7943C56.9189 34.6436 57.4691 34.9497 57.6198 35.4783C57.7706 36.0067 57.4645 36.5575 56.9359 36.7082L50.2534 38.615L54.7762 54.4697L61.4584 52.563C61.9874 52.4117 62.5378 52.7184 62.6885 53.2469ZM48.4839 56.5441C48.4704 56.1452 48.2831 55.7501 47.9825 55.4869L37.0029 45.9136C36.984 45.8971 36.9657 45.8799 36.9482 45.8621C36.3503 45.2552 35.2931 44.541 32.9719 45.1964L29.8934 48.7266C28.4715 50.3549 25.9925 50.5237 24.3668 49.1041C22.7379 47.6809 22.569 45.2 23.99 43.5739L28.2304 38.7083C27.482 38.3887 26.6745 38.2551 25.7851 38.3043L21.1695 38.5663L17.4383 51.6568C18.455 52.6763 19.3808 53.7678 20.2796 54.828C22.718 57.7037 25.0211 60.4199 28.9664 61.7341C30.3693 62.2002 30.9086 62.2148 31.2734 61.7954C31.5185 61.5149 31.6386 61.1554 31.613 60.7818C31.5874 60.4083 31.4199 60.0694 31.1414 59.8269L29.819 58.6739C29.4047 58.3128 29.3617 57.6842 29.7228 57.2698C30.084 56.8556 30.7126 56.8125 31.127 57.1734L31.1291 57.1753L35.1078 60.6425C35.6872 61.1487 36.5702 61.088 37.077 60.508C37.5796 59.9305 37.5196 59.0486 36.942 58.5442C36.9417 58.5439 36.9415 58.5436 36.9412 58.5433L31.8535 54.1042C31.4393 53.7428 31.3965 53.1141 31.7578 52.6999C32.1192 52.2858 32.7479 52.2429 33.1621 52.6044L38.2492 57.043C38.2495 57.0432 38.2496 57.0433 38.2499 57.0436L40.482 58.9857C40.7614 59.2308 41.1188 59.3521 41.4906 59.3253C41.8642 59.3002 42.2037 59.1327 42.4464 58.8537C42.6915 58.5732 42.8117 58.2143 42.7866 57.8416C42.7614 57.4696 42.5949 57.1312 42.3177 56.8887L42.3174 56.8884C42.3173 56.8884 42.3172 56.8883 42.317 56.8881C42.3169 56.888 42.3167 56.8878 42.3164 56.8877L37.2247 52.4484C36.8105 52.0872 36.7674 51.4585 37.1286 51.0441C37.4898 50.6301 38.1185 50.5867 38.5328 50.948L43.6257 55.3883L43.6259 55.3885L46.1481 57.5882C46.7069 58.0766 47.572 57.9981 48.1611 57.4064C48.4427 57.1256 48.492 56.7825 48.4839 56.5441ZM52.3343 53.1657L48.8425 40.9248C46.8875 40.7765 41.5441 40.1593 39.1451 37.7604C37.7542 36.3657 34.9546 36.713 33.8155 36.9268C32.684 37.1389 31.8011 37.6445 31.0363 38.518L25.4897 44.8826C25.1518 45.2692 24.9857 45.7654 25.0211 46.2808C25.0565 46.7967 25.2892 47.267 25.6763 47.605C26.4751 48.3027 27.6942 48.2188 28.3937 47.4177L31.661 43.671C31.7816 43.5328 31.9378 43.4307 32.1127 43.3756C34.7213 42.556 36.8153 42.913 38.3382 44.4366L48.9429 53.683L52.3343 53.1657ZM60.6194 59.9305L60.5349 60.0353L60.41 60.1883L60.2811 60.3454L60.1481 60.4985L60.0192 60.6516L59.8862 60.8046L59.7533 60.9536L59.6203 61.1067L59.4873 61.2557L59.3584 61.3968C58.8669 61.9406 59.1046 62.799 59.8017 63.0206C60.1724 63.1293 60.5673 63.0246 60.8292 62.7384L60.9621 62.5894L61.1071 62.4283L61.2481 62.2712L61.3892 62.11L61.5303 61.9489L61.6673 61.7837L61.8043 61.6225L61.9413 61.4573L62.0783 61.2921L62.1629 61.1873C62.3925 60.9054 62.4489 60.5226 62.3119 60.1841C62.0256 59.4832 61.0988 59.3462 60.6194 59.9305ZM42.3834 71.3008L42.2141 71.3411L42.0126 71.3855L41.8152 71.4258L41.6178 71.4661L41.4163 71.5064L41.2189 71.5468L41.0174 71.5871L40.82 71.6234L40.6185 71.6556L40.4896 71.6797C39.7562 71.8046 39.4098 72.6468 39.8489 73.2472C40.0745 73.5534 40.4411 73.7024 40.8159 73.642L40.957 73.6179L41.1706 73.5816L41.38 73.5413L41.5936 73.501L41.8032 73.4606L42.0168 73.4163L42.2264 73.3719L42.4399 73.3277L42.6494 73.2793L42.8227 73.243C43.5843 73.0656 43.8583 72.135 43.3102 71.5708C43.0683 71.3289 42.7217 71.2243 42.3834 71.3008ZM52.827 67.4247C52.5208 67.2877 52.1824 67.3039 51.8963 67.4732L51.6948 67.5899L51.5134 67.6988L51.3281 67.8036L51.1467 67.9083L50.9574 68.0091L50.7721 68.1139L50.5868 68.2146L50.3975 68.3153L50.2081 68.412C49.5796 68.7424 49.4829 69.6006 50.0267 70.06C50.341 70.3178 50.7641 70.3662 51.1268 70.1769L51.3282 70.0721L51.5257 69.9673L51.7231 69.8625L51.9205 69.7537L52.118 69.6449L52.3154 69.532L52.5088 69.4193L52.7022 69.3064L52.9158 69.1815C53.6006 68.7705 53.5482 67.7673 52.827 67.4247ZM4.38797 51.4731L4.31137 51.2797L4.23477 51.0863L4.15816 50.8889L4.08561 50.6955L4.01305 50.5021L3.9405 50.3047L3.87199 50.1113L3.80753 49.926C3.65852 49.499 3.24747 49.229 2.80029 49.2572C2.14354 49.3056 1.71241 49.9542 1.92602 50.5747L1.99453 50.7721L2.07113 50.9817L2.14773 51.1872L2.22434 51.3966L2.30094 51.6022L2.38159 51.8077L2.46223 52.0131L2.54678 52.2186L2.65562 52.4886C2.95783 53.2138 3.93689 53.3227 4.39216 52.682C4.58554 52.3959 4.62587 52.0494 4.49694 51.7311L4.38797 51.4731ZM62.4245 17.4184L62.2875 17.2451L62.1545 17.0758L62.0134 16.9066L61.8764 16.7414L61.7354 16.5721L61.5943 16.4069L61.4532 16.2417L61.3122 16.0806L61.2276 15.9798C60.9416 15.6574 60.4943 15.5568 60.0954 15.718C59.4668 15.9839 59.2815 16.7736 59.7287 17.2933L59.8132 17.39L59.9503 17.5432L60.0832 17.7003L60.2162 17.8534L60.3451 18.0105L60.4781 18.1717L60.607 18.3288L60.7359 18.4899L60.8649 18.6511L60.9656 18.78C61.2879 19.1909 61.8721 19.2877 62.3032 18.9936C62.7828 18.6712 62.8874 18.0105 62.5329 17.5552L62.4245 17.4184ZM66.8768 49.2087C66.5624 49.2933 66.3127 49.5271 66.2038 49.8373L66.1394 50.0185L66.0749 50.204L66.0064 50.3893L65.9379 50.5786L65.8694 50.764L65.8009 50.9493L65.7283 51.1307L65.6558 51.316L65.5832 51.5014L65.5228 51.6504C65.2488 52.3234 65.7565 53.0485 66.4818 53.0244C66.8726 53.0043 67.2151 52.7706 67.3641 52.4079L67.4286 52.2468L67.5052 52.0494L67.5818 51.856L67.6584 51.6585L67.735 51.4652L67.8075 51.2677L67.8801 51.0703L67.9486 50.8729L68.0212 50.6754L68.0816 50.4941C68.3435 49.7366 67.6544 48.9951 66.8768 49.2087ZM30.8638 71.873L30.6502 71.8448L30.4527 71.8206L30.2593 71.7925L30.0619 71.7643L29.8645 71.7321L29.6711 71.6998L29.4737 71.6676L29.2803 71.6354L29.0829 71.5991L28.958 71.5748C28.1602 71.4298 27.5276 72.2437 27.8741 72.9809C28.0112 73.267 28.2731 73.4725 28.5873 73.5329L28.7243 73.5572L28.9337 73.5935L29.1392 73.6297L29.3487 73.666L29.5542 73.6982L29.7638 73.7305L29.9693 73.7627L30.1788 73.7909L30.3884 73.8191L30.614 73.8473C30.9605 73.8915 31.2949 73.7545 31.5126 73.4846C32.0001 72.8763 31.6375 71.9778 30.8638 71.873ZM10.5768 61.3405L10.4398 61.1915L10.3068 61.0385L10.1698 60.8854L10.0368 60.7324L9.90386 60.5752L9.77089 60.4181L9.63792 60.261L9.509 60.1039L9.42445 59.9991C9.19479 59.717 8.83216 59.5841 8.47358 59.6485C7.72823 59.7855 7.40173 60.6638 7.87724 61.2521L7.96989 61.365L8.11095 61.5342L8.24796 61.6994L8.38903 61.8687L8.53009 62.03L8.67115 62.1952L8.81626 62.3563L8.96137 62.5215L9.10648 62.6786L9.21531 62.7996C9.74719 63.3838 10.7021 63.1501 10.9115 62.3926C11.0001 62.0622 10.9196 61.7196 10.69 61.4618L10.5768 61.3405ZM7.99807 19.2155C8.36475 19.2799 8.73142 19.1429 8.96108 18.8528L9.07396 18.7077L9.19884 18.5506L9.32371 18.3935L9.44858 18.2405L9.57751 18.0834L9.70643 17.9303L9.83535 17.7772L9.96427 17.6242L10.0972 17.4711L10.1939 17.3582C10.7258 16.7538 10.3551 15.7989 9.55322 15.7143C9.23092 15.6821 8.91657 15.8029 8.70309 16.0447L8.59426 16.1656L8.45725 16.3267L8.31618 16.4879L8.17917 16.6531L8.04215 16.8142L7.90918 16.9794L7.77621 17.1446L7.64325 17.3098L7.51028 17.4791L7.3974 17.6201C6.93851 18.2121 7.26082 19.0744 7.99807 19.2155ZM19.8521 68.4563L19.7473 68.3999L19.574 68.3113L19.3967 68.2146L19.2234 68.1219L19.0501 68.0253L18.8768 67.9326L18.7035 67.8319L18.5302 67.7352L18.3569 67.6344L18.1635 67.5217C17.5068 67.1269 16.6647 67.6024 16.6566 68.3678C16.6566 68.7223 16.838 69.0487 17.1401 69.2301L17.3537 69.3549L17.539 69.4597L17.7204 69.5645L17.9057 69.6693L18.0869 69.77L18.2722 69.8708L18.4575 69.9715L18.6428 70.0682L18.8321 70.1689L18.9369 70.2213C19.6863 70.6082 20.5486 69.9474 20.3633 69.1214C20.2993 68.8309 20.114 68.5933 19.8521 68.4563Z" fill="#E3A10D"/>
</svg>
