<svg width="1440" height="83" viewBox="0 0 1440 83" fill="none" xmlns="http://www.w3.org/2000/svg">
<path d="M1329.93 10.8604C1358.48 -3.11582 1376.69 -4.11579 1406.07 10.8604C1420.14 18.0319 1428.41 17.3838 1440 16.8838V82.8838H0V16.8838C5.79307 16.7171 21.0263 17.177 33.9307 10.8604C62.4824 -3.11582 80.69 -4.11579 110.069 10.8604C124.138 18.0319 132.414 17.3838 144 16.8838L145.194 16.8584C151.689 16.7484 165.833 16.7821 177.931 10.8604C206.482 -3.11582 224.69 -4.11579 254.069 10.8604C268.138 18.0319 276.414 17.3838 288 16.8838L289.194 16.8584C295.689 16.7484 309.833 16.7821 321.931 10.8604C350.482 -3.11582 368.69 -4.11579 398.069 10.8604C412.138 18.0319 420.414 17.3838 432 16.8838C437.793 16.7171 453.026 17.177 465.931 10.8604C494.482 -3.11582 512.69 -4.11579 542.069 10.8604C556.138 18.0319 564.414 17.3838 576 16.8838C581.793 16.7171 597.026 17.177 609.931 10.8604C638.482 -3.11582 656.69 -4.11579 686.069 10.8604C700.138 18.0319 708.414 17.3838 720 16.8838C725.793 16.7171 741.026 17.177 753.931 10.8604C782.482 -3.11582 800.69 -4.11579 830.069 10.8604C844.138 18.0319 852.414 17.3838 864 16.8838C869.793 16.7171 885.026 17.177 897.931 10.8604C926.482 -3.11582 944.69 -4.11579 974.069 10.8604C988.138 18.0319 996.414 17.3838 1008 16.8838C1013.79 16.7171 1029.03 17.177 1041.93 10.8604C1070.48 -3.11582 1088.69 -4.11579 1118.07 10.8604C1132.14 18.0319 1140.41 17.3838 1152 16.8838C1157.79 16.7171 1173.03 17.177 1185.93 10.8604C1214.48 -3.11582 1232.69 -4.11579 1262.07 10.8604C1276.14 18.0319 1284.41 17.3838 1296 16.8838C1301.79 16.7171 1317.03 17.177 1329.93 10.8604Z" fill="black" fill-opacity="0.08"/>
</svg>
