<svg width="32" height="33" viewBox="0 0 32 33" fill="none" xmlns="http://www.w3.org/2000/svg">
<path d="M2.68752 32.9404C3.40068 32.9409 4.08483 32.6497 4.58947 32.1306L26.6055 9.45002L26.6055 24.7734C26.6055 25.5075 26.8886 26.2116 27.3926 26.7307C27.8966 27.2498 28.5802 27.5414 29.293 27.5414C30.0057 27.5414 30.6893 27.2498 31.1933 26.7307C31.6973 26.2116 31.9805 25.5075 31.9805 24.7734L31.9805 2.76818C31.9805 2.03407 31.6973 1.33002 31.1933 0.810932C30.6893 0.29184 30.0057 0.00022143 29.293 0.000221494L7.92735 0.000223418C7.21459 0.000223482 6.53101 0.291842 6.02701 0.810934C5.523 1.33003 5.23985 2.03407 5.23985 2.76818C5.23985 3.50228 5.523 4.20632 6.02701 4.72541C6.53101 5.24451 7.21459 5.53613 7.92735 5.53613L22.8053 5.53613L0.789341 28.2112C0.284702 28.7302 0.000922859 29.4345 0.000419381 30.169C-8.21889e-05 30.9035 0.282736 31.6081 0.786663 32.1279C1.29059 32.6476 1.97435 32.9399 2.68752 32.9404Z" fill="#FDFDFD"/>
</svg>
