<svg width="56" height="56" viewBox="0 0 56 56" fill="none" xmlns="http://www.w3.org/2000/svg">
<circle cx="28" cy="28" r="28" fill="#B1B1B1"/>
<path d="M13.4332 28.7618C13.7613 29.0904 14.2066 29.2752 14.671 29.2755L34.9476 29.2731L28.0972 36.1235C27.769 36.4517 27.5846 36.8968 27.5846 37.3609C27.5846 37.8251 27.769 38.2702 28.0972 38.5984C28.4253 38.9266 28.8705 39.1109 29.3346 39.1109C29.7987 39.1109 30.2438 38.9266 30.572 38.5984L40.4096 28.7608C40.7378 28.4326 40.9222 27.9874 40.9222 27.5233C40.9222 27.0592 40.7378 26.6141 40.4096 26.2859L30.572 16.4483C30.2438 16.1201 29.7987 15.9357 29.3346 15.9357C28.8705 15.9357 28.4253 16.1201 28.0972 16.4483C27.769 16.7765 27.5846 17.2216 27.5846 17.6857C27.5846 18.1498 27.769 18.595 28.0972 18.9231L34.9476 25.7736L14.6734 25.7736C14.209 25.7733 13.7636 25.9574 13.435 26.2856C13.1063 26.6137 12.9216 27.0589 12.9212 27.5233C12.9209 27.9877 13.1051 28.4332 13.4332 28.7618Z" fill="#222222"/>
</svg>
