<svg width="216" height="46" viewBox="0 0 216 46" fill="none" xmlns="http://www.w3.org/2000/svg">
<path d="M23 46C35.7025 46 46 35.7025 46 23C46 10.2975 35.7025 0 23 0C10.2975 0 0 10.2975 0 23C0 35.7025 10.2975 46 23 46Z" fill="url(#paint0_linear_380_9631)"/>
<path d="M23 44.6602C34.9626 44.6602 44.6602 34.9626 44.6602 23C44.6602 11.0374 34.9626 1.33981 23 1.33981C11.0374 1.33981 1.33984 11.0374 1.33984 23C1.33984 34.9626 11.0374 44.6602 23 44.6602Z" fill="#040404"/>
<path fill-rule="evenodd" clip-rule="evenodd" d="M22.5852 3.20808C22.5852 3.21177 22.6267 3.29468 22.6775 3.39264C22.7283 3.49061 22.7698 3.59879 22.7698 3.63315C22.7698 3.66722 22.7817 3.70243 22.7962 3.71152C22.8115 3.72061 22.8226 3.85946 22.8226 4.03835C22.8226 4.21724 22.8115 4.35581 22.7962 4.36518C22.7817 4.37398 22.7698 4.40464 22.7698 4.43304C22.7698 4.49892 22.5852 4.90099 22.5548 4.90099C22.5423 4.90099 22.5321 4.91462 22.5321 4.93137C22.5321 4.96602 21.9043 5.58077 21.8688 5.58077C21.856 5.58077 21.8455 5.59326 21.8455 5.60859C21.8455 5.62393 21.7708 5.70911 21.6794 5.79827C21.5883 5.88715 21.4843 6.0013 21.4486 6.05156C21.4131 6.10182 21.3452 6.18359 21.2978 6.23329C21.2506 6.28326 21.212 6.33466 21.212 6.348C21.212 6.36135 21.191 6.39116 21.1655 6.41445C21.1399 6.43773 21.1024 6.48913 21.082 6.5286C21.0612 6.56835 21.0346 6.60043 21.0226 6.60043C21.0104 6.60043 21.0008 6.61179 21.0008 6.62542C21.0008 6.63933 20.9724 6.69187 20.9377 6.74241C20.85 6.87019 20.5947 7.39919 20.5516 7.54173C20.5323 7.60647 20.5064 7.67064 20.4945 7.68427C20.4826 7.6979 20.4726 7.75384 20.4726 7.80836C20.4726 7.86316 20.4618 7.90774 20.4488 7.90774C20.409 7.90774 20.388 8.1579 20.3869 8.64005C20.386 9.11624 20.4087 9.41978 20.4491 9.46209C20.4621 9.476 20.4726 9.5203 20.4726 9.56062C20.4726 9.60094 20.4834 9.65461 20.4968 9.6796C20.5575 9.79403 20.6589 10.0331 20.6501 10.0416C20.6447 10.047 20.6152 10.0277 20.5839 9.99932C20.553 9.97064 20.5206 9.94736 20.5118 9.94736C20.4834 9.94736 20.091 9.54216 20.0424 9.46266C20.0163 9.42006 19.9587 9.30847 19.9147 9.21505C19.8704 9.12163 19.8232 9.02481 19.8102 8.99982C19.7968 8.97483 19.786 8.92485 19.786 8.88879C19.786 8.85245 19.7755 8.82292 19.7625 8.82292C19.7494 8.82292 19.7324 8.77891 19.7241 8.72495C19.7162 8.671 19.6969 8.56225 19.6815 8.48303C19.6659 8.40409 19.646 8.21867 19.637 8.0713C19.6196 7.78707 19.5944 7.74561 19.5168 7.87509C19.4933 7.91456 19.4513 7.97277 19.4237 8.00429C19.3962 8.0358 19.3504 8.0926 19.3223 8.13065C19.2942 8.16869 19.2508 8.22378 19.2258 8.25303C19.2008 8.28228 19.1733 8.32827 19.1645 8.35553C19.1559 8.38251 19.1378 8.40466 19.1241 8.40466C19.1108 8.40466 19.0997 8.42226 19.0997 8.44384C19.0997 8.46542 19.0878 8.48303 19.0733 8.48303C19.0585 8.48303 19.0469 8.50574 19.0469 8.53329C19.0469 8.56083 19.037 8.58724 19.0248 8.59207C18.991 8.60541 18.8092 8.93991 18.8092 8.98875C18.8092 9.0126 18.7973 9.03219 18.7828 9.03219C18.7681 9.03219 18.7564 9.0549 18.7564 9.08273C18.7564 9.11084 18.7445 9.14094 18.73 9.14975C18.7155 9.15855 18.7036 9.18864 18.7036 9.21676C18.7036 9.24458 18.6917 9.2673 18.6772 9.2673C18.6627 9.2673 18.6508 9.29115 18.6508 9.32011C18.6508 9.34908 18.6397 9.39309 18.6264 9.41808C18.6133 9.44306 18.5832 9.53421 18.5596 9.62053C18.5361 9.70657 18.5054 9.81334 18.4915 9.85763C18.4773 9.90165 18.4659 9.97291 18.4659 10.0158C18.4659 10.0587 18.4552 10.105 18.4421 10.1186C18.429 10.1322 18.4117 10.1904 18.4038 10.2478C18.3955 10.3054 18.3759 10.423 18.3603 10.5093C18.1959 11.4208 18.1951 12.0727 18.3575 12.7971C18.372 12.8618 18.3913 12.9501 18.4003 12.9933C18.4097 13.0365 18.4268 13.0952 18.4384 13.1239C18.45 13.1526 18.4813 13.2469 18.508 13.3332C18.5344 13.4195 18.5653 13.5013 18.577 13.5149C18.5883 13.5285 18.598 13.5567 18.598 13.5774C18.598 13.5981 18.6806 13.781 18.782 13.984C18.9802 14.3818 19.0489 14.5048 19.0798 14.5184C19.0906 14.5232 19.0997 14.5383 19.0997 14.5522C19.0997 14.5661 19.1116 14.5914 19.1261 14.6087C19.1406 14.6263 19.196 14.7052 19.2491 14.7842C19.3022 14.8634 19.3533 14.9338 19.3627 14.9412C19.3717 14.9483 19.4075 14.9954 19.4419 15.0457C19.5012 15.1323 20.1052 15.7382 20.231 15.8373C20.2633 15.8629 20.3698 15.9384 20.4672 16.0054C20.5646 16.0727 20.6481 16.1369 20.6529 16.1486C20.6578 16.1605 20.6725 16.1699 20.6856 16.1699C20.6986 16.1699 20.7742 16.211 20.8537 16.2616C20.9332 16.3118 21.0107 16.353 21.0258 16.353C21.0411 16.353 21.0536 16.3646 21.0536 16.3791C21.0536 16.3936 21.0771 16.4052 21.1064 16.4052C21.1354 16.4052 21.1592 16.4169 21.1592 16.4314C21.1592 16.4459 21.1828 16.4575 21.212 16.4575C21.241 16.4575 21.2648 16.4694 21.2648 16.4836C21.2648 16.4981 21.2884 16.5097 21.3177 16.5097C21.3466 16.5097 21.3705 16.5049 21.3705 16.4987C21.3705 16.4924 21.3228 16.4166 21.2648 16.33C21.2066 16.2434 21.1592 16.1602 21.1592 16.1451C21.1592 16.1301 21.1501 16.1176 21.1393 16.1173C21.1285 16.1173 21.107 16.0909 21.0919 16.0585C21.0769 16.0265 21.0309 15.9353 20.99 15.8561C20.9491 15.7772 20.9051 15.692 20.892 15.667C20.8792 15.642 20.8687 15.6037 20.8687 15.5821C20.8687 15.5602 20.8568 15.5423 20.8423 15.5423C20.8278 15.5423 20.8159 15.5071 20.8159 15.464C20.8159 15.4208 20.804 15.3856 20.7895 15.3856C20.775 15.3856 20.7631 15.3569 20.7631 15.3217C20.7631 15.2868 20.7526 15.2516 20.7398 15.2436C20.7268 15.2357 20.71 15.1968 20.7021 15.157C20.6941 15.1172 20.6683 14.9966 20.6444 14.8887C20.5623 14.515 20.547 13.6401 20.6177 13.367L20.6362 13.2966L20.6995 13.3593C20.7344 13.394 20.7631 13.4286 20.7631 13.4363C20.7631 13.4842 21.262 13.9738 21.3108 13.9738C21.3225 13.9738 21.3495 13.9973 21.3705 14.026C21.3912 14.0547 21.4213 14.0783 21.4372 14.0783C21.4531 14.0783 21.4926 14.1027 21.5247 14.1325C21.634 14.233 21.6439 14.1964 21.6374 13.7239C21.6314 13.3 21.6558 13.0106 21.7163 12.784C21.7865 12.5222 21.8035 12.4688 21.8239 12.4456C21.8359 12.4319 21.8455 12.3996 21.8455 12.3734C21.8455 12.3476 21.8574 12.3266 21.8719 12.3266C21.8864 12.3266 21.8983 12.3093 21.8983 12.2882C21.8983 12.244 22.0221 12.0174 22.0744 11.9654C22.0937 11.9464 22.1096 11.9191 22.1096 11.9052C22.1096 11.891 22.2039 11.7891 22.3189 11.6783C22.5562 11.4495 22.5784 11.4307 22.6616 11.3864C22.7167 11.3575 22.7204 11.3594 22.7048 11.4083C22.6826 11.4773 22.6815 11.92 22.7028 12.054C22.7249 12.1914 22.7738 12.3601 22.8007 12.3905C22.8127 12.4041 22.8226 12.4365 22.8226 12.4626C22.8226 12.4884 22.8345 12.5094 22.849 12.5094C22.8635 12.5094 22.8754 12.533 22.8754 12.5617C22.8754 12.5907 22.8873 12.6142 22.9018 12.6142C22.9163 12.6142 22.9282 12.6375 22.9282 12.6665C22.9282 12.6952 22.937 12.7193 22.9481 12.7199C22.9589 12.7204 23.0151 12.7835 23.0728 12.8601C23.2235 13.0603 23.5694 13.2687 23.8127 13.3059C23.8709 13.3147 23.9641 13.3289 24.0197 13.3372C24.0794 13.346 24.133 13.34 24.1503 13.323C24.1665 13.3071 24.2131 13.294 24.254 13.294C24.3451 13.294 24.5388 13.2364 24.5388 13.2091C24.5388 13.1983 24.5612 13.1892 24.5885 13.1892C24.6157 13.1892 24.6527 13.1716 24.6708 13.15C24.689 13.1285 24.7174 13.1109 24.7344 13.1109C24.7512 13.1109 24.7819 13.0873 24.8029 13.0586C24.858 12.9828 24.9349 12.9905 24.9349 13.0717C24.9349 13.1077 24.9468 13.137 24.9613 13.137C24.9758 13.137 24.9877 13.1657 24.9877 13.2009C24.9877 13.2361 24.9977 13.2707 25.0099 13.2784C25.0499 13.3028 25.1726 13.9326 25.1726 14.1135C25.1726 14.3009 25.053 14.9577 25.0101 15.0051C24.9977 15.0187 24.9877 15.0571 24.9877 15.09C24.9877 15.1232 24.9758 15.1502 24.9613 15.1502C24.9468 15.1502 24.9349 15.1797 24.9349 15.2155C24.9349 15.2516 24.923 15.2811 24.9085 15.2811C24.894 15.2811 24.8821 15.3047 24.8821 15.3333C24.8821 15.362 24.8702 15.3856 24.8557 15.3856C24.8412 15.3856 24.8293 15.4083 24.8293 15.4364C24.8293 15.4642 24.8185 15.4938 24.8049 15.502C24.7915 15.5102 24.7728 15.552 24.7631 15.5951C24.7537 15.638 24.735 15.6732 24.7217 15.6732C24.7083 15.6732 24.6972 15.6968 24.6972 15.7255C24.6972 15.7541 24.6853 15.7777 24.6708 15.7777C24.6563 15.7777 24.6444 15.7953 24.6444 15.8169C24.6444 15.8385 24.6325 15.8561 24.618 15.8561C24.6035 15.8561 24.5916 15.8797 24.5916 15.9086C24.5916 15.9373 24.5805 15.9609 24.5669 15.9609C24.5536 15.9609 24.5348 15.9842 24.5257 16.0128C24.5166 16.0415 24.4948 16.0798 24.4777 16.098C24.4306 16.1471 24.3011 16.3487 24.3011 16.3729C24.3011 16.3842 24.2776 16.4106 24.2483 16.4314C24.1685 16.4884 24.1802 16.5407 24.2682 16.5194C24.3082 16.5097 24.3449 16.4919 24.3497 16.4796C24.3545 16.4674 24.3806 16.4575 24.4076 16.4575C24.4346 16.4575 24.4638 16.4459 24.4729 16.4314C24.4817 16.4169 24.5121 16.4052 24.5405 16.4052C24.5686 16.4052 24.5916 16.3964 24.5916 16.3857C24.5919 16.3749 24.6691 16.332 24.7634 16.2905C24.8577 16.2488 24.9349 16.2048 24.9349 16.1923C24.9349 16.1801 24.9588 16.1699 24.9877 16.1699C25.0167 16.1699 25.0405 16.1582 25.0405 16.1437C25.0405 16.1295 25.0584 16.1176 25.0803 16.1176C25.1019 16.1176 25.1198 16.106 25.1198 16.0915C25.1198 16.077 25.1382 16.0654 25.1604 16.0654C25.1828 16.0654 25.2154 16.0534 25.2331 16.0392C25.2507 16.0248 25.3304 15.9697 25.4102 15.9171C25.49 15.8643 25.5746 15.7996 25.5982 15.7735C25.6215 15.7471 25.6559 15.7255 25.6743 15.7255C25.6925 15.7255 25.7268 15.7045 25.7504 15.6789C25.774 15.6531 25.8518 15.5855 25.9239 15.5284C26.0679 15.4143 26.4396 15.0514 26.4407 15.0238C26.4413 15.0142 26.4887 14.954 26.5463 14.8898C26.604 14.8256 26.6511 14.7637 26.6511 14.7524C26.6511 14.7407 26.6846 14.6967 26.7255 14.6544C26.7667 14.6118 26.8229 14.5298 26.851 14.4718C26.8791 14.4139 26.9109 14.3665 26.922 14.3662C26.9328 14.3659 26.9416 14.3483 26.9416 14.3267C26.9416 14.3052 26.9535 14.2875 26.968 14.2875C26.9825 14.2875 26.9944 14.2708 26.9944 14.2503C26.9944 14.2299 27.0035 14.2095 27.0143 14.2046C27.0432 14.1919 27.2321 13.8207 27.2321 13.7764C27.2321 13.7554 27.244 13.7384 27.2585 13.7384C27.273 13.7384 27.2849 13.7148 27.2849 13.6861C27.2849 13.6575 27.2968 13.6339 27.3113 13.6339C27.3258 13.6339 27.3377 13.6044 27.3377 13.5683C27.3377 13.5325 27.3496 13.503 27.3641 13.503C27.3786 13.503 27.3905 13.476 27.3905 13.4428C27.3905 13.4099 27.4007 13.3715 27.4132 13.3579C27.4254 13.3443 27.468 13.2273 27.5072 13.0978C27.5467 12.9683 27.5898 12.8354 27.6035 12.8025C27.6171 12.7695 27.6282 12.7025 27.6282 12.6537C27.6282 12.6049 27.6401 12.5577 27.6546 12.5486C27.6691 12.5398 27.681 12.4745 27.681 12.4035C27.681 12.3323 27.6915 12.2743 27.7043 12.2743C27.7832 12.2743 27.7838 10.8023 27.7048 10.7197C27.6918 10.7061 27.681 10.645 27.681 10.584C27.681 10.5232 27.6691 10.4659 27.6546 10.4571C27.6401 10.4482 27.6282 10.4128 27.6282 10.3784C27.6282 10.3438 27.618 10.2887 27.6052 10.2557C27.5924 10.2225 27.5674 10.1487 27.5492 10.091C27.5313 10.0334 27.5012 9.95105 27.4825 9.90789C27.4638 9.86473 27.4325 9.79147 27.4132 9.74462C27.3936 9.69777 27.3686 9.65972 27.3576 9.65972C27.3468 9.65972 27.3377 9.63615 27.3377 9.60719C27.3377 9.57851 27.3286 9.55494 27.3175 9.55494C27.3065 9.55494 27.2758 9.50582 27.2497 9.44591C27.2233 9.38571 27.167 9.28661 27.1244 9.22556C27.0821 9.16423 27.0472 9.10175 27.0472 9.08614C27.0472 9.0708 27.0353 9.05831 27.0208 9.05831C27.0063 9.05831 26.9944 9.04071 26.9944 9.01913C26.9944 8.99755 26.9839 8.97994 26.9711 8.97994C26.9586 8.97994 26.9333 8.94445 26.9152 8.90129C26.8973 8.85813 26.8729 8.82292 26.8609 8.82292C26.8493 8.82292 26.8325 8.80077 26.8237 8.77379C26.8152 8.74653 26.7726 8.68804 26.7298 8.64317C26.6866 8.59859 26.6511 8.55316 26.6511 8.54209C26.6511 8.5313 26.6156 8.48104 26.5719 8.43078C26.5284 8.38052 26.4929 8.33083 26.4929 8.32089C26.4929 8.31067 26.4657 8.27546 26.4327 8.24252C26.3998 8.2093 26.2908 8.06477 26.19 7.92081C26.0894 7.77713 25.9977 7.6556 25.9861 7.65077C25.9742 7.64594 25.9648 7.6255 25.9648 7.60505C25.9648 7.58461 25.9529 7.56785 25.9384 7.56785C25.9239 7.56785 25.912 7.54429 25.912 7.51561C25.912 7.48693 25.9012 7.46336 25.8881 7.46336C25.8751 7.46336 25.8424 7.41054 25.8154 7.3458C25.7887 7.28106 25.7578 7.22825 25.7467 7.22825C25.7359 7.22796 25.7271 7.2044 25.7271 7.17572C25.7271 7.14704 25.7152 7.12347 25.7007 7.12347C25.6862 7.12347 25.6743 7.0999 25.6743 7.07122C25.6743 7.04255 25.6624 7.01898 25.6479 7.01898C25.6334 7.01898 25.6215 6.98945 25.6215 6.95339C25.6215 6.91761 25.6096 6.88808 25.5951 6.88808C25.5806 6.88808 25.5687 6.8611 25.5687 6.82816C25.5687 6.79494 25.5582 6.75661 25.5454 6.74298C25.5326 6.72935 25.5014 6.61236 25.4758 6.48288C25.4381 6.29206 25.4321 6.16514 25.444 5.81105L25.4588 5.37434L25.375 5.45044C25.2387 5.57424 25.005 5.80509 24.9482 5.8721C24.7949 6.05269 24.6444 6.2915 24.6444 6.35368C24.6444 6.37441 24.6325 6.39145 24.618 6.39145C24.6035 6.39145 24.5916 6.41501 24.5916 6.44369C24.5916 6.47237 24.5797 6.49594 24.5652 6.49594C24.5507 6.49594 24.5388 6.51979 24.5388 6.54876C24.5388 6.57744 24.5286 6.62173 24.5158 6.64672C24.478 6.72055 24.4403 6.86082 24.3937 7.09905C24.3576 7.28561 24.3522 7.44576 24.3627 8.05341C24.3696 8.4552 24.386 8.84563 24.3994 8.92088C24.4127 8.99641 24.4144 9.05831 24.4031 9.05831C24.363 9.05831 24.1955 8.97 24.1955 8.94871C24.1955 8.93706 24.183 8.92741 24.1674 8.92741C24.1518 8.92741 24.1234 8.91208 24.1044 8.89305C24.085 8.87403 24.0353 8.83001 23.9936 8.79509C23.9519 8.76016 23.8885 8.69031 23.8533 8.64005C23.8178 8.58951 23.7821 8.54266 23.7738 8.53528C23.7602 8.52363 23.7074 8.40381 23.6381 8.22691C23.6253 8.19397 23.6148 8.14399 23.6148 8.11588C23.6148 8.08777 23.6029 8.06477 23.5884 8.06477C23.5736 8.06477 23.562 8.00599 23.562 7.93387C23.562 7.86203 23.5501 7.80325 23.5356 7.80325C23.5191 7.80325 23.5092 7.65559 23.5092 7.41253C23.5092 7.18026 23.5197 7.01529 23.5356 7.00592C23.5501 6.99683 23.562 6.93209 23.562 6.86195C23.562 6.79182 23.5736 6.72708 23.5884 6.71828C23.6029 6.70919 23.6148 6.65581 23.6148 6.59902C23.6148 6.54223 23.6265 6.49594 23.6412 6.49594C23.6557 6.49594 23.6676 6.46613 23.6676 6.42978C23.6676 6.39343 23.683 6.32557 23.7023 6.27957C23.7213 6.23329 23.7517 6.12482 23.7699 6.0385C23.7877 5.95218 23.8159 5.8403 23.8318 5.79004C23.8724 5.66255 23.8709 4.77832 23.8303 4.738C23.8133 4.72125 23.7997 4.6832 23.7997 4.65367C23.7997 4.62386 23.7747 4.53498 23.7446 4.45632C23.7142 4.37739 23.6833 4.2922 23.6753 4.26693C23.6676 4.24194 23.6509 4.22121 23.6381 4.22121C23.6253 4.22121 23.6148 4.19765 23.6148 4.16897C23.6148 4.14029 23.6049 4.11672 23.5927 4.11672C23.5807 4.11672 23.5541 4.08435 23.5333 4.04488C23.5129 4.00512 23.4899 3.96708 23.4825 3.9597C23.4751 3.9526 23.4342 3.89978 23.3914 3.84214C23.3485 3.78478 23.2817 3.70811 23.2431 3.67234C23.0782 3.519 22.9813 3.43694 22.9651 3.43694C22.9555 3.43694 22.9285 3.41621 22.9049 3.39066C22.8249 3.30433 22.5844 3.16691 22.5852 3.20808Z" fill="url(#paint1_linear_380_9631)"/>
<path fill-rule="evenodd" clip-rule="evenodd" d="M17.9433 16.9993C17.9337 17.0149 17.9388 17.0407 17.955 17.0566C17.9709 17.0725 17.984 17.1069 17.984 17.1327C17.984 17.1583 17.9959 17.1796 18.0104 17.1796C18.0246 17.1796 18.0365 17.2088 18.0365 17.2446C18.0365 17.2807 18.0481 17.3099 18.0626 17.3099C18.0771 17.3099 18.0887 17.3253 18.0887 17.3443C18.0887 17.363 18.1117 17.4255 18.1396 17.4829C18.1674 17.5402 18.198 17.6189 18.208 17.6575C18.2176 17.6961 18.2361 17.7341 18.2489 17.7421C18.2617 17.75 18.2722 17.779 18.2722 17.8071C18.2722 17.835 18.2841 17.8577 18.2983 17.8577C18.3128 17.8577 18.3247 17.8753 18.3247 17.8971C18.3247 17.9187 18.3355 17.957 18.3485 17.9817C18.3843 18.049 18.4817 18.2722 18.4817 18.287C18.4817 18.3009 18.603 18.5741 18.6413 18.6462C18.6544 18.6712 18.6651 18.7092 18.6651 18.7308C18.6651 18.7527 18.6771 18.7703 18.6913 18.7703C18.7058 18.7703 18.7177 18.7879 18.7177 18.8095C18.7177 18.8308 18.7566 18.9336 18.804 19.0375C18.8517 19.1417 18.9065 19.2766 18.9261 19.3376C18.9457 19.3987 18.9715 19.4484 18.9837 19.4484C18.9957 19.4484 19.0056 19.4662 19.0056 19.4878C19.0056 19.5097 19.0164 19.5477 19.0297 19.5727C19.0522 19.615 19.0749 19.6673 19.178 19.9115C19.2211 20.0137 19.2515 20.0836 19.3435 20.2891C19.3739 20.3573 19.3986 20.4305 19.3986 20.4521C19.3986 20.474 19.4105 20.4916 19.4247 20.4916C19.4392 20.4916 19.4511 20.5095 19.4511 20.5311C19.4511 20.5529 19.4619 20.591 19.475 20.616C19.4883 20.6409 19.5179 20.7046 19.5411 20.7574C19.5871 20.8633 19.6402 20.89 19.7862 20.8815C19.8396 20.878 20.0806 20.8772 20.322 20.8792L20.761 20.8829V20.9689C20.761 21.0163 20.7715 21.066 20.7843 21.0797C20.7973 21.0933 20.8147 21.1807 20.8232 21.2742C20.8317 21.3673 20.8496 21.5257 20.8629 21.6263C20.8987 21.8983 20.9697 22.4809 20.9992 22.7476C21.0134 22.8768 21.037 23.0878 21.0515 23.217C21.066 23.3461 21.0841 23.5514 21.0915 23.6733C21.0989 23.7954 21.1162 23.9061 21.1296 23.9197C21.1429 23.9334 21.154 24.0589 21.154 24.1986C21.154 24.3383 21.1642 24.459 21.1767 24.4666C21.1892 24.4743 21.2059 24.6012 21.2142 24.7486C21.2221 24.8959 21.248 25.21 21.271 25.4468C21.315 25.8974 21.3502 26.2657 21.3928 26.7246C21.4067 26.8754 21.4237 27.1159 21.4308 27.2593C21.4376 27.4027 21.4544 27.5435 21.4683 27.5722C21.4819 27.6009 21.4987 27.7417 21.5055 27.8851C21.5186 28.1665 21.5444 28.4973 21.6117 29.2543C21.6353 29.5198 21.6665 29.8776 21.681 30.0499C21.6955 30.222 21.7185 30.4918 21.7318 30.6496C21.7452 30.8075 21.7633 31.0804 21.7721 31.2562C21.7807 31.4316 21.7977 31.5756 21.8099 31.5756C21.8221 31.5756 21.8374 31.7133 21.8443 31.882C21.8579 32.2162 21.8866 32.6177 21.9524 33.4011C21.976 33.6808 22.007 34.0622 22.0214 34.2487C22.049 34.6073 22.0831 35.0364 22.1248 35.5526C22.162 36.0126 22.2347 37.0047 22.2682 37.5088C22.2787 37.6663 22.298 37.816 22.3111 37.8413C22.3324 37.8824 22.3869 37.8867 22.881 37.8867C23.3759 37.8867 23.4293 37.8824 23.4483 37.8413C23.4704 37.7924 23.5051 37.448 23.5264 37.0652C23.5335 36.9363 23.5502 36.8071 23.5639 36.7784C23.5775 36.7497 23.5937 36.6325 23.6002 36.5175C23.6124 36.3011 23.6354 36.0526 23.7078 35.3439C23.7314 35.1145 23.7623 34.8036 23.7768 34.6528C23.791 34.5023 23.8146 34.2734 23.8288 34.1442C23.8433 34.0153 23.8606 33.804 23.8674 33.6748C23.8742 33.5459 23.8907 33.4167 23.904 33.3881C23.9174 33.3594 23.9341 33.2361 23.9412 33.1143C23.9566 32.8568 23.9878 32.5126 24.0489 31.9277C24.1213 31.2374 24.1406 31.0264 24.1568 30.7669C24.165 30.6309 24.1823 30.5082 24.1954 30.4946C24.2082 30.481 24.2189 30.3629 24.2189 30.2325C24.2189 30.1019 24.2294 29.9841 24.2428 29.9704C24.2559 29.9568 24.2735 29.8398 24.282 29.7109C24.2905 29.5817 24.3078 29.3704 24.3209 29.2412C24.3339 29.1123 24.3572 28.8599 24.3726 28.6807C24.3879 28.5013 24.4078 28.3076 24.4163 28.2503C24.4251 28.1929 24.4444 28.0169 24.4592 27.8593C24.5191 27.2226 24.5512 26.8998 24.6111 26.3336C24.6616 25.8543 24.6855 25.6135 24.7127 25.3034C24.7281 25.1313 24.7471 24.9434 24.7553 24.886C24.7633 24.8287 24.7826 24.641 24.7982 24.4689C24.8138 24.2968 24.8377 24.0503 24.8513 23.9211C24.8646 23.7919 24.8817 23.5807 24.8885 23.4518C24.8956 23.3226 24.9126 23.1934 24.926 23.1647C24.9396 23.136 24.9566 23.0188 24.9637 22.904C24.9771 22.6891 24.9964 22.4753 25.0685 21.7566C25.0915 21.5272 25.1176 21.2421 25.1267 21.1234C25.1358 21.0047 25.154 20.9008 25.1673 20.8925C25.1807 20.8843 25.3476 20.8792 25.5385 20.8815C25.9031 20.8851 25.974 20.8744 25.974 20.8147C25.974 20.7949 25.9857 20.7787 26.0002 20.7787C26.0146 20.7787 26.0263 20.7551 26.0263 20.7264C26.0263 20.6977 26.0382 20.6742 26.0527 20.6742C26.0669 20.6742 26.0788 20.6517 26.0788 20.6242C26.0788 20.5967 26.0876 20.5702 26.0984 20.5654C26.1092 20.5609 26.2066 20.3809 26.3145 20.1656C26.4227 19.9504 26.5198 19.7706 26.5306 19.7658C26.5417 19.761 26.5505 19.7346 26.5505 19.707C26.5505 19.6795 26.5621 19.6571 26.5766 19.6571C26.5911 19.6571 26.6027 19.6338 26.6027 19.6048C26.6027 19.5761 26.6146 19.5529 26.6288 19.5529C26.6433 19.5529 26.6552 19.5304 26.6552 19.5029C26.6552 19.4753 26.664 19.4489 26.6748 19.4441C26.7001 19.433 26.8909 19.0491 26.8909 19.0094C26.8909 18.9926 26.9026 18.979 26.917 18.979C26.9315 18.979 26.9432 18.9557 26.9432 18.927C26.9432 18.8981 26.9551 18.8748 26.9696 18.8748C26.9838 18.8748 26.9957 18.8572 26.9957 18.8356C26.9957 18.814 27.0076 18.7964 27.0218 18.7964C27.0363 18.7964 27.0482 18.7731 27.0482 18.7444C27.0482 18.7158 27.0599 18.6922 27.0743 18.6922C27.0888 18.6922 27.1005 18.6737 27.1005 18.6513C27.1005 18.6286 27.1181 18.5925 27.1397 18.5709C27.1615 18.5497 27.1791 18.5093 27.1791 18.4818C27.1791 18.454 27.1908 18.4312 27.2052 18.4312C27.2197 18.4312 27.2314 18.408 27.2314 18.3793C27.2314 18.3506 27.2433 18.327 27.2578 18.327C27.272 18.327 27.2839 18.3094 27.2839 18.2878C27.2839 18.2666 27.2955 18.249 27.31 18.249C27.3245 18.249 27.3362 18.2342 27.3362 18.2163C27.3359 18.1751 27.5781 17.6913 27.6048 17.6793C27.6156 17.6745 27.6244 17.6481 27.6244 17.6208C27.6244 17.5933 27.6363 17.5709 27.6505 17.5709C27.665 17.5709 27.6769 17.5482 27.6769 17.5206C27.6769 17.4934 27.6857 17.4669 27.6965 17.4621C27.7266 17.4488 27.9126 17.0632 27.9126 17.014C27.9126 16.974 27.5539 16.9709 22.9366 16.9709C19.3818 16.9709 17.9558 16.9791 17.9433 16.9993Z" fill="#FFCB48"/>
<path fill-rule="evenodd" clip-rule="evenodd" d="M28.7556 17.0024C28.7377 17.0237 28.723 17.0592 28.723 17.0813C28.723 17.1035 28.7113 17.1217 28.6968 17.1217C28.6826 17.1217 28.671 17.1441 28.671 17.1716C28.671 17.1995 28.6622 17.2259 28.6514 17.2307C28.6261 17.2418 28.3842 17.7276 28.3842 17.7671C28.3842 17.7835 28.3751 17.8011 28.3638 17.806C28.3527 17.8105 28.2976 17.9088 28.2419 18.0238C28.186 18.1388 28.1335 18.2387 28.1252 18.2461C28.1167 18.2532 28.0809 18.3179 28.0452 18.3898C28.0097 18.4616 27.9716 18.5244 27.9608 18.5292C27.95 18.534 27.9415 18.5516 27.9418 18.5684C27.9421 18.6079 27.7521 18.9886 27.7266 19C27.7158 19.0048 27.707 19.0312 27.707 19.0588C27.707 19.0863 27.6951 19.109 27.6809 19.109C27.6667 19.109 27.6547 19.1326 27.6547 19.1613C27.6547 19.19 27.6431 19.2135 27.6286 19.2135C27.6144 19.2135 27.6028 19.236 27.6028 19.2638C27.6028 19.2913 27.594 19.3177 27.5832 19.3226C27.5568 19.3342 27.316 19.8195 27.316 19.8606C27.316 19.8788 27.3075 19.8936 27.2967 19.8939C27.2859 19.8942 27.2419 19.9677 27.199 20.0571C27.1558 20.1469 27.1118 20.2241 27.1013 20.2289C27.0905 20.2338 27.0817 20.2602 27.0817 20.2877C27.0817 20.3152 27.0721 20.338 27.0604 20.338C27.0488 20.338 27.0232 20.3791 27.0034 20.4294C26.9838 20.4797 26.9582 20.5208 26.9466 20.5208C26.9349 20.5208 26.9253 20.5444 26.9253 20.5734C26.9253 20.602 26.9136 20.6256 26.8991 20.6256C26.8849 20.6256 26.8733 20.6421 26.8733 20.6622C26.8733 20.6821 26.8441 20.75 26.8083 20.8124C26.6805 21.0373 26.5229 21.0177 28.4674 21.0177C29.5737 21.0177 30.2483 21.0277 30.3497 21.0456C30.6927 21.1063 31.1487 21.2105 31.1615 21.2313C31.1689 21.2432 31.2036 21.2531 31.2385 21.2531C31.2737 21.2531 31.3021 21.2648 31.3021 21.2793C31.3021 21.2937 31.3316 21.3054 31.3674 21.3054C31.4032 21.3054 31.4324 21.3142 31.4324 21.3253C31.4324 21.3361 31.4705 21.3616 31.517 21.3821C31.6184 21.4263 31.8067 21.5459 31.8189 21.5734C31.8237 21.5842 31.839 21.593 31.8529 21.593C31.8768 21.593 32.1204 21.8338 32.2215 21.9573C32.3368 22.0985 32.4629 22.387 32.5307 22.6652C32.6026 22.9602 32.5617 23.8022 32.4703 23.9058C32.4583 23.9194 32.4484 23.9637 32.4484 24.0041C32.4484 24.0444 32.4396 24.0773 32.4288 24.0773C32.418 24.0773 32.3925 24.1154 32.3723 24.1622C32.2851 24.3649 32.0421 24.6483 31.8493 24.7724C31.7848 24.8142 31.7263 24.855 31.7189 24.8636C31.7118 24.8721 31.6678 24.8957 31.6212 24.9158C31.5747 24.9363 31.5366 24.9618 31.5366 24.9726C31.5366 24.9834 31.5131 24.9925 31.4847 24.9925C31.456 24.9925 31.4324 25.0041 31.4324 25.0186C31.4324 25.0328 31.4114 25.0447 31.3856 25.0447C31.3597 25.0447 31.3276 25.0544 31.314 25.0666C31.3004 25.0785 31.1837 25.12 31.0548 25.1586C30.9256 25.1969 30.7842 25.2401 30.7401 25.2543C30.6961 25.2685 30.6237 25.2801 30.5789 25.2801C30.5343 25.2801 30.4903 25.2918 30.4815 25.3063C30.4727 25.3204 30.39 25.3324 30.2975 25.3324C30.2032 25.3324 30.1299 25.3437 30.1299 25.3585C30.1299 25.3758 29.3397 25.3846 27.8115 25.3846H25.4933L25.4802 25.4434C25.4561 25.5504 25.3655 26.4687 25.3454 26.8098C25.3377 26.9392 25.3209 27.0562 25.3079 27.0699C25.2948 27.0835 25.284 27.2019 25.284 27.3328C25.284 27.4637 25.2732 27.5818 25.2602 27.5955C25.2471 27.6091 25.2298 27.732 25.2218 27.8686C25.2136 28.0055 25.1957 28.223 25.1821 28.3525C25.1449 28.7032 25.104 29.1308 25.1029 29.1819C25.1017 29.2239 25.2801 29.2273 27.9608 29.2375C30.8091 29.2481 31.1706 29.2586 31.6147 29.3449C31.7365 29.3684 31.8805 29.3948 31.9344 29.4031C31.9887 29.4116 32.0392 29.4286 32.0469 29.4411C32.0546 29.4536 32.0946 29.4639 32.1358 29.4639C32.1772 29.4639 32.2181 29.4755 32.2269 29.49C32.236 29.5045 32.2601 29.5161 32.2811 29.5161C32.3408 29.5161 32.7511 29.7151 32.8587 29.7961C33.0734 29.9579 33.1992 30.0769 33.3213 30.2336C33.3641 30.2887 33.4141 30.3492 33.432 30.3677C33.4499 30.3864 33.4647 30.4199 33.4647 30.4426C33.4647 30.4651 33.4763 30.4835 33.4905 30.4835C33.505 30.4835 33.5166 30.5071 33.5166 30.5361C33.5166 30.5647 33.5257 30.5883 33.5365 30.5883C33.5606 30.5883 33.6878 30.9983 33.7151 31.1636C33.7531 31.3947 33.7267 32.0225 33.6736 32.1441C33.6611 32.1727 33.6435 32.231 33.6342 32.273C33.6251 32.3153 33.5947 32.3968 33.5672 32.4544C33.5393 32.5121 33.5166 32.5745 33.5166 32.5936C33.5166 32.6123 33.505 32.6279 33.4905 32.6279C33.4763 32.6279 33.4647 32.6515 33.4647 32.6802C33.4647 32.7088 33.4527 32.7324 33.4385 32.7324C33.424 32.7324 33.4124 32.7458 33.4124 32.7617C33.4124 32.8 33.0109 33.2032 32.9726 33.2032C32.9567 33.2032 32.9436 33.2148 32.9436 33.2293C32.9436 33.2435 32.926 33.2554 32.9044 33.2554C32.8828 33.2554 32.8652 33.2671 32.8652 33.2816C32.8652 33.2961 32.8476 33.3077 32.8263 33.3077C32.8047 33.3077 32.7871 33.3193 32.7871 33.3338C32.7871 33.3483 32.7707 33.3599 32.7508 33.3599C32.7306 33.3599 32.6633 33.3892 32.6009 33.425C32.5387 33.4607 32.4671 33.4903 32.4419 33.4903C32.4169 33.4906 32.3964 33.5025 32.3964 33.517C32.3964 33.5312 32.3672 33.5431 32.3311 33.5431C32.2953 33.5431 32.2661 33.5547 32.2661 33.5692C32.2661 33.5834 32.2309 33.5953 32.188 33.5953C32.1448 33.5953 32.1099 33.6058 32.1099 33.6186C32.1099 33.6317 32.0659 33.6479 32.012 33.6552C31.9583 33.6623 31.8328 33.687 31.7328 33.71C31.251 33.8211 30.8884 33.8322 27.9154 33.8245L25.0887 33.8177L25.0753 31.8042C25.0679 30.6968 25.0591 29.8265 25.0557 29.8705C25.0523 29.9142 25.0387 29.9613 25.0254 29.975C25.0117 29.9886 24.9944 30.1115 24.9865 30.2484C24.9785 30.385 24.9657 30.6025 24.9581 30.732C24.9501 30.8615 24.9328 30.9909 24.9192 31.0196C24.9058 31.0483 24.8891 31.1721 24.882 31.2942C24.8749 31.4166 24.8581 31.6224 24.8448 31.7519C24.8311 31.8814 24.8078 32.1284 24.7928 32.3011C24.757 32.7066 24.7161 33.1103 24.6838 33.373C24.6548 33.6098 24.6369 33.8216 24.6182 34.1445C24.6111 34.2666 24.594 34.3901 24.5807 34.4191C24.5671 34.4478 24.5503 34.5713 24.5432 34.6937C24.5361 34.8158 24.5196 35.0216 24.5069 35.1511C24.4938 35.2806 24.4699 35.5336 24.454 35.7133C24.4381 35.8931 24.4188 36.0873 24.4112 36.1449C24.397 36.2511 24.362 36.5885 24.3163 37.0601C24.3024 37.2038 24.2851 37.4488 24.278 37.6042L24.2646 37.8867L27.803 37.8731C29.7651 37.8654 31.4747 37.8481 31.6408 37.8336C31.8055 37.8197 32.0341 37.8009 32.1488 37.7921C32.2635 37.7833 32.3808 37.7657 32.4095 37.7527C32.4382 37.7399 32.5259 37.7234 32.6048 37.7166C32.6835 37.7095 32.8127 37.6919 32.8914 37.6774C33.2608 37.609 33.3332 37.5945 33.5036 37.5559C33.6038 37.5332 33.7242 37.5079 33.7708 37.4999C33.8176 37.4923 33.8622 37.4752 33.8701 37.4625C33.8781 37.4497 33.9181 37.4392 33.9596 37.4392C34.0007 37.4392 34.0419 37.4275 34.0507 37.4131C34.0595 37.3986 34.1007 37.3869 34.1419 37.3869C34.183 37.3869 34.2242 37.375 34.233 37.3608C34.2418 37.3463 34.2722 37.3347 34.3 37.3347C34.3281 37.3347 34.3713 37.3236 34.3963 37.31C34.4661 37.2722 34.8035 37.1515 34.8393 37.1515C34.8569 37.1515 34.8713 37.1399 34.8713 37.1254C34.8713 37.1109 34.9006 37.0993 34.9364 37.0993C34.9724 37.0993 35.0017 37.0874 35.0017 37.0732C35.0017 37.0587 35.025 37.047 35.0536 37.047C35.0823 37.047 35.1059 37.0351 35.1059 37.0209C35.1059 37.0064 35.1263 36.9945 35.1513 36.9939C35.1766 36.9937 35.2726 36.9525 35.3651 36.9025C35.4577 36.8525 35.5486 36.8116 35.567 36.8116C35.5858 36.8116 35.6008 36.7997 35.6008 36.7855C35.6008 36.771 35.6184 36.7594 35.64 36.7594C35.6613 36.7594 35.6789 36.7475 35.6789 36.7333C35.6789 36.7188 35.6971 36.7072 35.7192 36.7072C35.7414 36.7072 35.7735 36.6952 35.7908 36.6807C35.8609 36.6222 36.1733 36.4195 36.1931 36.4195C36.2051 36.4195 36.2315 36.3959 36.2522 36.367C36.2729 36.3383 36.2996 36.3147 36.3118 36.3147C36.324 36.3147 36.3493 36.3 36.3678 36.2821C36.3862 36.2642 36.4575 36.2023 36.5259 36.1449C36.7701 35.9396 37.2114 35.4802 37.2702 35.3697C37.2875 35.3374 37.3292 35.2812 37.363 35.2445C37.3968 35.2079 37.4246 35.1684 37.4246 35.1568C37.4246 35.1454 37.4479 35.1105 37.4766 35.0798C37.5053 35.0489 37.5288 35.0083 37.5288 34.9892C37.5288 34.9705 37.5376 34.9552 37.5484 34.9552C37.5592 34.9552 37.5848 34.9168 37.6049 34.87C37.6251 34.8234 37.6487 34.7791 37.6569 34.772C37.6651 34.7649 37.7055 34.6883 37.7466 34.6019C37.7878 34.5156 37.8315 34.4248 37.8443 34.3998C37.8571 34.3748 37.8673 34.3364 37.8673 34.3149C37.8673 34.293 37.8792 34.2751 37.8934 34.2751C37.9079 34.2751 37.9196 34.2459 37.9196 34.2098C37.9196 34.1737 37.9312 34.1445 37.9457 34.1445C37.9599 34.1445 37.9715 34.1158 37.9715 34.0806C37.9715 34.0454 37.9812 34.0108 37.9931 34.0037C38.0047 33.9963 38.0354 33.8986 38.0612 33.7861C38.0868 33.674 38.1183 33.5553 38.1311 33.5221C38.1436 33.4891 38.1541 33.4221 38.1541 33.3733C38.1541 33.3244 38.1657 33.2773 38.1799 33.2685C38.1944 33.2597 38.2061 33.1765 38.2061 33.0839C38.2061 32.9891 38.2174 32.9156 38.2322 32.9156C38.2489 32.9156 38.2583 32.6234 38.2583 32.0918C38.2583 31.56 38.2489 31.2681 38.2322 31.2681C38.2171 31.2681 38.2061 31.1852 38.2061 31.0719C38.2061 30.964 38.1956 30.8759 38.1825 30.8759C38.1697 30.8759 38.1532 30.82 38.1459 30.7516C38.1388 30.6834 38.1212 30.5804 38.107 30.5227C38.0252 30.1953 38.0096 30.1436 37.9914 30.1436C37.9806 30.1436 37.9715 30.115 37.9715 30.0797C37.9715 30.0448 37.9599 30.0088 37.9457 30C37.9312 29.9909 37.9196 29.9551 37.9196 29.9199C37.9196 29.8847 37.9079 29.856 37.8934 29.856C37.8792 29.856 37.8673 29.8324 37.8673 29.8037C37.8673 29.7751 37.8557 29.7515 37.8415 29.7515C37.827 29.7515 37.8153 29.7367 37.8153 29.7188C37.8156 29.6708 37.6325 29.3165 37.5765 29.256C37.5501 29.2276 37.5288 29.1907 37.5288 29.1739C37.5288 29.1569 37.5078 29.124 37.4826 29.1007C37.457 29.0777 37.4164 29.0271 37.392 28.9885C37.2841 28.8181 36.5711 28.104 36.5086 28.104C36.4953 28.104 36.4578 28.0776 36.4254 28.0452C36.393 28.0129 36.3232 27.9569 36.2704 27.9211C36.2176 27.8851 36.1744 27.8468 36.1741 27.836C36.1741 27.8252 36.1613 27.8164 36.146 27.8164C36.1307 27.8164 36.0671 27.7812 36.0046 27.738C35.9421 27.6948 35.8839 27.6596 35.8751 27.6596C35.8663 27.6596 35.845 27.6474 35.8277 27.6327C35.7766 27.5886 35.4923 27.4242 35.4674 27.4242C35.4549 27.4242 35.4446 27.4126 35.4446 27.3981C35.4446 27.3836 35.4313 27.372 35.4154 27.372C35.3918 27.372 35.0721 27.2249 34.8393 27.1071C34.8143 27.0946 34.7762 27.0843 34.7544 27.0843C34.7328 27.0843 34.7152 27.0724 34.7152 27.0582C34.7152 27.0437 34.6922 27.0321 34.6643 27.0321C34.6365 27.0321 34.6067 27.0202 34.5979 27.006C34.5888 26.9915 34.5604 26.9796 34.5343 26.9796C34.5082 26.9796 34.4724 26.962 34.4545 26.9404C34.4275 26.9077 34.4312 26.9012 34.4775 26.9012C34.5079 26.9012 34.5326 26.8896 34.5326 26.8751C34.5326 26.8606 34.5502 26.849 34.5718 26.849C34.5934 26.849 34.611 26.8373 34.611 26.8228C34.611 26.8084 34.6283 26.7967 34.6499 26.7967C34.6714 26.7967 34.689 26.7848 34.689 26.7706C34.689 26.7561 34.7066 26.7445 34.7279 26.7445C34.7495 26.7445 34.7674 26.7357 34.7674 26.7249C34.7677 26.7141 34.8151 26.6823 34.8728 26.6547C34.9304 26.6269 35.0122 26.571 35.0545 26.5304C35.0968 26.49 35.1408 26.4568 35.1522 26.4568C35.1635 26.4568 35.2251 26.41 35.289 26.3529C35.3532 26.2958 35.414 26.2487 35.4245 26.2484C35.4506 26.2473 35.9401 25.7492 36.0046 25.6581C36.0333 25.6175 36.0832 25.5575 36.1153 25.5249C36.1477 25.4922 36.1741 25.4499 36.1741 25.4309C36.1741 25.4119 36.1974 25.3792 36.2261 25.3585C36.2547 25.3378 36.2783 25.3122 36.2783 25.3017C36.2783 25.2835 36.3828 25.1146 36.4291 25.0578C36.4407 25.0433 36.4674 24.9933 36.4879 24.9468C36.5086 24.8999 36.5342 24.8616 36.5449 24.8616C36.556 24.8616 36.5648 24.838 36.5648 24.8093C36.5648 24.7807 36.5765 24.7571 36.5909 24.7571C36.6051 24.7571 36.6168 24.7335 36.6168 24.7048C36.6168 24.6759 36.6273 24.6526 36.6401 24.6526C36.6528 24.6526 36.6713 24.6208 36.681 24.5822C36.6906 24.5438 36.721 24.4649 36.7488 24.4075C36.7766 24.3499 36.7994 24.2815 36.7994 24.2553C36.7994 24.2292 36.811 24.2079 36.8252 24.2079C36.8397 24.2079 36.8513 24.1792 36.8513 24.144C36.8513 24.1091 36.863 24.073 36.8775 24.0642C36.8917 24.0552 36.9036 24.02 36.9036 23.9856C36.9036 23.9515 36.9138 23.9169 36.9266 23.9089C36.9394 23.901 36.9561 23.8564 36.9638 23.8093C36.9714 23.7624 37.0038 23.583 37.0359 23.4103C37.0867 23.1352 37.0935 23.0099 37.0933 22.3906C37.0927 21.6759 37.0737 21.4843 36.9547 20.9916C36.9391 20.9269 36.9198 20.8414 36.9118 20.8017C36.9039 20.7619 36.8871 20.723 36.8743 20.7153C36.8618 20.7074 36.8513 20.673 36.8513 20.6387C36.8513 20.6043 36.8397 20.5691 36.8252 20.5603C36.811 20.5512 36.7994 20.5177 36.7994 20.4853C36.7994 20.4532 36.7894 20.4158 36.7772 20.4019C36.765 20.3882 36.7349 20.3243 36.7105 20.2596C36.635 20.0605 36.6049 19.9981 36.5844 19.9981C36.5736 19.9981 36.5648 19.9745 36.5648 19.9458C36.5648 19.9169 36.5532 19.8933 36.5387 19.8933C36.5245 19.8933 36.5126 19.8825 36.5126 19.8689C36.5126 19.8402 36.3581 19.5821 36.3107 19.5321C36.2928 19.5131 36.278 19.4895 36.278 19.4796C36.278 19.4699 36.2428 19.4208 36.1999 19.3705C36.1571 19.32 36.1219 19.2706 36.1219 19.2601C36.1219 19.2124 35.3458 18.429 35.2984 18.429C35.289 18.429 35.2623 18.408 35.2391 18.3824C35.2161 18.3568 35.1343 18.2961 35.0579 18.2475C34.9812 18.1987 34.9051 18.1462 34.8884 18.1302C34.8444 18.0879 34.5332 17.9062 34.5048 17.9062C34.4914 17.9062 34.4806 17.8943 34.4806 17.8801C34.4806 17.8656 34.4582 17.8537 34.4306 17.8537C34.4031 17.8537 34.3767 17.8446 34.3719 17.8335C34.3605 17.8068 33.9806 17.6254 33.8522 17.5851C33.7966 17.5677 33.7512 17.5445 33.7512 17.5337C33.7512 17.5229 33.7225 17.5138 33.6876 17.5138C33.6526 17.5138 33.6166 17.5022 33.6078 17.4877C33.599 17.4735 33.5632 17.4615 33.5283 17.4615C33.493 17.4615 33.4647 17.4499 33.4647 17.4354C33.4647 17.4209 33.4408 17.4093 33.4121 17.4093C33.3832 17.4093 33.3391 17.3985 33.3144 17.3852C33.2727 17.3633 33.11 17.3153 32.8522 17.2494C32.7951 17.2347 32.7122 17.2117 32.6682 17.1983C32.6242 17.185 32.5455 17.1739 32.4938 17.1739C32.4419 17.1739 32.3922 17.1623 32.3834 17.1478C32.3746 17.1333 32.3175 17.1217 32.2567 17.1217C32.196 17.1217 32.1352 17.1109 32.1216 17.0975C32.1079 17.0845 32.0205 17.0671 31.9273 17.0592C31.8342 17.0512 31.6584 17.0322 31.5366 17.0169C31.4148 17.0015 30.7467 16.9834 30.0516 16.9763C28.9595 16.9655 28.7837 16.9692 28.7556 17.0024Z" fill="url(#paint2_linear_380_9631)"/>
<path fill-rule="evenodd" clip-rule="evenodd" d="M16.9966 17.0024C17.0145 17.0237 17.0292 17.0592 17.0292 17.0813C17.0292 17.1035 17.0409 17.1217 17.0554 17.1217C17.0699 17.1217 17.0815 17.1441 17.0815 17.1716C17.0815 17.1995 17.0903 17.2259 17.1014 17.2307C17.1266 17.2418 17.3697 17.7276 17.3697 17.7671C17.3697 17.7835 17.3791 17.8011 17.3901 17.806C17.4015 17.8105 17.4566 17.9088 17.5128 18.0238C17.569 18.1388 17.6219 18.2387 17.6301 18.2461C17.6386 18.2532 17.6747 18.3179 17.7104 18.3898C17.7462 18.4616 17.7846 18.5244 17.7953 18.5292C17.8061 18.534 17.8149 18.5516 17.8147 18.5684C17.8144 18.6079 18.0052 18.9886 18.031 19C18.0418 19.0048 18.0506 19.0312 18.0506 19.0588C18.0506 19.0863 18.0625 19.109 18.0767 19.109C18.0912 19.109 18.1032 19.1326 18.1032 19.1613C18.1032 19.19 18.1148 19.2135 18.1293 19.2135C18.1438 19.2135 18.1554 19.236 18.1554 19.2638C18.1554 19.2913 18.1642 19.3177 18.175 19.3226C18.2017 19.3342 18.4439 19.8195 18.4436 19.8606C18.4436 19.8788 18.4524 19.8936 18.4632 19.8939C18.474 19.8942 18.5183 19.9677 18.5614 20.0571C18.6046 20.1469 18.6489 20.2241 18.6597 20.2289C18.6705 20.2338 18.6793 20.2602 18.6793 20.2877C18.6793 20.3152 18.6889 20.338 18.7006 20.338C18.7122 20.338 18.7381 20.3791 18.7579 20.4294C18.7775 20.4797 18.8034 20.5208 18.815 20.5208C18.8269 20.5208 18.8363 20.5444 18.8363 20.5734C18.8363 20.602 18.8482 20.6256 18.8627 20.6256C18.8769 20.6256 18.8888 20.6421 18.8888 20.6622C18.8888 20.6821 18.9181 20.75 18.9539 20.8124C19.0828 21.0373 19.2409 21.0177 17.2862 21.0177C16.174 21.0177 15.4956 21.0277 15.3937 21.0456C15.049 21.1063 14.5904 21.2105 14.5776 21.2313C14.5702 21.2432 14.5353 21.2531 14.5001 21.2531C14.4652 21.2531 14.4362 21.2648 14.4362 21.2793C14.4362 21.2937 14.4067 21.3054 14.3709 21.3054C14.3348 21.3054 14.3053 21.3142 14.3053 21.3253C14.3053 21.3361 14.267 21.3616 14.2201 21.3821C14.1185 21.4263 13.9291 21.5459 13.9169 21.5734C13.912 21.5842 13.8967 21.593 13.8825 21.593C13.8587 21.593 13.6136 21.8338 13.5122 21.9573C13.3961 22.0985 13.2695 22.387 13.2013 22.6652C13.1289 22.9602 13.1701 23.8022 13.2618 23.9058C13.274 23.9194 13.2839 23.9637 13.2839 24.0041C13.2839 24.0444 13.2927 24.0773 13.3038 24.0773C13.3146 24.0773 13.3402 24.1154 13.3603 24.1622C13.4483 24.3649 13.6925 24.6483 13.8862 24.7724C13.9512 24.8142 14.01 24.855 14.0171 24.8636C14.0245 24.8721 14.0685 24.8957 14.1153 24.9158C14.1622 24.9363 14.2005 24.9618 14.2005 24.9726C14.2005 24.9834 14.2241 24.9925 14.2531 24.9925C14.2817 24.9925 14.3053 25.0041 14.3053 25.0186C14.3053 25.0328 14.3266 25.0447 14.3524 25.0447C14.3783 25.0447 14.4109 25.0544 14.4246 25.0666C14.4382 25.0785 14.5555 25.12 14.6852 25.1586C14.8147 25.1969 14.957 25.2401 15.0013 25.2543C15.0456 25.2685 15.1185 25.2801 15.1634 25.2801C15.2083 25.2801 15.2523 25.2918 15.2614 25.3063C15.2702 25.3204 15.3534 25.3324 15.4462 25.3324C15.5411 25.3324 15.6149 25.3437 15.6149 25.3585C15.6149 25.3758 16.4091 25.3846 17.9453 25.3846H20.2759L20.2893 25.4434C20.3134 25.5504 20.4046 26.4687 20.4247 26.8098C20.4324 26.9392 20.4494 27.0562 20.4625 27.0699C20.4756 27.0835 20.4863 27.2019 20.4863 27.3328C20.4863 27.4637 20.4971 27.5818 20.5105 27.5955C20.5235 27.6091 20.5409 27.732 20.5491 27.8686C20.5573 28.0055 20.5752 28.223 20.5889 28.3525C20.6263 28.7032 20.6672 29.1308 20.6686 29.1819C20.6698 29.2239 20.4906 29.2273 17.7953 29.2375C14.932 29.2481 14.5685 29.2586 14.1219 29.3449C13.9995 29.3684 13.855 29.3948 13.8004 29.4031C13.7462 29.4116 13.6954 29.4286 13.6877 29.4411C13.6801 29.4536 13.6397 29.4639 13.5983 29.4639C13.5565 29.4639 13.5154 29.4755 13.5066 29.49C13.4975 29.5045 13.473 29.5161 13.452 29.5161C13.3921 29.5161 12.9795 29.7151 12.8714 29.7961C12.6556 29.9579 12.5292 30.0769 12.4065 30.2336C12.3634 30.2887 12.3131 30.3492 12.2952 30.3677C12.277 30.3864 12.2623 30.4199 12.2623 30.4426C12.2623 30.4651 12.2506 30.4835 12.2362 30.4835C12.222 30.4835 12.21 30.5071 12.21 30.5361C12.21 30.5647 12.2009 30.5883 12.1899 30.5883C12.1657 30.5883 12.038 30.9983 12.0107 31.1636C11.9724 31.3947 11.9988 32.0225 12.0522 32.1441C12.0647 32.1727 12.0825 32.231 12.0919 32.273C12.101 32.3153 12.1314 32.3968 12.1595 32.4544C12.1873 32.5121 12.21 32.5745 12.21 32.5936C12.21 32.6123 12.222 32.6279 12.2362 32.6279C12.2506 32.6279 12.2623 32.6515 12.2623 32.6802C12.2623 32.7088 12.2742 32.7324 12.2887 32.7324C12.3029 32.7324 12.3148 32.7458 12.3148 32.7617C12.3148 32.8 12.7186 33.2032 12.7569 33.2032C12.7731 33.2032 12.7862 33.2148 12.7862 33.2293C12.7862 33.2435 12.8041 33.2554 12.8256 33.2554C12.8472 33.2554 12.8648 33.2671 12.8648 33.2816C12.8648 33.2961 12.8824 33.3077 12.904 33.3077C12.9256 33.3077 12.9435 33.3193 12.9435 33.3338C12.9435 33.3483 12.9599 33.3599 12.9801 33.3599C13.0003 33.3599 13.0679 33.3892 13.1306 33.425C13.1934 33.4607 13.2652 33.4903 13.2905 33.4903C13.3157 33.4906 13.3362 33.5025 13.3362 33.517C13.3362 33.5312 13.3657 33.5431 13.4018 33.5431C13.4378 33.5431 13.4671 33.5547 13.4671 33.5692C13.4671 33.5834 13.5026 33.5953 13.5457 33.5953C13.5889 33.5953 13.6244 33.6058 13.6244 33.6186C13.6244 33.6317 13.6684 33.6479 13.7226 33.6552C13.7766 33.6623 13.9029 33.687 14.0032 33.71C14.4876 33.8211 14.8522 33.8322 17.8411 33.8245L20.6828 33.8177L20.6962 31.8042C20.7036 30.6968 20.7124 29.8265 20.7158 29.8705C20.7192 29.9142 20.7331 29.9613 20.7467 29.975C20.7601 29.9886 20.7777 30.1115 20.7856 30.2484C20.7936 30.385 20.8064 30.6025 20.8143 30.732C20.822 30.8615 20.8396 30.9909 20.8532 31.0196C20.8666 31.0483 20.8836 31.1721 20.8907 31.2942C20.8978 31.4166 20.9145 31.6224 20.9282 31.7519C20.9415 31.8814 20.9651 32.1284 20.9804 32.3011C21.0162 32.7066 21.0574 33.1103 21.0897 33.373C21.119 33.6098 21.1372 33.8216 21.1559 34.1445C21.163 34.2666 21.18 34.3901 21.1937 34.4191C21.207 34.4478 21.224 34.5713 21.2311 34.6937C21.2382 34.8158 21.2547 35.0216 21.2678 35.1511C21.2808 35.2806 21.3047 35.5336 21.3209 35.7133C21.3368 35.8931 21.3564 36.0873 21.364 36.1449C21.3782 36.2511 21.4134 36.5885 21.4592 37.0601C21.4731 37.2038 21.4907 37.4488 21.4978 37.6042L21.5111 37.8867L17.9541 37.8731C15.9818 37.8654 14.2627 37.8481 14.0958 37.8336C13.9302 37.8197 13.7002 37.8009 13.5852 37.7921C13.4699 37.7833 13.3521 37.7657 13.3231 37.7527C13.2944 37.7399 13.2059 37.7234 13.1266 37.7166C13.0474 37.7095 12.9179 37.6919 12.8387 37.6774C12.467 37.609 12.3946 37.5945 12.2231 37.5559C12.1223 37.5332 12.0013 37.5079 11.9545 37.4999C11.9073 37.4923 11.8625 37.4752 11.8548 37.4625C11.8469 37.4497 11.8063 37.4392 11.7648 37.4392C11.7233 37.4392 11.6819 37.4275 11.6731 37.4131C11.6643 37.3986 11.6228 37.3869 11.5814 37.3869C11.5399 37.3869 11.4987 37.375 11.4897 37.3608C11.4809 37.3463 11.4505 37.3347 11.4224 37.3347C11.3942 37.3347 11.3508 37.3236 11.3258 37.31C11.2557 37.2722 10.9164 37.1515 10.8803 37.1515C10.8627 37.1515 10.8482 37.1399 10.8482 37.1254C10.8482 37.1109 10.8187 37.0993 10.7826 37.0993C10.7466 37.0993 10.717 37.0874 10.717 37.0732C10.717 37.0587 10.6935 37.047 10.6648 37.047C10.6358 37.047 10.6122 37.0351 10.6122 37.0209C10.6122 37.0064 10.5918 36.9945 10.5665 36.9939C10.5413 36.9937 10.4447 36.9525 10.3516 36.9025C10.2587 36.8525 10.1673 36.8116 10.1486 36.8116C10.1301 36.8116 10.1148 36.7997 10.1148 36.7855C10.1148 36.771 10.0972 36.7594 10.0756 36.7594C10.0537 36.7594 10.0361 36.7475 10.0361 36.7333C10.0361 36.7188 10.0179 36.7072 9.99579 36.7072C9.97364 36.7072 9.94127 36.6952 9.92367 36.6807C9.85325 36.6222 9.53948 36.4195 9.51932 36.4195C9.50739 36.4195 9.4807 36.3959 9.45997 36.367C9.43925 36.3383 9.41227 36.3147 9.40006 36.3147C9.38757 36.3147 9.3623 36.3 9.34384 36.2821C9.3251 36.2642 9.25354 36.2023 9.18483 36.1449C8.93921 35.9396 8.49568 35.4802 8.43662 35.3697C8.4193 35.3374 8.37727 35.2812 8.3432 35.2445C8.30912 35.2079 8.28129 35.1684 8.28129 35.1568C8.28129 35.1454 8.25773 35.1105 8.22905 35.0798C8.20009 35.0489 8.17652 35.0083 8.17652 34.9892C8.17652 34.9705 8.16772 34.9552 8.15693 34.9552C8.14585 34.9552 8.1203 34.9168 8.09985 34.87C8.07969 34.8234 8.05612 34.7791 8.0476 34.772C8.03937 34.7649 7.99876 34.6883 7.95759 34.6019C7.91613 34.5156 7.87212 34.4248 7.85935 34.3998C7.84657 34.3748 7.83606 34.3364 7.83606 34.3149C7.83606 34.293 7.82442 34.2751 7.80994 34.2751C7.79546 34.2751 7.78381 34.2459 7.78381 34.2098C7.78381 34.1737 7.77189 34.1445 7.75741 34.1445C7.74321 34.1445 7.73128 34.1158 7.73128 34.0806C7.73128 34.0454 7.72163 34.0108 7.70999 34.0037C7.69806 33.9963 7.66711 33.8986 7.64127 33.7861C7.61543 33.674 7.58391 33.5553 7.57114 33.5221C7.55836 33.4891 7.54813 33.4221 7.54813 33.3733C7.54813 33.3244 7.53621 33.2773 7.52173 33.2685C7.50753 33.2597 7.4956 33.1765 7.4956 33.0839C7.4956 32.9891 7.48425 32.9156 7.46948 32.9156C7.45244 32.9156 7.44336 32.6234 7.44336 32.0918C7.44336 31.56 7.45244 31.2681 7.46948 31.2681C7.48453 31.2681 7.4956 31.1852 7.4956 31.0719C7.4956 30.964 7.5064 30.8759 7.51917 30.8759C7.53224 30.8759 7.54899 30.82 7.55608 30.7516C7.56318 30.6834 7.58107 30.5804 7.59527 30.5227C7.67733 30.1953 7.69324 30.1436 7.71141 30.1436C7.72248 30.1436 7.73128 30.115 7.73128 30.0797C7.73128 30.0448 7.74321 30.0088 7.75741 30C7.77189 29.9909 7.78381 29.9551 7.78381 29.9199C7.78381 29.8847 7.79546 29.856 7.80994 29.856C7.82442 29.856 7.83606 29.8324 7.83606 29.8037C7.83606 29.7751 7.84799 29.7515 7.86218 29.7515C7.87667 29.7515 7.88831 29.7367 7.88831 29.7188C7.88831 29.6708 8.07231 29.3165 8.12853 29.256C8.15494 29.2276 8.17652 29.1907 8.17652 29.1739C8.17652 29.1569 8.19753 29.124 8.22309 29.1007C8.24864 29.0777 8.28982 29.0271 8.31424 28.9885C8.42242 28.8181 9.1394 28.104 9.20215 28.104C9.2155 28.104 9.25326 28.0776 9.28591 28.0452C9.31828 28.0129 9.38842 27.9569 9.44152 27.9211C9.49462 27.8851 9.53834 27.8468 9.53834 27.836C9.53834 27.8252 9.55112 27.8164 9.56646 27.8164C9.58207 27.8164 9.64596 27.7812 9.70872 27.738C9.77147 27.6948 9.83025 27.6596 9.83905 27.6596C9.84785 27.6596 9.86915 27.6474 9.88675 27.6327C9.93815 27.5886 10.2238 27.4242 10.2488 27.4242C10.2616 27.4242 10.2718 27.4126 10.2718 27.3981C10.2718 27.3836 10.2851 27.372 10.301 27.372C10.3249 27.372 10.6463 27.2249 10.8806 27.1071C10.9056 27.0946 10.9439 27.0843 10.9655 27.0843C10.9873 27.0843 11.0052 27.0724 11.0052 27.0582C11.0052 27.0437 11.0282 27.0321 11.0561 27.0321C11.0842 27.0321 11.1143 27.0202 11.1231 27.006C11.1319 26.9915 11.1608 26.9796 11.187 26.9796C11.2131 26.9796 11.2491 26.962 11.267 26.9404C11.2943 26.9077 11.2906 26.9012 11.244 26.9012C11.2137 26.9012 11.1887 26.8896 11.1887 26.8751C11.1887 26.8606 11.1708 26.849 11.1492 26.849C11.1276 26.849 11.11 26.8373 11.11 26.8228C11.11 26.8084 11.0924 26.7967 11.0708 26.7967C11.0492 26.7967 11.0314 26.7848 11.0314 26.7706C11.0314 26.7561 11.0138 26.7445 10.9922 26.7445C10.9706 26.7445 10.9527 26.7357 10.9527 26.7249C10.9524 26.7141 10.9047 26.6823 10.8468 26.6547C10.7886 26.6269 10.7065 26.571 10.6639 26.5304C10.6213 26.49 10.5773 26.4568 10.566 26.4568C10.5543 26.4568 10.4924 26.41 10.428 26.3529C10.3638 26.2958 10.3025 26.2487 10.292 26.2484C10.2658 26.2473 9.77346 25.7492 9.70872 25.6581C9.68004 25.6175 9.62978 25.5575 9.59741 25.5249C9.56504 25.4922 9.53863 25.4499 9.53863 25.4309C9.53863 25.4119 9.51506 25.3792 9.4861 25.3585C9.45742 25.3378 9.43385 25.3122 9.43385 25.3017C9.43385 25.2835 9.32879 25.1146 9.28222 25.0578C9.2703 25.0433 9.24361 24.9933 9.22288 24.9468C9.20215 24.8999 9.17631 24.8616 9.16552 24.8616C9.15445 24.8616 9.14564 24.838 9.14564 24.8093C9.14564 24.7807 9.134 24.7571 9.11952 24.7571C9.10504 24.7571 9.09339 24.7335 9.09339 24.7048C9.09339 24.6759 9.08289 24.6526 9.06983 24.6526C9.05705 24.6526 9.03859 24.6208 9.02894 24.5822C9.01929 24.5438 8.98862 24.4649 8.96051 24.4075C8.93268 24.3499 8.90996 24.2815 8.90996 24.2553C8.90996 24.2292 8.89804 24.2079 8.88384 24.2079C8.86936 24.2079 8.85772 24.1792 8.85772 24.144C8.85772 24.1091 8.84579 24.073 8.83131 24.0642C8.81711 24.0552 8.80518 24.02 8.80518 23.9856C8.80518 23.9515 8.79468 23.9169 8.7819 23.9089C8.76912 23.901 8.75237 23.8564 8.74442 23.8093C8.73675 23.7624 8.7041 23.583 8.6723 23.4103C8.62119 23.1352 8.61409 23.0099 8.61437 22.3906C8.61494 21.6759 8.63396 21.4843 8.75351 20.9916C8.76941 20.9269 8.78872 20.8414 8.79667 20.8017C8.80462 20.7619 8.82166 20.723 8.83443 20.7153C8.84721 20.7074 8.85772 20.673 8.85772 20.6387C8.85772 20.6043 8.86936 20.5691 8.88384 20.5603C8.89804 20.5512 8.90996 20.5177 8.90996 20.4853C8.90996 20.4532 8.9199 20.4158 8.93211 20.4019C8.94432 20.3882 8.9747 20.3243 8.99941 20.2596C9.07494 20.0605 9.10532 19.9981 9.12577 19.9981C9.13684 19.9981 9.14564 19.9745 9.14564 19.9458C9.14564 19.9169 9.15757 19.8933 9.17176 19.8933C9.18625 19.8933 9.19817 19.8825 9.19817 19.8689C9.19817 19.8402 9.35349 19.5821 9.40091 19.5321C9.41909 19.5131 9.43385 19.4895 9.43385 19.4796C9.43385 19.4699 9.46935 19.4208 9.51222 19.3705C9.55538 19.32 9.59087 19.2706 9.59087 19.2601C9.59116 19.2124 10.3712 18.429 10.4186 18.429C10.4282 18.429 10.4549 18.408 10.4782 18.3824C10.5015 18.3568 10.5836 18.2961 10.6605 18.2475C10.7375 18.1987 10.8141 18.1462 10.8309 18.1302C10.8752 18.0879 11.1881 17.9062 11.2168 17.9062C11.2301 17.9062 11.2409 17.8943 11.2409 17.8801C11.2409 17.8656 11.2636 17.8537 11.2912 17.8537C11.3187 17.8537 11.3454 17.8446 11.3502 17.8335C11.3616 17.8068 11.7435 17.6254 11.8727 17.5851C11.9286 17.5677 11.9744 17.5445 11.9744 17.5337C11.9744 17.5229 12.003 17.5138 12.0382 17.5138C12.0735 17.5138 12.1095 17.5022 12.1183 17.4877C12.1274 17.4735 12.1632 17.4615 12.1984 17.4615C12.2336 17.4615 12.2623 17.4499 12.2623 17.4354C12.2623 17.4209 12.2861 17.4093 12.3151 17.4093C12.3441 17.4093 12.3884 17.3985 12.4133 17.3852C12.4554 17.3633 12.6186 17.3153 12.8779 17.2494C12.9355 17.2347 13.019 17.2117 13.063 17.1983C13.1073 17.185 13.1863 17.1739 13.2382 17.1739C13.2905 17.1739 13.3404 17.1623 13.3492 17.1478C13.3583 17.1333 13.4154 17.1217 13.4767 17.1217C13.5378 17.1217 13.5988 17.1109 13.6125 17.0975C13.6264 17.0845 13.7141 17.0671 13.8078 17.0592C13.9012 17.0512 14.0781 17.0322 14.2005 17.0169C14.3229 17.0015 14.9947 16.9834 15.6935 16.9763C16.7913 16.9655 16.9682 16.9692 16.9966 17.0024Z" fill="url(#paint3_linear_380_9631)"/>
<path fill-rule="evenodd" clip-rule="evenodd" d="M24.1133 17.4431C24.136 17.4584 24.0352 17.4738 23.8472 17.4834C23.4735 17.5027 22.8829 17.5419 22.0805 17.6007C20.1186 17.7441 19.9182 17.7583 19.6121 17.7753L19.3525 17.7898V17.6035V17.4175L21.7144 17.4178C23.0138 17.4181 24.0931 17.4295 24.1133 17.4431Z" fill="black"/>
<path fill-rule="evenodd" clip-rule="evenodd" d="M26.7194 17.9511C26.7373 17.9678 26.6269 18.1797 26.5931 18.1936C26.5814 18.1984 26.5718 18.2177 26.5718 18.2367C26.5718 18.2558 26.5482 18.3168 26.5193 18.3722C26.2569 18.8742 26.189 18.9974 26.1708 19.0048C26.1592 19.0096 26.1495 19.0332 26.149 19.0573C26.1487 19.0812 26.1044 19.1769 26.0507 19.2697C25.9968 19.3626 25.9528 19.454 25.9528 19.4728C25.9528 19.4912 25.94 19.5066 25.9247 19.5066C25.909 19.5066 25.8965 19.5301 25.8965 19.5588C25.8965 19.5878 25.8849 19.6113 25.8704 19.6113C25.8562 19.6113 25.8389 19.6261 25.8327 19.644C25.8261 19.6619 25.8267 19.6414 25.8341 19.5983C25.8412 19.5551 25.8582 19.5156 25.8718 19.5108C25.8855 19.506 25.8965 19.4679 25.8965 19.4259C25.8965 19.3839 25.909 19.3495 25.9247 19.3495C25.94 19.3495 25.9528 19.32 25.9528 19.2842C25.9528 19.2482 25.9655 19.2186 25.9809 19.2186C25.9965 19.2186 26.009 19.1951 26.009 19.1658C26.009 19.1368 26.0203 19.0928 26.0343 19.0678C26.0485 19.0429 26.0825 18.9517 26.1106 18.8654C26.1385 18.7791 26.1714 18.697 26.1836 18.6834C26.1958 18.6698 26.2061 18.6314 26.2061 18.5982C26.2061 18.5653 26.2188 18.538 26.2342 18.538C26.2498 18.538 26.2623 18.5028 26.2623 18.4596C26.2623 18.4165 26.2751 18.381 26.2904 18.381C26.306 18.381 26.3185 18.3517 26.3185 18.3157C26.3185 18.2796 26.3313 18.2504 26.3466 18.2504C26.3622 18.2504 26.375 18.2214 26.375 18.1865C26.375 18.1513 26.3875 18.1152 26.4031 18.1064C26.4184 18.0973 26.4312 18.0624 26.4312 18.0283C26.4312 17.9945 26.4471 17.9607 26.4664 17.9533C26.5161 17.9349 26.6998 17.9332 26.7194 17.9511Z" fill="black"/>
<path fill-rule="evenodd" clip-rule="evenodd" d="M22.0405 21.689C22.0513 21.7867 22.072 22.1504 22.0868 22.4977C22.1015 22.845 22.1245 23.3896 22.1384 23.7079C22.1703 24.4516 22.2052 25.2966 22.2387 26.1411C22.2532 26.5099 22.2847 27.238 22.3085 27.7587C22.4641 31.1803 22.4988 32.1097 22.469 32.0802C22.4587 32.0705 22.4406 31.9345 22.4281 31.7781C22.4071 31.518 22.3619 31.0426 22.2935 30.3629C22.279 30.218 22.2554 29.9755 22.241 29.8236C22.2265 29.6717 22.2032 29.4289 22.189 29.2844C22.1646 29.034 22.1512 28.8974 22.0862 28.2321C22.0706 28.0731 22.0385 27.7533 22.0149 27.5219C21.9684 27.0642 21.9317 26.6951 21.8923 26.2856C21.8784 26.1411 21.8554 25.9043 21.8412 25.7594C21.8272 25.6149 21.8048 25.3781 21.7915 25.2336C21.7784 25.0888 21.7543 24.846 21.7384 24.6941C21.7097 24.4212 21.6509 23.8368 21.5981 23.3002C21.5833 23.1482 21.5652 22.9174 21.5581 22.7871C21.551 22.657 21.5342 22.5267 21.5209 22.4977C21.5075 22.4687 21.4893 22.3268 21.4811 22.1822C21.4726 22.0374 21.459 21.8273 21.451 21.7151L21.4365 21.5113H21.7287H22.0212L22.0405 21.689Z" fill="black"/>
<path d="M59.3687 17.7185C60.0615 17.8662 60.6181 18.2126 61.0383 18.7578C61.4585 19.2916 61.6687 19.905 61.6687 20.5978C61.6687 21.5973 61.3166 22.3924 60.6124 22.983C59.9195 23.5622 58.9484 23.8519 57.699 23.8519H52.1279V11.8919H57.5116C58.7269 11.8919 59.6753 12.1701 60.3568 12.7267C61.0497 13.2832 61.3961 14.0385 61.3961 14.9926C61.3961 15.6968 61.2087 16.2817 60.8339 16.7474C60.4704 17.2131 59.982 17.5368 59.3687 17.7185ZM55.0413 16.7304H56.9494C57.4265 16.7304 57.7899 16.6282 58.0398 16.4237C58.301 16.2079 58.4316 15.8956 58.4316 15.4867C58.4316 15.0778 58.301 14.7654 58.0398 14.5496C57.7899 14.3338 57.4265 14.2259 56.9494 14.2259H55.0413V16.7304ZM57.1879 21.5008C57.6763 21.5008 58.0511 21.3929 58.3124 21.1771C58.585 20.9499 58.7213 20.6262 58.7213 20.2059C58.7213 19.7857 58.5793 19.4563 58.2953 19.2178C58.0227 18.9793 57.6423 18.86 57.1539 18.86H55.0413V21.5008H57.1879ZM70.4118 21.7393H65.9481L65.2325 23.8519H62.1829L66.5103 11.8919H69.8836L74.2111 23.8519H71.1274L70.4118 21.7393ZM69.6622 19.4904L68.1799 15.1119L66.7148 19.4904H69.6622ZM78.0495 21.603H81.8658V23.8519H75.1362V11.8919H78.0495V21.603ZM90.3088 21.7393H85.8451L85.1295 23.8519H82.0799L86.4073 11.8919H89.7806L94.108 23.8519H91.0243L90.3088 21.7393ZM89.5592 19.4904L88.0769 15.1119L86.6118 19.4904H89.5592ZM99.3606 23.9711C98.486 23.9711 97.7023 23.8292 97.0095 23.5452C96.3166 23.2612 95.7601 22.841 95.3398 22.2845C94.9309 21.7279 94.7151 21.0578 94.6924 20.2741H97.7932C97.8386 20.7171 97.9919 21.0578 98.2532 21.2963C98.5144 21.5235 98.8551 21.6371 99.2754 21.6371C99.707 21.6371 100.048 21.5405 100.298 21.3474C100.547 21.143 100.672 20.8647 100.672 20.5126C100.672 20.2173 100.57 19.9731 100.366 19.78C100.173 19.5869 99.9285 19.4279 99.6332 19.303C99.3492 19.178 98.9403 19.0361 98.4065 18.8771C97.6341 18.6385 97.0038 18.4 96.5154 18.1615C96.027 17.923 95.6067 17.5709 95.2546 17.1052C94.9025 16.6395 94.7265 16.0319 94.7265 15.2822C94.7265 14.1692 95.1297 13.3003 95.9361 12.6756C96.7425 12.0395 97.7932 11.7215 99.088 11.7215C100.406 11.7215 101.467 12.0395 102.274 12.6756C103.08 13.3003 103.512 14.1748 103.569 15.2993H100.417C100.394 14.9131 100.252 14.6121 99.9909 14.3963C99.7297 14.1692 99.3946 14.0556 98.9858 14.0556C98.6337 14.0556 98.3497 14.1521 98.1339 14.3452C97.9181 14.5269 97.8102 14.7938 97.8102 15.1459C97.8102 15.5321 97.9919 15.8331 98.3554 16.0489C98.7188 16.2647 99.2867 16.4975 100.059 16.7474C100.831 17.0087 101.456 17.2585 101.933 17.4971C102.422 17.7356 102.842 18.082 103.194 18.5363C103.546 18.9906 103.722 19.5756 103.722 20.2911C103.722 20.9726 103.546 21.5916 103.194 22.1482C102.853 22.7047 102.353 23.1477 101.695 23.4771C101.036 23.8064 100.258 23.9711 99.3606 23.9711ZM112.568 21.7393H108.105L107.389 23.8519H104.339L108.667 11.8919H112.04L116.368 23.8519H113.284L112.568 21.7393ZM111.819 19.4904L110.336 15.1119L108.871 19.4904H111.819ZM127.651 11.8919V23.8519H124.738V18.9282H120.206V23.8519H117.293V11.8919H120.206V16.5771H124.738V11.8919H127.651ZM132.276 14.2259V16.6452H136.177V18.8941H132.276V21.5178H136.688V23.8519H129.363V11.8919H136.688V14.2259H132.276ZM145.429 17.7185C146.122 17.8662 146.678 18.2126 147.098 18.7578C147.519 19.2916 147.729 19.905 147.729 20.5978C147.729 21.5973 147.377 22.3924 146.672 22.983C145.98 23.5622 145.008 23.8519 143.759 23.8519H138.188V11.8919H143.572C144.787 11.8919 145.735 12.1701 146.417 12.7267C147.11 13.2832 147.456 14.0385 147.456 14.9926C147.456 15.6968 147.269 16.2817 146.894 16.7474C146.53 17.2131 146.042 17.5368 145.429 17.7185ZM141.101 16.7304H143.009C143.486 16.7304 143.85 16.6282 144.1 16.4237C144.361 16.2079 144.492 15.8956 144.492 15.4867C144.492 15.0778 144.361 14.7654 144.1 14.5496C143.85 14.3338 143.486 14.2259 143.009 14.2259H141.101V16.7304ZM143.248 21.5008C143.736 21.5008 144.111 21.3929 144.372 21.1771C144.645 20.9499 144.781 20.6262 144.781 20.2059C144.781 19.7857 144.639 19.4563 144.355 19.2178C144.083 18.9793 143.702 18.86 143.214 18.86H141.101V21.5008H143.248ZM158.805 17.7696C159.441 17.8832 159.98 18.2183 160.423 18.7748C160.866 19.3314 161.087 19.9617 161.087 20.6659C161.087 21.2679 160.928 21.8131 160.61 22.3015C160.304 22.7785 159.855 23.159 159.264 23.443C158.674 23.7156 157.987 23.8519 157.203 23.8519H152.467V12.0111H156.982C157.788 12.0111 158.481 12.1474 159.06 12.42C159.639 12.6926 160.077 13.0617 160.372 13.5274C160.667 13.9817 160.815 14.4929 160.815 15.0608C160.815 15.7422 160.633 16.3101 160.27 16.7645C159.906 17.2188 159.418 17.5538 158.805 17.7696ZM154.409 16.9859H156.811C157.447 16.9859 157.941 16.844 158.293 16.56C158.657 16.2647 158.839 15.8445 158.839 15.2993C158.839 14.7654 158.657 14.3509 158.293 14.0556C157.941 13.7489 157.447 13.5956 156.811 13.5956H154.409V16.9859ZM157.033 22.2674C157.691 22.2674 158.208 22.1084 158.583 21.7904C158.958 21.4724 159.145 21.0294 159.145 20.4615C159.145 19.8822 158.946 19.4222 158.549 19.0815C158.151 18.7408 157.623 18.5704 156.964 18.5704H154.409V22.2674H157.033ZM168.207 23.9711C167.105 23.9711 166.088 23.7156 165.157 23.2045C164.237 22.682 163.504 21.9608 162.959 21.0408C162.425 20.1094 162.159 19.0645 162.159 17.9059C162.159 16.7474 162.425 15.7082 162.959 14.7882C163.504 13.8682 164.237 13.1526 165.157 12.6415C166.088 12.119 167.105 11.8578 168.207 11.8578C169.32 11.8578 170.336 12.119 171.256 12.6415C172.188 13.1526 172.92 13.8682 173.454 14.7882C173.988 15.7082 174.255 16.7474 174.255 17.9059C174.255 19.0645 173.988 20.1094 173.454 21.0408C172.92 21.9608 172.188 22.682 171.256 23.2045C170.336 23.7156 169.32 23.9711 168.207 23.9711ZM168.207 22.2845C168.99 22.2845 169.689 22.1084 170.302 21.7563C170.916 21.3929 171.393 20.8817 171.733 20.223C172.085 19.5529 172.261 18.7805 172.261 17.9059C172.261 17.0314 172.085 16.2647 171.733 15.6059C171.393 14.9472 170.916 14.4417 170.302 14.0896C169.689 13.7375 168.99 13.5615 168.207 13.5615C167.423 13.5615 166.724 13.7375 166.111 14.0896C165.498 14.4417 165.015 14.9472 164.663 15.6059C164.322 16.2647 164.152 17.0314 164.152 17.9059C164.152 18.7805 164.322 19.5529 164.663 20.223C165.015 20.8817 165.498 21.3929 166.111 21.7563C166.724 22.1084 167.423 22.2845 168.207 22.2845ZM181.925 23.8519L179.199 19.1156H177.716V23.8519H175.774V12.0111H179.863C180.772 12.0111 181.538 12.1701 182.163 12.4882C182.799 12.8062 183.271 13.2321 183.577 13.7659C183.895 14.2998 184.054 14.8961 184.054 15.5548C184.054 16.3272 183.827 17.0314 183.373 17.6674C182.93 18.2921 182.243 18.718 181.311 18.9452L184.242 23.8519H181.925ZM177.716 17.5652H179.863C180.59 17.5652 181.135 17.3835 181.499 17.02C181.873 16.6566 182.061 16.1682 182.061 15.5548C182.061 14.9415 181.879 14.4645 181.516 14.1237C181.152 13.7716 180.601 13.5956 179.863 13.5956H177.716V17.5652ZM193.285 21.4326H188.328L187.476 23.8519H185.448L189.691 11.9941H191.94L196.182 23.8519H194.137L193.285 21.4326ZM192.74 19.8482L190.815 14.3452L188.873 19.8482H192.74ZM201.502 12.0111C202.763 12.0111 203.864 12.2553 204.807 12.7437C205.761 13.2208 206.494 13.9136 207.005 14.8222C207.527 15.7195 207.789 16.7701 207.789 17.9741C207.789 19.178 207.527 20.223 207.005 21.1089C206.494 21.9948 205.761 22.6763 204.807 23.1533C203.864 23.619 202.763 23.8519 201.502 23.8519H197.634V12.0111H201.502ZM201.502 22.2674C202.888 22.2674 203.95 21.8926 204.688 21.143C205.426 20.3934 205.795 19.3371 205.795 17.9741C205.795 16.5998 205.426 15.5264 204.688 14.7541C203.95 13.9817 202.888 13.5956 201.502 13.5956H199.577V22.2674H201.502ZM211.264 13.5785V17.0541H215.353V18.6385H211.264V22.2674H215.864V23.8519H209.322V11.9941H215.864V13.5785H211.264Z" fill="black"/>
<path d="M92.293 31.2658C92.172 31.0117 91.9971 30.816 91.7682 30.6786C91.5391 30.5369 91.2725 30.4662 90.9686 30.4662C90.6645 30.4662 90.3897 30.5369 90.1441 30.6786C89.9024 30.816 89.7107 31.0159 89.5693 31.2783C89.4319 31.5364 89.3632 31.8362 89.3632 32.1778C89.3632 32.5194 89.4319 32.8193 89.5693 33.0774C89.7107 33.3355 89.9024 33.5354 90.1441 33.6771C90.3897 33.8145 90.6645 33.8833 90.9686 33.8833C91.3934 33.8833 91.7433 33.7563 92.0181 33.5022C92.293 33.2481 92.4531 32.9045 92.4991 32.4714H90.7625V32.0092H93.1051V32.4465C93.0716 32.8045 92.9591 33.1336 92.7678 33.4335C92.5761 33.7291 92.3242 33.9645 92.0119 34.1394C91.6995 34.31 91.3517 34.3955 90.9686 34.3955C90.5646 34.3955 90.196 34.3018 89.8629 34.1144C89.5296 33.9227 89.2652 33.6584 89.0696 33.321C88.8779 32.9837 88.7822 32.6026 88.7822 32.1778C88.7822 31.7531 88.8779 31.372 89.0696 31.0347C89.2652 30.6931 89.5296 30.4287 89.8629 30.2413C90.196 30.0496 90.5646 29.9539 90.9686 29.9539C91.4309 29.9539 91.839 30.0684 92.193 30.2975C92.5511 30.5267 92.8115 30.8492 92.9739 31.2658H92.293ZM97.3987 34.358L96.3617 32.5777H95.6746V34.358H95.1061V30.0039H96.5116C96.8405 30.0039 97.1176 30.0601 97.3425 30.1726C97.5714 30.285 97.7423 30.4369 97.8547 30.6286C97.9672 30.8203 98.0234 31.0389 98.0234 31.2845C98.0234 31.5844 97.9359 31.8487 97.761 32.0779C97.5901 32.307 97.332 32.459 96.9864 32.5339L98.0796 34.358H97.3987ZM95.6746 32.1216H96.5116C96.8197 32.1216 97.0509 32.0467 97.2051 31.8967C97.359 31.7425 97.4362 31.5387 97.4362 31.2845C97.4362 31.0264 97.359 30.8265 97.2051 30.6848C97.0551 30.5431 96.824 30.4724 96.5116 30.4724H95.6746V32.1216ZM102.13 34.4017C101.726 34.4017 101.358 34.308 101.024 34.1206C100.691 33.929 100.427 33.6646 100.231 33.3273C100.039 32.9857 99.9435 32.6026 99.9435 32.1778C99.9435 31.7531 100.039 31.372 100.231 31.0347C100.427 30.6931 100.691 30.4287 101.024 30.2413C101.358 30.0496 101.726 29.9539 102.13 29.9539C102.538 29.9539 102.909 30.0496 103.242 30.2413C103.575 30.4287 103.838 30.6911 104.029 31.0284C104.221 31.3657 104.316 31.7488 104.316 32.1778C104.316 32.6069 104.221 32.9899 104.029 33.3273C103.838 33.6646 103.575 33.929 103.242 34.1206C102.909 34.308 102.538 34.4017 102.13 34.4017ZM102.13 33.9082C102.434 33.9082 102.707 33.8375 102.948 33.6958C103.194 33.5542 103.386 33.3523 103.523 33.0899C103.665 32.8275 103.735 32.5234 103.735 32.1778C103.735 31.828 103.665 31.5239 103.523 31.2658C103.386 31.0034 103.196 30.8015 102.954 30.6598C102.713 30.5182 102.438 30.4474 102.13 30.4474C101.822 30.4474 101.547 30.5182 101.305 30.6598C101.064 30.8015 100.872 31.0034 100.731 31.2658C100.593 31.5239 100.524 31.828 100.524 32.1778C100.524 32.5234 100.593 32.8275 100.731 33.0899C100.872 33.3523 101.064 33.5542 101.305 33.6958C101.551 33.8375 101.826 33.9082 102.13 33.9082ZM106.872 30.0039V32.7588C106.872 33.1461 106.966 33.4335 107.153 33.6209C107.345 33.8083 107.609 33.902 107.947 33.902C108.28 33.902 108.54 33.8083 108.727 33.6209C108.919 33.4335 109.015 33.1461 109.015 32.7588V30.0039H109.583V32.7526C109.583 33.1149 109.511 33.421 109.365 33.6709C109.219 33.9165 109.021 34.0999 108.771 34.2206C108.526 34.3413 108.249 34.4017 107.94 34.4017C107.632 34.4017 107.353 34.3413 107.103 34.2206C106.858 34.0999 106.662 33.9165 106.516 33.6709C106.375 33.421 106.304 33.1149 106.304 32.7526V30.0039H106.872ZM114.692 31.2783C114.692 31.6406 114.567 31.9424 114.317 32.1841C114.072 32.4215 113.695 32.5402 113.187 32.5402H112.35V34.358H111.781V30.0039H113.187C113.678 30.0039 114.051 30.1226 114.305 30.36C114.563 30.5974 114.692 30.9035 114.692 31.2783ZM113.187 32.0716C113.503 32.0716 113.736 32.0029 113.886 31.8655C114.036 31.7281 114.111 31.5324 114.111 31.2783C114.111 30.7411 113.803 30.4724 113.187 30.4724H112.35V32.0716H113.187ZM121.537 34.4017C121.133 34.4017 120.764 34.308 120.431 34.1206C120.098 33.929 119.834 33.6646 119.638 33.3273C119.446 32.9857 119.351 32.6026 119.351 32.1778C119.351 31.7531 119.446 31.372 119.638 31.0347C119.834 30.6931 120.098 30.4287 120.431 30.2413C120.764 30.0496 121.133 29.9539 121.537 29.9539C121.945 29.9539 122.316 30.0496 122.649 30.2413C122.982 30.4287 123.244 30.6911 123.436 31.0284C123.628 31.3657 123.723 31.7488 123.723 32.1778C123.723 32.6069 123.628 32.9899 123.436 33.3273C123.244 33.6646 122.982 33.929 122.649 34.1206C122.316 34.308 121.945 34.4017 121.537 34.4017ZM121.537 33.9082C121.841 33.9082 122.114 33.8375 122.355 33.6958C122.601 33.5542 122.793 33.3523 122.93 33.0899C123.072 32.8275 123.143 32.5234 123.143 32.1778C123.143 31.828 123.072 31.5239 122.93 31.2658C122.793 31.0034 122.603 30.8015 122.362 30.6598C122.12 30.5182 121.845 30.4474 121.537 30.4474C121.229 30.4474 120.954 30.5182 120.712 30.6598C120.471 30.8015 120.279 31.0034 120.138 31.2658C120 31.5239 119.932 31.828 119.932 32.1778C119.932 32.5234 120 32.8275 120.138 33.0899C120.279 33.3523 120.471 33.5542 120.712 33.6958C120.958 33.8375 121.233 33.9082 121.537 33.9082ZM128.184 30.0039V30.4662H126.292V31.9342H127.828V32.3965H126.292V34.358H125.723V30.0039H128.184ZM132.823 32.1778C132.823 31.7531 132.919 31.372 133.11 31.0347C133.302 30.6931 133.562 30.4267 133.891 30.2351C134.224 30.0434 134.593 29.9477 134.997 29.9477C135.472 29.9477 135.886 30.0621 136.24 30.2913C136.594 30.5204 136.852 30.8453 137.015 31.2658H136.334C136.213 31.0034 136.038 30.8015 135.809 30.6598C135.584 30.5182 135.313 30.4474 134.997 30.4474C134.693 30.4474 134.42 30.5182 134.179 30.6598C133.937 30.8015 133.748 31.0034 133.61 31.2658C133.473 31.5239 133.404 31.828 133.404 32.1778C133.404 32.5234 133.473 32.8275 133.61 33.0899C133.748 33.348 133.937 33.5479 134.179 33.6896C134.42 33.8313 134.693 33.902 134.997 33.902C135.313 33.902 135.584 33.8333 135.809 33.6958C136.038 33.5542 136.213 33.3523 136.334 33.0899H137.015C136.852 33.5064 136.594 33.829 136.24 34.0582C135.886 34.2831 135.472 34.3955 134.997 34.3955C134.593 34.3955 134.224 34.3018 133.891 34.1144C133.562 33.9227 133.302 33.6584 133.11 33.321C132.919 32.9837 132.823 32.6026 132.823 32.1778ZM141.084 34.4017C140.68 34.4017 140.312 34.308 139.979 34.1206C139.645 33.929 139.381 33.6646 139.185 33.3273C138.994 32.9857 138.898 32.6026 138.898 32.1778C138.898 31.7531 138.994 31.372 139.185 31.0347C139.381 30.6931 139.645 30.4287 139.979 30.2413C140.312 30.0496 140.68 29.9539 141.084 29.9539C141.492 29.9539 141.863 30.0496 142.196 30.2413C142.529 30.4287 142.792 30.6911 142.983 31.0284C143.175 31.3657 143.271 31.7488 143.271 32.1778C143.271 32.6069 143.175 32.9899 142.983 33.3273C142.792 33.6646 142.529 33.929 142.196 34.1206C141.863 34.308 141.492 34.4017 141.084 34.4017ZM141.084 33.9082C141.388 33.9082 141.661 33.8375 141.903 33.6958C142.148 33.5542 142.34 33.3523 142.477 33.0899C142.619 32.8275 142.69 32.5234 142.69 32.1778C142.69 31.828 142.619 31.5239 142.477 31.2658C142.34 31.0034 142.15 30.8015 141.909 30.6598C141.667 30.5182 141.392 30.4474 141.084 30.4474C140.776 30.4474 140.501 30.5182 140.26 30.6598C140.018 30.8015 139.826 31.0034 139.685 31.2658C139.547 31.5239 139.479 31.828 139.479 32.1778C139.479 32.5234 139.547 32.8275 139.685 33.0899C139.826 33.3523 140.018 33.5542 140.26 33.6958C140.505 33.8375 140.78 33.9082 141.084 33.9082ZM149.687 30.0352V34.358H149.119V31.1346L147.682 34.358H147.282L145.839 31.1284V34.358H145.271V30.0352H145.883L147.482 33.6084L149.081 30.0352H149.687ZM154.812 31.2783C154.812 31.6406 154.687 31.9424 154.437 32.1841C154.191 32.4215 153.814 32.5402 153.306 32.5402H152.469V34.358H151.9V30.0039H153.306C153.798 30.0039 154.17 30.1226 154.424 30.36C154.682 30.5974 154.812 30.9035 154.812 31.2783ZM153.306 32.0716C153.623 32.0716 153.856 32.0029 154.006 31.8655C154.156 31.7281 154.231 31.5324 154.231 31.2783C154.231 30.7411 153.922 30.4724 153.306 30.4724H152.469V32.0716H153.306ZM159.341 33.3897H157.442L157.092 34.358H156.493L158.067 30.0289H158.723L160.291 34.358H159.691L159.341 33.3897ZM159.179 32.9275L158.392 30.7286L157.604 32.9275H159.179ZM165.649 34.358H165.081L162.795 30.891V34.358H162.226V29.9977H162.795L165.081 33.4585V29.9977H165.649V34.358ZM168.436 30.0039V34.358H167.868V30.0039H168.436ZM171.223 30.4662V31.9217H172.81V32.3902H171.223V33.8895H172.997V34.358H170.655V29.9977H172.997V30.4662H171.223ZM176.487 34.4017C176.2 34.4017 175.942 34.3518 175.713 34.2518C175.488 34.1476 175.311 34.0062 175.182 33.827C175.053 33.6439 174.986 33.4335 174.982 33.1961H175.588C175.609 33.4002 175.692 33.5729 175.838 33.7146C175.987 33.852 176.204 33.9207 176.487 33.9207C176.758 33.9207 176.97 33.854 177.124 33.7208C177.283 33.5834 177.362 33.4085 177.362 33.1961C177.362 33.0294 177.316 32.8943 177.224 32.79C177.133 32.6858 177.018 32.6069 176.881 32.5527C176.743 32.4984 176.558 32.4402 176.325 32.3777C176.037 32.3028 175.806 32.2278 175.631 32.1529C175.461 32.0779 175.313 31.9612 175.188 31.803C175.067 31.6406 175.007 31.424 175.007 31.1533C175.007 30.916 175.067 30.7056 175.188 30.5224C175.309 30.3393 175.477 30.1976 175.694 30.0976C175.915 29.9977 176.167 29.9477 176.45 29.9477C176.858 29.9477 177.191 30.0496 177.449 30.2538C177.712 30.458 177.86 30.7286 177.893 31.0659H177.268C177.247 30.8992 177.16 30.7535 177.006 30.6286C176.852 30.4994 176.648 30.435 176.393 30.435C176.156 30.435 175.962 30.4974 175.813 30.6224C175.663 30.743 175.588 30.914 175.588 31.1346C175.588 31.2928 175.631 31.422 175.719 31.5219C175.811 31.6219 175.921 31.6988 176.05 31.7531C176.183 31.803 176.369 31.8612 176.606 31.928C176.893 32.0072 177.124 32.0861 177.299 32.1654C177.474 32.2403 177.624 32.359 177.749 32.5214C177.874 32.6796 177.936 32.8962 177.936 33.1711C177.936 33.3835 177.88 33.5834 177.768 33.7708C177.655 33.9582 177.489 34.1101 177.268 34.2268C177.047 34.3435 176.787 34.4017 176.487 34.4017Z" fill="black"/>
<path d="M82.9133 30.9506H51.6787V33.2222H82.9133V30.9506Z" fill="url(#paint4_linear_380_9631)"/>
<path d="M184 30.9506H215.234V33.2222H184V30.9506Z" fill="url(#paint5_linear_380_9631)"/>
<defs>
<linearGradient id="paint0_linear_380_9631" x1="23" y1="0" x2="23" y2="46" gradientUnits="userSpaceOnUse">
<stop stop-color="#FE7708"/>
<stop offset="1" stop-color="#D71807"/>
</linearGradient>
<linearGradient id="paint1_linear_380_9631" x1="23.0001" y1="3.2007" x2="23.0001" y2="16.5242" gradientUnits="userSpaceOnUse">
<stop stop-color="#FF7A08"/>
<stop offset="1" stop-color="#D81B07"/>
</linearGradient>
<linearGradient id="paint2_linear_380_9631" x1="31.2615" y1="16.9709" x2="31.2615" y2="37.8867" gradientUnits="userSpaceOnUse">
<stop stop-color="#E7AE37"/>
<stop offset="0.461538" stop-color="#F8C450"/>
<stop offset="1" stop-color="#B37D2B"/>
</linearGradient>
<linearGradient id="paint3_linear_380_9631" x1="14.4771" y1="16.9709" x2="14.4771" y2="37.8867" gradientUnits="userSpaceOnUse">
<stop stop-color="#E7AE37"/>
<stop offset="0.461538" stop-color="#F8C450"/>
<stop offset="1" stop-color="#B37D2B"/>
</linearGradient>
<linearGradient id="paint4_linear_380_9631" x1="51.6787" y1="32.0864" x2="82.9133" y2="32.0864" gradientUnits="userSpaceOnUse">
<stop stop-color="#F05508"/>
<stop offset="1" stop-color="#D71907"/>
</linearGradient>
<linearGradient id="paint5_linear_380_9631" x1="215.234" y1="32.0864" x2="184" y2="32.0864" gradientUnits="userSpaceOnUse">
<stop stop-color="#F05508"/>
<stop offset="1" stop-color="#D71907"/>
</linearGradient>
</defs>
</svg>
