<svg xmlns="http://www.w3.org/2000/svg" xmlns:xlink="http://www.w3.org/1999/xlink" viewBox="0 0 760.22 162"><defs><style>.cls-1{fill:url(#linear-gradient);}.cls-2{fill:#040404;}.cls-3,.cls-4,.cls-5,.cls-6,.cls-7{fill-rule:evenodd;}.cls-3{fill:url(#linear-gradient-2);}.cls-4{fill:#ffcb48;}.cls-5{fill:url(#linear-gradient-3);}.cls-6{fill:url(#linear-gradient-4);}.cls-8{fill:#fff;}.cls-9{fill:url(#linear-gradient-5);}.cls-10{fill:url(#linear-gradient-6);}</style><linearGradient id="linear-gradient" x1="81" y1="164" x2="81" y2="2" gradientTransform="matrix(1, 0, 0, -1, 0, 164)" gradientUnits="userSpaceOnUse"><stop offset="0" stop-color="#fe7708"/><stop offset="1" stop-color="#d71807"/></linearGradient><linearGradient id="linear-gradient-2" x1="81" y1="152.73" x2="81" y2="105.81" gradientTransform="matrix(1, 0, 0, -1, 0, 164)" gradientUnits="userSpaceOnUse"><stop offset="0" stop-color="#ff7a08"/><stop offset="1" stop-color="#d81b07"/></linearGradient><linearGradient id="linear-gradient-3" x1="110.1" y1="104.23" x2="110.1" y2="30.57" gradientTransform="matrix(1, 0, 0, -1, 0, 164)" gradientUnits="userSpaceOnUse"><stop offset="0" stop-color="#e7ae37"/><stop offset="0.46" stop-color="#f8c450"/><stop offset="1" stop-color="#b37d2b"/></linearGradient><linearGradient id="linear-gradient-4" x1="50.99" y1="104.23" x2="50.99" y2="30.57" xlink:href="#linear-gradient-3"/><linearGradient id="linear-gradient-5" x1="182" y1="51" x2="292" y2="51" gradientTransform="matrix(1, 0, 0, -1, 0, 164)" gradientUnits="userSpaceOnUse"><stop offset="0" stop-color="#f05508"/><stop offset="1" stop-color="#d71907"/></linearGradient><linearGradient id="linear-gradient-6" x1="-122" y1="332" x2="-12" y2="332" gradientTransform="translate(636 445) rotate(180)" xlink:href="#linear-gradient-5"/></defs><g id="Layer_2" data-name="Layer 2"><g id="Layer_1-2" data-name="Layer 1"><circle class="cls-1" cx="81" cy="81" r="81"/><circle class="cls-2" cx="81" cy="81" r="76.28"/><path class="cls-3" d="M79.54,11.3s.14.3.32.65a3,3,0,0,1,.33.84.39.39,0,0,0,.09.28,3.41,3.41,0,0,1,.1,1.15,3.41,3.41,0,0,1-.1,1.15.31.31,0,0,0-.09.24,5.62,5.62,0,0,1-.76,1.65s-.08,0-.08.11A20.91,20.91,0,0,1,77,19.65a.1.1,0,0,0-.09.1,3,3,0,0,1-.58.67,7.84,7.84,0,0,0-.81.89A7.81,7.81,0,0,1,75,22a1.41,1.41,0,0,0-.31.41.5.5,0,0,1-.16.23,1.89,1.89,0,0,0-.3.4c-.07.14-.16.25-.2.25a.09.09,0,0,0-.08.09,1.38,1.38,0,0,1-.22.41,20.26,20.26,0,0,0-1.36,2.82,2.33,2.33,0,0,1-.2.5.87.87,0,0,0-.08.44c0,.19,0,.35-.09.35s-.21.88-.21,2.58A8.71,8.71,0,0,0,72,33.32a.72.72,0,0,1,.08.35,1.26,1.26,0,0,0,.08.42,6.35,6.35,0,0,1,.54,1.27s-.12,0-.23-.15a.84.84,0,0,0-.25-.18,13.69,13.69,0,0,1-1.66-1.71c-.09-.14-.29-.54-.45-.87s-.32-.67-.36-.75a1,1,0,0,1-.09-.4c0-.12,0-.23-.08-.23s-.11-.15-.14-.34-.09-.58-.15-.85-.12-.94-.15-1.45c-.06-1-.15-1.15-.43-.7a3.17,3.17,0,0,1-.33.46l-.35.44c-.1.14-.25.33-.34.44a1.16,1.16,0,0,0-.22.36c0,.09-.09.17-.14.17s-.09.06-.09.14,0,.14-.09.14-.09.08-.09.17a.26.26,0,0,1-.08.21,5.08,5.08,0,0,0-.76,1.4c0,.08,0,.15-.09.15s-.1.08-.1.18a.29.29,0,0,1-.09.23.31.31,0,0,0-.09.24c0,.1,0,.18-.09.18s-.1.08-.1.18a1,1,0,0,1-.08.35,6.1,6.1,0,0,0-.24.71c-.08.3-.19.68-.24.84a2.11,2.11,0,0,0-.09.55.7.7,0,0,1-.08.36,1.18,1.18,0,0,0-.14.46c0,.2-.1.62-.15.92a19,19,0,0,0,0,8.06c0,.23.12.54.15.69a3.27,3.27,0,0,0,.13.46,6.66,6.66,0,0,1,.25.74,3.52,3.52,0,0,0,.24.64.36.36,0,0,1,.08.22,12.26,12.26,0,0,0,.65,1.43,8.32,8.32,0,0,0,1,1.88.14.14,0,0,1,.07.12.42.42,0,0,0,.1.2c0,.06.24.34.43.62s.37.52.4.55a2.65,2.65,0,0,1,.28.37,36.41,36.41,0,0,0,2.78,2.78c.11.1.49.36.83.6a3.91,3.91,0,0,1,.65.5.15.15,0,0,0,.12.08,2.78,2.78,0,0,1,.59.32,2.52,2.52,0,0,0,.61.32.1.1,0,0,1,.1.09s.08.09.18.09.19,0,.19.1.08.09.18.09.19,0,.19.09.08.09.18.09.19,0,.19,0-.17-.28-.37-.59a2.85,2.85,0,0,1-.37-.65s0-.1-.07-.1-.12-.09-.17-.21-.21-.43-.36-.71l-.34-.66a.78.78,0,0,1-.09-.3c0-.08,0-.14-.09-.14s-.09-.13-.09-.28,0-.28-.1-.28-.09-.1-.09-.22,0-.25-.08-.28-.11-.16-.13-.3-.12-.57-.21-1a18,18,0,0,1-.09-5.36l.07-.24.22.22a1,1,0,0,1,.22.27,10.16,10.16,0,0,0,1.93,1.89s.14.08.21.19a.41.41,0,0,0,.24.18.77.77,0,0,1,.3.19c.39.36.42.23.4-1.44A12.57,12.57,0,0,1,76.48,45a4.58,4.58,0,0,1,.38-1.19.46.46,0,0,0,.07-.25c0-.09,0-.17.1-.17s.09-.06.09-.13a3.79,3.79,0,0,1,.62-1.14.38.38,0,0,0,.12-.21,5.51,5.51,0,0,1,.74-.8c.84-.81.91-.87,1.21-1s.2-.09.15.08a11.34,11.34,0,0,0,0,2.27,4,4,0,0,0,.35,1.19.44.44,0,0,1,.08.25c0,.09,0,.16.09.16s.09.09.09.19,0,.18.09.18.1.09.1.19,0,.18.07.19a2.71,2.71,0,0,1,.44.49,4.83,4.83,0,0,0,2.6,1.57l.73.11a.66.66,0,0,0,.46,0,.61.61,0,0,1,.37-.1c.32,0,1-.2,1-.3s.08-.07.17-.07a.4.4,0,0,0,.29-.14.45.45,0,0,1,.23-.14c.06,0,.16-.08.24-.18.19-.27.46-.24.46,0,0,.12,0,.22.1.22s.09.11.09.23a.39.39,0,0,0,.08.27,12.29,12.29,0,0,1,.57,2.94,14.2,14.2,0,0,1-.57,3.14.6.6,0,0,0-.08.3c0,.12,0,.21-.09.21s-.1.11-.1.24,0,.23-.09.23-.09.08-.09.18,0,.18-.09.18-.1.08-.1.18a.31.31,0,0,1-.08.23.63.63,0,0,0-.15.33c0,.15-.1.28-.15.28s-.08.08-.08.18,0,.19-.1.19-.09.06-.09.13,0,.14-.09.14-.1.08-.1.19,0,.18-.08.18-.12.08-.15.18a.87.87,0,0,1-.17.3,5.41,5.41,0,0,0-.62,1s-.08.13-.18.21c-.28.2-.24.38.07.31.14,0,.27-.1.28-.14S85.86,58,86,58a.32.32,0,0,0,.23-.09.3.3,0,0,1,.24-.1c.09,0,.17,0,.17-.06a2.39,2.39,0,0,1,.61-.34,1.77,1.77,0,0,0,.6-.35S87.9,57,88,57s.19-.05.19-.1.06-.09.14-.09.13,0,.13-.09.07-.09.15-.09a.45.45,0,0,0,.25-.09c.07-.06.35-.25.63-.43a5.17,5.17,0,0,0,.66-.51.48.48,0,0,1,.27-.17.53.53,0,0,0,.27-.16,6,6,0,0,1,.61-.53,16.43,16.43,0,0,0,1.82-1.78,2.67,2.67,0,0,1,.37-.47,2.49,2.49,0,0,0,.37-.49,1.26,1.26,0,0,1,.26-.34,3.29,3.29,0,0,0,.44-.64,1,1,0,0,1,.25-.38s.07-.06.07-.13,0-.14.09-.14a.12.12,0,0,0,.1-.13.2.2,0,0,1,.07-.17,6.81,6.81,0,0,0,.76-1.5c0-.08,0-.14.1-.14s.09-.08.09-.18,0-.19.09-.19.1-.1.1-.23,0-.23.09-.23.09-.09.09-.21a.6.6,0,0,1,.08-.3,4.62,4.62,0,0,0,.33-.91c.14-.46.29-.93.34-1a1.63,1.63,0,0,0,.09-.53.59.59,0,0,1,.09-.37.92.92,0,0,0,.1-.51c0-.25,0-.45.08-.45.28,0,.28-5.19,0-5.48a1,1,0,0,1-.08-.48.73.73,0,0,0-.1-.44.39.39,0,0,1-.09-.28,1.56,1.56,0,0,0-.08-.43c0-.12-.13-.38-.2-.58s-.17-.5-.23-.65l-.25-.57a.66.66,0,0,0-.19-.3s-.07-.08-.07-.19,0-.18-.07-.18-.15-.17-.24-.38a5.21,5.21,0,0,0-.45-.78,2.36,2.36,0,0,1-.27-.49.1.1,0,0,0-.09-.1s-.09-.06-.09-.14,0-.13-.08-.13-.14-.13-.2-.28-.15-.28-.19-.28-.1-.08-.13-.17a1.55,1.55,0,0,0-.34-.46,1.28,1.28,0,0,1-.27-.36,1.73,1.73,0,0,0-.28-.39,1.73,1.73,0,0,1-.28-.39.79.79,0,0,0-.21-.27c-.12-.12-.5-.63-.86-1.13a9.8,9.8,0,0,0-.71-1s-.08-.09-.08-.16,0-.13-.09-.13-.09-.08-.09-.18,0-.19-.09-.19a1,1,0,0,1-.26-.41c-.09-.23-.2-.41-.24-.41s-.07-.09-.07-.19,0-.18-.09-.18-.09-.09-.09-.19,0-.18-.1-.18-.09-.1-.09-.23,0-.23-.09-.23-.09-.1-.09-.21a.46.46,0,0,0-.09-.3,4.91,4.91,0,0,1-.24-.92,9.27,9.27,0,0,1-.11-2.37l0-1.53-.3.27c-.48.43-1.3,1.24-1.5,1.48a5.48,5.48,0,0,0-1.07,1.7c0,.07,0,.13-.09.13s-.1.08-.1.18,0,.19-.09.19-.09.08-.09.18a1.05,1.05,0,0,1-.08.35A6.92,6.92,0,0,0,85.91,25a15.44,15.44,0,0,0-.11,3.36c0,1.42.08,2.79.13,3.06s0,.48,0,.48a1.69,1.69,0,0,1-.73-.39s0-.07-.1-.07a.4.4,0,0,1-.22-.12L84.5,31a3.18,3.18,0,0,1-.49-.54l-.28-.37A6.3,6.3,0,0,1,83.25,29a1.16,1.16,0,0,1-.09-.39c0-.1,0-.18-.09-.18s-.09-.2-.09-.46,0-.46-.09-.46a4.15,4.15,0,0,1-.1-1.38,5.1,5.1,0,0,1,.1-1.43.93.93,0,0,0,.09-.5,1,1,0,0,1,.09-.51.69.69,0,0,0,.09-.42c0-.2,0-.36.1-.36s.09-.11.09-.24a1.61,1.61,0,0,1,.12-.52,5.73,5.73,0,0,0,.24-.85,8.61,8.61,0,0,1,.22-.88,15.68,15.68,0,0,0,0-3.7.49.49,0,0,1-.1-.3,2.88,2.88,0,0,0-.2-.7c-.11-.27-.21-.57-.24-.66s-.09-.16-.13-.16-.09-.09-.09-.19,0-.18-.07-.18-.14-.12-.21-.26A1.23,1.23,0,0,0,82.7,14l-.32-.42a6.82,6.82,0,0,0-.52-.6,7,7,0,0,0-1-.83.54.54,0,0,1-.22-.16C80.38,11.64,79.54,11.15,79.54,11.3Z"/><path class="cls-4" d="M63.19,59.87a.19.19,0,0,0,0,.2.44.44,0,0,1,.11.27c0,.09,0,.16.09.16s.09.1.09.23,0,.23.09.23.09,0,.09.12a2.19,2.19,0,0,0,.18.49,3.59,3.59,0,0,1,.24.61c0,.14.1.28.15.3a.33.33,0,0,1,.08.23c0,.1,0,.18.09.18s.1.06.1.14a.75.75,0,0,0,.08.3c.12.23.47,1,.47,1.07s.42,1,.56,1.27a.71.71,0,0,1,.08.29c0,.08,0,.14.1.14s.09.07.09.14a4.37,4.37,0,0,0,.3.8c.17.37.36.85.43,1.06s.16.39.21.39.07.06.07.14a.73.73,0,0,0,.09.3c.08.15.16.33.52,1.19.15.36.26.61.58,1.33a2.3,2.3,0,0,1,.2.58c0,.07,0,.14.09.14s.09.06.09.13a.69.69,0,0,0,.09.3l.23.5c.16.38.35.47.86.44.19,0,1,0,1.89,0h1.55v.31a.73.73,0,0,0,.08.39,2.35,2.35,0,0,1,.13.68c0,.33.1.89.14,1.24.13,1,.38,3,.48,4,0,.46.14,1.2.19,1.65s.11,1.18.14,1.61a3.07,3.07,0,0,0,.13.87,3.22,3.22,0,0,1,.09,1,3.39,3.39,0,0,0,.08,1,3.84,3.84,0,0,1,.13,1c0,.52.12,1.62.2,2.46.16,1.58.28,2.88.43,4.5,0,.53.11,1.37.13,1.88a5.31,5.31,0,0,0,.14,1.1,6.69,6.69,0,0,1,.13,1.1c0,1,.13,2.16.37,4.83.08.93.19,2.19.24,2.8s.14,1.55.18,2.11.12,1.52.15,2.14a4.45,4.45,0,0,0,.13,1.12,3.9,3.9,0,0,1,.12,1.08c0,1.18.15,2.59.38,5.35.08,1,.19,2.33.24,3,.1,1.27.22,2.78.37,4.6.13,1.62.38,5.11.5,6.89a7.27,7.27,0,0,0,.15,1.17c.08.14.27.16,2,.16s1.93,0,2-.16a18.08,18.08,0,0,0,.27-2.74,4.91,4.91,0,0,1,.14-1,4.49,4.49,0,0,0,.12-.91c0-.77.13-1.64.38-4.14.09-.81.19-1.9.25-2.43s.13-1.34.18-1.79.11-1.2.13-1.66a5.93,5.93,0,0,1,.13-1,4.38,4.38,0,0,0,.14-1c.05-.91.16-2.12.37-4.18.26-2.43.33-3.17.38-4.09a3.44,3.44,0,0,1,.14-1,3,3,0,0,0,.08-.92,2.86,2.86,0,0,1,.09-.92,3.35,3.35,0,0,0,.13-.92c0-.45.1-1.2.14-1.65s.13-1.34.18-2,.13-1.32.16-1.52.1-.82.15-1.38c.21-2.24.32-3.38.53-5.37.18-1.69.27-2.54.36-3.63.06-.6.12-1.27.15-1.47s.1-.86.15-1.47.14-1.47.19-1.93.11-1.2.13-1.65a5.93,5.93,0,0,1,.13-1,4.1,4.1,0,0,0,.14-.92c0-.76.11-1.51.37-4,.08-.81.17-1.81.2-2.23a2.61,2.61,0,0,1,.14-.81,8.52,8.52,0,0,1,1.31,0c1.28,0,1.53,0,1.53-.24s0-.12.1-.12.09-.09.09-.19,0-.18.09-.18.09-.08.09-.18,0-.19.07-.2A14.13,14.13,0,0,0,92.67,71c.38-.76.73-1.39.76-1.41s.07-.11.07-.21,0-.17.1-.17.09-.08.09-.19,0-.18.09-.18.09-.08.09-.18,0-.19.07-.2A7.8,7.8,0,0,0,94.7,67a.1.1,0,0,1,.09-.11c.06,0,.1-.08.1-.18s0-.19.09-.19.09-.06.09-.14,0-.13.09-.13.1-.09.1-.19,0-.18.09-.18.09-.07.09-.15a.47.47,0,0,1,.14-.28.49.49,0,0,0,.14-.31c0-.1,0-.18.09-.18s.09-.08.09-.18,0-.19.09-.19.1-.06.1-.14,0-.13.09-.13.09,0,.09-.12a11.13,11.13,0,0,1,1-1.89s.07-.11.07-.2,0-.18.09-.18.09-.08.09-.18,0-.19.07-.2a6.8,6.8,0,0,0,.76-1.58c0-.14-1.26-.15-17.52-.15C68.26,59.77,63.24,59.8,63.19,59.87Z"/><path class="cls-5" d="M101.27,59.88a.52.52,0,0,0-.11.28c0,.07,0,.14-.09.14s-.1.08-.1.17,0,.19-.07.21a12.8,12.8,0,0,0-.94,1.89.16.16,0,0,1-.07.14,4.08,4.08,0,0,0-.43.77,7.49,7.49,0,0,1-.41.78,3.9,3.9,0,0,0-.28.5,1.87,1.87,0,0,1-.3.5.11.11,0,0,0-.06.13,7.71,7.71,0,0,1-.76,1.52s-.07.11-.07.21,0,.18-.09.18-.09.08-.09.18-.05.18-.1.18-.09.08-.09.18,0,.19-.07.21a11.89,11.89,0,0,0-.94,1.89c0,.07,0,.12-.07.12a2.23,2.23,0,0,0-.34.58,3.65,3.65,0,0,1-.34.6s-.07.11-.07.21,0,.18-.08.18-.13.14-.2.32-.16.32-.2.32-.07.08-.07.18,0,.19-.1.19-.09.06-.09.13a1.77,1.77,0,0,1-.23.53c-.45.79-1,.72,5.85.72,3.89,0,6.27,0,6.63.1a21.4,21.4,0,0,1,2.85.65.42.42,0,0,0,.28.08c.12,0,.22,0,.22.09s.1.09.23.09.23,0,.23.07.13.13.3.2a4.41,4.41,0,0,1,1.06.68.16.16,0,0,0,.12.06,9.32,9.32,0,0,1,1.3,1.29,7.16,7.16,0,0,1,1.09,2.49c.25,1,.11,4-.22,4.37a.71.71,0,0,0-.07.35c0,.14,0,.25-.07.25s-.13.14-.2.3a5.85,5.85,0,0,1-1.84,2.15,4.38,4.38,0,0,0-.46.32,1.56,1.56,0,0,1-.35.19c-.16.07-.29.16-.29.2s-.09.07-.19.07-.18,0-.18.09-.07.09-.17.09a.39.39,0,0,0-.25.08,5.85,5.85,0,0,1-.91.32l-1.11.34a2.19,2.19,0,0,1-.57.09.51.51,0,0,0-.34.09,1.43,1.43,0,0,1-.65.09c-.33,0-.59,0-.59.1s-2.78.09-8.16.09H89.78l0,.21c-.09.37-.41,3.61-.48,4.81a2.89,2.89,0,0,1-.13.91,3.08,3.08,0,0,0-.08.93,2.81,2.81,0,0,1-.09.92,3.73,3.73,0,0,0-.13,1c0,.48-.09,1.24-.14,1.7-.13,1.23-.28,2.74-.28,2.92s.62.16,10.06.2c10,0,11.31.07,12.87.38l1.13.2a.83.83,0,0,1,.39.13s.17.08.32.08.29,0,.32.1a.23.23,0,0,0,.19.09,9.46,9.46,0,0,1,2,1,7.65,7.65,0,0,1,1.63,1.55l.39.47a.45.45,0,0,1,.12.26c0,.08,0,.15.09.15s.09.08.09.18,0,.18.07.18a9.5,9.5,0,0,1,.63,2,11.81,11.81,0,0,1-.15,3.45c0,.1-.1.31-.14.46a4.24,4.24,0,0,1-.23.64,1.77,1.77,0,0,0-.18.49c0,.06,0,.12-.09.12s-.09.08-.09.18,0,.18-.1.18a.1.1,0,0,0-.09.11,8.43,8.43,0,0,1-1.55,1.55.1.1,0,0,0-.1.09c0,.06-.06.1-.14.1s-.14,0-.14.09-.06.09-.13.09-.14,0-.14.09-.06.09-.13.09a2.09,2.09,0,0,0-.53.23,1.59,1.59,0,0,1-.56.23c-.08,0-.16,0-.16.1s-.1.09-.23.09-.23,0-.23.09-.12.09-.27.09-.27,0-.27.09-.16.1-.35.12l-1,.2c-1.7.39-3,.43-13.45.4l-10,0,0-7.09c0-3.9-.06-7-.07-6.81a.66.66,0,0,1-.11.36,4.27,4.27,0,0,0-.13,1c0,.48-.07,1.24-.1,1.7a4.68,4.68,0,0,1-.14,1,4.09,4.09,0,0,0-.13,1c0,.43-.08,1.16-.13,1.61s-.13,1.33-.18,1.94c-.13,1.42-.27,2.85-.39,3.77s-.16,1.58-.23,2.72a4,4,0,0,1-.13,1,4.18,4.18,0,0,0-.13,1c0,.43-.09,1.16-.13,1.61s-.13,1.35-.19,2-.12,1.32-.15,1.52c0,.38-.17,1.57-.33,3.23,0,.5-.11,1.37-.14,1.91l0,1,12.46-.05c6.91,0,12.93-.09,13.51-.14l1.79-.15a4.1,4.1,0,0,0,.92-.14,3.13,3.13,0,0,1,.69-.12c.27,0,.73-.09,1-.14,1.3-.24,1.55-.29,2.15-.43.36-.08.78-.17.94-.19s.33-.09.35-.14a.52.52,0,0,1,.32-.08.47.47,0,0,0,.32-.09.47.47,0,0,1,.32-.09.45.45,0,0,0,.32-.09.29.29,0,0,1,.24-.1,1,1,0,0,0,.34-.08,9.65,9.65,0,0,1,1.56-.56.1.1,0,0,0,.11-.09c0-.05.1-.1.23-.1s.23,0,.23-.09.08-.09.18-.09.19,0,.19-.09.07-.09.16-.1a3,3,0,0,0,.75-.32,4.18,4.18,0,0,1,.71-.32c.07,0,.12,0,.12-.09s.06-.09.14-.09.13,0,.13-.1.07-.09.15-.09a.48.48,0,0,0,.25-.09,12,12,0,0,1,1.41-.92c.05,0,.14-.08.21-.18s.17-.19.21-.19a.4.4,0,0,0,.2-.11c.07-.07.32-.29.56-.49a19.52,19.52,0,0,0,2.62-2.73,2.79,2.79,0,0,1,.33-.44,1.07,1.07,0,0,0,.21-.31.69.69,0,0,1,.19-.27.66.66,0,0,0,.18-.32c0-.06,0-.12.07-.12s.13-.13.2-.3a1.52,1.52,0,0,1,.18-.34,6.51,6.51,0,0,0,.32-.6c.14-.31.3-.63.34-.71a1,1,0,0,0,.08-.3c0-.08,0-.14.09-.14s.09-.1.09-.23.05-.23.1-.23.09-.1.09-.23a.42.42,0,0,1,.07-.27A2.57,2.57,0,0,0,134,119a8,8,0,0,1,.25-.93,2,2,0,0,0,.08-.53.57.57,0,0,1,.09-.37,1.43,1.43,0,0,0,.09-.65c0-.33,0-.59.1-.59a20,20,0,0,0,.09-2.9,20,20,0,0,0-.09-2.9c-.06,0-.1-.29-.1-.69s0-.69-.08-.69-.1-.2-.13-.44a5.06,5.06,0,0,0-.14-.81c-.28-1.15-.34-1.33-.4-1.33s-.07-.1-.07-.23a.39.39,0,0,0-.09-.28.39.39,0,0,1-.1-.28c0-.12,0-.23-.09-.23s-.09-.08-.09-.18,0-.18-.09-.18-.09,0-.09-.12a7.45,7.45,0,0,0-.84-1.63.56.56,0,0,1-.17-.29.51.51,0,0,0-.16-.26,1.85,1.85,0,0,1-.32-.39A20.61,20.61,0,0,0,128.58,99a.85.85,0,0,1-.3-.21,4.42,4.42,0,0,0-.54-.44c-.19-.13-.34-.26-.34-.3s-.05-.07-.1-.07a1.78,1.78,0,0,1-.5-.27,2.33,2.33,0,0,0-.45-.28.35.35,0,0,1-.17-.09,7.72,7.72,0,0,0-1.27-.74.09.09,0,0,1-.08-.09.1.1,0,0,0-.1-.09,20.67,20.67,0,0,1-2-.94.9.9,0,0,0-.3-.08c-.08,0-.14,0-.14-.09s-.08-.09-.18-.09a.29.29,0,0,1-.23-.09.31.31,0,0,0-.23-.09.44.44,0,0,1-.28-.14c-.09-.12-.08-.14.08-.14s.2,0,.2-.09.06-.1.14-.1.13,0,.13-.09.06-.09.14-.09.14,0,.14-.09.06-.09.13-.09.14,0,.14-.07a1,1,0,0,1,.38-.25,2.9,2.9,0,0,0,.64-.44,1.12,1.12,0,0,1,.34-.26,2.07,2.07,0,0,0,.48-.36,2.57,2.57,0,0,1,.48-.37,22.66,22.66,0,0,0,2-2.08,6.08,6.08,0,0,1,.39-.47.71.71,0,0,0,.21-.33.4.4,0,0,1,.18-.25c.1-.08.18-.17.18-.2a4.51,4.51,0,0,1,.54-.86,2.63,2.63,0,0,0,.2-.39c.08-.17.17-.3.2-.3s.07-.09.07-.19,0-.18.1-.18.09-.08.09-.19,0-.18.08-.18.11-.11.14-.25a4.7,4.7,0,0,1,.24-.61,1.84,1.84,0,0,0,.18-.54c0-.09,0-.17.09-.17s.09-.1.09-.22,0-.25.1-.28a.39.39,0,0,0,.09-.28c0-.12,0-.24.08-.27a.76.76,0,0,0,.13-.35c0-.17.14-.8.25-1.4a15.83,15.83,0,0,0,.2-3.6,16.39,16.39,0,0,0-.48-4.92c-.06-.23-.13-.53-.15-.67a.6.6,0,0,0-.14-.31.39.39,0,0,1-.08-.27.36.36,0,0,0-.09-.27.36.36,0,0,1-.09-.27.48.48,0,0,0-.08-.29,2.45,2.45,0,0,1-.23-.5c-.27-.7-.38-.92-.45-.92s-.07-.08-.07-.19,0-.18-.09-.18a.09.09,0,0,1-.09-.09,5.75,5.75,0,0,0-.71-1.18.47.47,0,0,1-.12-.19,1.82,1.82,0,0,0-.27-.38,1.73,1.73,0,0,1-.28-.39,23.61,23.61,0,0,0-2.9-2.93.61.61,0,0,1-.21-.16,3.92,3.92,0,0,0-.63-.48,6,6,0,0,1-.6-.41,8.21,8.21,0,0,0-1.35-.79.09.09,0,0,1-.09-.09s-.08-.09-.17-.09a.26.26,0,0,1-.21-.08,10.26,10.26,0,0,0-1.83-.87c-.2-.06-.35-.14-.35-.18s-.11-.07-.23-.07a.39.39,0,0,1-.28-.09.39.39,0,0,0-.28-.1c-.12,0-.22,0-.22-.09s-.09-.09-.19-.09a.94.94,0,0,1-.34-.08,12,12,0,0,0-1.63-.48l-.65-.18a2.36,2.36,0,0,0-.61-.09.6.6,0,0,1-.39-.09.76.76,0,0,0-.45-.09.9.9,0,0,1-.47-.09,2.45,2.45,0,0,0-.69-.13l-1.37-.15c-.43,0-2.79-.12-5.23-.14C102,59.75,101.37,59.76,101.27,59.88Z"/><path class="cls-6" d="M59.86,59.88a.52.52,0,0,1,.11.28c0,.07,0,.14.1.14s.09.08.09.17,0,.19.07.21a11.89,11.89,0,0,1,.94,1.89.19.19,0,0,0,.07.14,3.84,3.84,0,0,1,.44.77,7.49,7.49,0,0,0,.41.78,2.91,2.91,0,0,1,.28.5,2.2,2.2,0,0,0,.3.5s.07.07.07.13a7.71,7.71,0,0,0,.76,1.52s.07.11.07.21,0,.18.09.18.1.08.1.18,0,.18.09.18.09.08.09.18,0,.19.07.21A11.1,11.1,0,0,1,65,69.94c0,.07,0,.12.07.12a1.88,1.88,0,0,1,.35.58,3.65,3.65,0,0,0,.34.6s.07.11.07.21,0,.18.08.18.13.14.2.32.16.32.2.32.08.08.08.18,0,.19.09.19.09.06.09.13a2.09,2.09,0,0,0,.23.53c.46.79,1,.72-5.87.72-3.92,0-6.31,0-6.67.1a21.59,21.59,0,0,0-2.87.65.41.41,0,0,1-.27.08c-.13,0-.23,0-.23.09s-.1.09-.23.09-.23,0-.23.07-.14.13-.3.2A4.31,4.31,0,0,0,49,76a.16.16,0,0,1-.12.06,8.79,8.79,0,0,0-1.3,1.29,7,7,0,0,0-1.1,2.49c-.25,1-.11,4,.22,4.37a.71.71,0,0,1,.07.35c0,.14,0,.25.07.25s.13.14.2.3a5.88,5.88,0,0,0,1.85,2.15l.47.32a1.41,1.41,0,0,0,.34.19c.17.07.3.16.3.2s.08.07.19.07.18,0,.18.09.08.09.17.09a.39.39,0,0,1,.25.08,5.72,5.72,0,0,0,.92.32l1.11.34a2.26,2.26,0,0,0,.57.09.55.55,0,0,1,.35.09,1.43,1.43,0,0,0,.65.09c.33,0,.59,0,.59.1s2.8.09,8.21.09h8.21l0,.21c.09.37.41,3.61.48,4.81a3.71,3.71,0,0,0,.13.91,2.94,2.94,0,0,1,.09.93,3.32,3.32,0,0,0,.08.92,3.55,3.55,0,0,1,.14,1c0,.48.09,1.24.14,1.7.13,1.23.28,2.74.28,2.92s-.63.16-10.12.2c-10.08,0-11.36.07-12.94.38l-1.13.2a.83.83,0,0,0-.39.13s-.17.08-.32.08-.29,0-.32.1a.25.25,0,0,1-.19.09,9.34,9.34,0,0,0-2.05,1,8,8,0,0,0-1.64,1.55l-.39.47a.45.45,0,0,0-.12.26c0,.08,0,.15-.09.15s-.09.08-.09.18,0,.18-.07.18a9.5,9.5,0,0,0-.63,2,11.48,11.48,0,0,0,.15,3.45c0,.1.1.31.14.46a3.36,3.36,0,0,0,.23.64,1.77,1.77,0,0,1,.18.49c0,.06,0,.12.09.12s.09.08.09.18,0,.18.1.18a.1.1,0,0,1,.09.11,8.48,8.48,0,0,0,1.56,1.55.1.1,0,0,1,.1.09c0,.06.06.1.14.1s.14,0,.14.09.06.09.14.09.13,0,.13.09.06.09.13.09a2.09,2.09,0,0,1,.53.23,1.69,1.69,0,0,0,.57.23c.09,0,.16,0,.16.1s.1.09.23.09.23,0,.23.09.12.09.28.09.27,0,.27.09.16.1.35.12l1,.2c1.7.39,3,.43,13.51.4l10,0,0-7.09c0-3.9,0-7,.07-6.81a.66.66,0,0,0,.11.36,4.27,4.27,0,0,1,.13,1c0,.48.07,1.24.1,1.7a4.68,4.68,0,0,0,.14,1,4.09,4.09,0,0,1,.13,1c0,.43.09,1.16.13,1.61s.13,1.33.19,1.94c.12,1.42.27,2.85.38,3.77s.17,1.58.24,2.72a4,4,0,0,0,.13,1,4.18,4.18,0,0,1,.13,1c0,.43.08,1.16.13,1.61s.13,1.35.19,2,.12,1.32.15,1.52c.05.38.17,1.57.33,3.23.05.5.11,1.37.14,1.91l.05,1-12.53-.05c-6.95,0-13-.09-13.59-.14l-1.8-.15a4.21,4.21,0,0,1-.92-.14,3.13,3.13,0,0,0-.69-.12c-.28,0-.74-.09-1-.14-1.3-.24-1.56-.29-2.16-.43-.36-.08-.78-.17-.95-.19a.65.65,0,0,1-.35-.14.52.52,0,0,0-.32-.08.47.47,0,0,1-.32-.09.47.47,0,0,0-.32-.09.5.5,0,0,1-.33-.09.27.27,0,0,0-.23-.1,1,1,0,0,1-.34-.08,10.08,10.08,0,0,0-1.57-.56.1.1,0,0,1-.11-.09c0-.05-.11-.1-.24-.1s-.23,0-.23-.09-.08-.09-.18-.09-.19,0-.19-.09-.07-.09-.16-.1a2.76,2.76,0,0,1-.75-.32,3.82,3.82,0,0,0-.72-.32c-.06,0-.12,0-.12-.09s-.06-.09-.14-.09-.13,0-.13-.1-.07-.09-.15-.09a.48.48,0,0,1-.25-.09,11.26,11.26,0,0,0-1.43-.92s-.13-.08-.2-.18-.17-.19-.22-.19a.38.38,0,0,1-.19-.11c-.07-.07-.32-.29-.56-.49a19.3,19.3,0,0,1-2.64-2.73,2.79,2.79,0,0,0-.33-.44,1,1,0,0,1-.22-.31.75.75,0,0,0-.18-.27.66.66,0,0,1-.18-.32c0-.06,0-.12-.07-.12s-.13-.13-.2-.3a1.41,1.41,0,0,0-.19-.34,6.51,6.51,0,0,1-.32-.6c-.14-.31-.3-.63-.34-.71a.75.75,0,0,1-.08-.3c0-.08,0-.14-.09-.14s-.1-.1-.1-.23,0-.23-.09-.23-.09-.1-.09-.23a.41.41,0,0,0-.08-.27,2.94,2.94,0,0,1-.24-.76,8,8,0,0,0-.25-.93,2,2,0,0,1-.08-.53.57.57,0,0,0-.09-.37,1.43,1.43,0,0,1-.09-.65c0-.33,0-.59-.09-.59a17.35,17.35,0,0,1-.1-2.9,17.35,17.35,0,0,1,.1-2.9c.05,0,.09-.29.09-.69a1.64,1.64,0,0,1,.08-.69c.05,0,.11-.2.13-.44s.09-.6.14-.81c.29-1.15.34-1.33.41-1.33s.07-.1.07-.23a.39.39,0,0,1,.09-.28.39.39,0,0,0,.09-.28c0-.12,0-.23.1-.23s.09-.08.09-.18,0-.18.09-.18.09,0,.09-.12a7.1,7.1,0,0,1,.85-1.63.65.65,0,0,0,.17-.29.51.51,0,0,1,.16-.26,1.85,1.85,0,0,0,.32-.39A20.63,20.63,0,0,1,32.41,99a.76.76,0,0,0,.29-.21,4.59,4.59,0,0,1,.55-.44c.19-.13.34-.26.34-.3s0-.07.1-.07a1.78,1.78,0,0,0,.5-.27,2.26,2.26,0,0,1,.46-.28.4.4,0,0,0,.17-.09,8.15,8.15,0,0,1,1.27-.74.09.09,0,0,0,.09-.09.09.09,0,0,1,.1-.09c.08,0,1.21-.52,2-.94a.9.9,0,0,1,.3-.08c.08,0,.14,0,.14-.09s.08-.09.18-.09a.29.29,0,0,0,.23-.09A.31.31,0,0,1,39.4,95a.44.44,0,0,0,.28-.14c.1-.12.08-.14-.08-.14s-.2,0-.2-.09-.06-.1-.14-.1-.13,0-.13-.09-.06-.09-.14-.09-.14,0-.14-.09-.06-.09-.14-.09-.14,0-.14-.07-.17-.15-.37-.25a2.69,2.69,0,0,1-.64-.44,1.25,1.25,0,0,0-.35-.26,2.07,2.07,0,0,1-.48-.36,3,3,0,0,0-.48-.37,21.39,21.39,0,0,1-2.06-2.08,6.08,6.08,0,0,0-.39-.47.71.71,0,0,1-.21-.33.4.4,0,0,0-.18-.25c-.1-.08-.19-.17-.19-.2a4.91,4.91,0,0,0-.53-.86,2.46,2.46,0,0,1-.21-.39c-.07-.17-.16-.3-.2-.3s-.07-.09-.07-.19,0-.18-.09-.18S32,87.11,32,87s0-.18-.08-.18-.11-.11-.14-.25a4.7,4.7,0,0,0-.24-.61,1.84,1.84,0,0,1-.18-.54c0-.09,0-.17-.09-.17s-.09-.1-.09-.22a.39.39,0,0,0-.1-.28.39.39,0,0,1-.09-.28.41.41,0,0,0-.08-.27.59.59,0,0,1-.13-.35l-.26-1.4a16.46,16.46,0,0,1-.2-3.6,16.35,16.35,0,0,1,.49-4.92l.15-.67a.7.7,0,0,1,.13-.31c.05,0,.09-.15.09-.27a.36.36,0,0,1,.09-.27.36.36,0,0,0,.09-.27.48.48,0,0,1,.08-.29,2.45,2.45,0,0,0,.23-.5c.27-.7.38-.92.45-.92s.07-.08.07-.19,0-.18.09-.18a.09.09,0,0,0,.09-.09,5.84,5.84,0,0,1,.72-1.18.43.43,0,0,0,.11-.19,2.08,2.08,0,0,1,.28-.38,1.73,1.73,0,0,0,.28-.39,23.69,23.69,0,0,1,2.91-2.93.47.47,0,0,0,.21-.16,4.13,4.13,0,0,1,.64-.48,4.22,4.22,0,0,0,.6-.41,8.27,8.27,0,0,1,1.36-.79.09.09,0,0,0,.09-.09s.08-.09.17-.09.2,0,.21-.08a10.42,10.42,0,0,1,1.84-.87c.2-.06.36-.14.36-.18s.1-.07.23-.07a.39.39,0,0,0,.28-.09.39.39,0,0,1,.28-.1c.12,0,.22,0,.22-.09s.09-.09.19-.09a1.05,1.05,0,0,0,.35-.08,12,12,0,0,1,1.63-.48l.66-.18a2.36,2.36,0,0,1,.61-.09.6.6,0,0,0,.39-.09.79.79,0,0,1,.45-.09,1,1,0,0,0,.48-.09,2.45,2.45,0,0,1,.69-.13L50,59.93c.43,0,2.8-.12,5.26-.14C59.13,59.75,59.76,59.76,59.86,59.88Z"/><path class="cls-7" d="M84.92,61.43c.08,0-.27.11-.94.14-1.31.07-3.39.21-6.22.42-6.91.5-7.61.55-8.69.61l-.92,0V61.34h8.32C81.05,61.34,84.85,61.38,84.92,61.43Z"/><path class="cls-7" d="M94.1,63.22a1.91,1.91,0,0,1-.45.85.19.19,0,0,0-.07.16,1.71,1.71,0,0,1-.18.47,18.53,18.53,0,0,1-1.23,2.23.23.23,0,0,0-.08.19,3,3,0,0,1-.35.74,3.18,3.18,0,0,0-.34.72.12.12,0,0,1-.1.12s-.1.08-.1.18,0,.19-.09.19a.16.16,0,0,0-.13.11c0,.06,0,0,0-.16s.09-.29.14-.31.08-.15.08-.3,0-.27.1-.27.1-.1.1-.23,0-.23.1-.23.1-.08.1-.18a.86.86,0,0,1,.09-.35,6.59,6.59,0,0,0,.27-.71,3,3,0,0,1,.25-.64.49.49,0,0,0,.08-.3c0-.12,0-.21.1-.21s.1-.13.1-.28.05-.28.1-.28.1-.1.1-.23,0-.23.1-.23.1-.1.1-.22,0-.25.1-.28a.4.4,0,0,0,.1-.28c0-.12,0-.24.12-.26A2.06,2.06,0,0,1,94.1,63.22Z"/><path class="cls-7" d="M77.62,76.38c0,.35.11,1.63.17,2.85s.13,3.14.18,4.26c.11,2.62.23,5.6.35,8.57.05,1.3.16,3.86.25,5.7.54,12,.67,15.32.56,15.22a6.06,6.06,0,0,1-.14-1.07c-.08-.91-.24-2.59-.48-5-.05-.51-.13-1.36-.18-1.9s-.13-1.39-.18-1.9c-.09-.88-.14-1.36-.37-3.7,0-.56-.16-1.69-.25-2.51-.16-1.61-.29-2.91-.43-4.35l-.18-1.85-.18-1.85c0-.51-.13-1.37-.18-1.9-.1-1-.31-3-.5-4.91,0-.54-.11-1.35-.14-1.81a4.39,4.39,0,0,0-.13-1,5.45,5.45,0,0,1-.14-1.11c0-.51-.08-1.25-.1-1.64l-.06-.72h2.06Z"/><path class="cls-8" d="M209.08,62.4A9.75,9.75,0,0,1,215,66.06a10.18,10.18,0,0,1,2.22,6.48,10.4,10.4,0,0,1-3.72,8.4Q209.8,84,203.2,84H183.58V41.88h19q6.42,0,10,2.94a9.69,9.69,0,0,1,3.66,8,9.54,9.54,0,0,1-2,6.18A9.92,9.92,0,0,1,209.08,62.4Zm-15.24-3.48h6.72a5.94,5.94,0,0,0,3.84-1.08,4.64,4.64,0,0,0,0-6.6,5.72,5.72,0,0,0-3.84-1.14h-6.72Zm7.56,16.8a6.07,6.07,0,0,0,4-1.14,4.2,4.2,0,0,0,1.44-3.42,4.3,4.3,0,0,0-1.5-3.48,5.9,5.9,0,0,0-4-1.26h-7.44v9.3Zm46.57.84H232.25L229.73,84H219l15.24-42.12h11.88L261.35,84H250.49Zm-2.64-7.92-5.22-15.42L235,68.64Zm29.54,7.44h13.44V84h-23.7V41.88h10.26Zm43.17.48H302.32L299.8,84H289.06L304.3,41.88h11.88L331.42,84H320.56Zm-2.64-7.92-5.22-15.42L305,68.64Zm34.52,15.78a21.67,21.67,0,0,1-8.28-1.5,13.71,13.71,0,0,1-5.88-4.44,12.25,12.25,0,0,1-2.28-7.08H344.4A5.42,5.42,0,0,0,346,75a5.29,5.29,0,0,0,3.6,1.2,5.75,5.75,0,0,0,3.6-1,3.6,3.6,0,0,0,1.32-2.94,3.4,3.4,0,0,0-1.08-2.58A8,8,0,0,0,350.88,68a39,39,0,0,0-4.32-1.5A47.36,47.36,0,0,1,339.9,64a12.31,12.31,0,0,1-4.44-3.72,10.37,10.37,0,0,1-1.86-6.42,11,11,0,0,1,4.26-9.18q4.26-3.36,11.1-3.36t11.22,3.36a11.83,11.83,0,0,1,4.56,9.24h-11.1a4.24,4.24,0,0,0-1.5-3.18,5.2,5.2,0,0,0-3.54-1.2,4.33,4.33,0,0,0-3,1,3.48,3.48,0,0,0-1.14,2.82,3.53,3.53,0,0,0,1.92,3.18,31.47,31.47,0,0,0,6,2.46,53.45,53.45,0,0,1,6.6,2.64,12.54,12.54,0,0,1,4.44,3.66,9.8,9.8,0,0,1,1.86,6.18A12,12,0,0,1,363.42,78a12.61,12.61,0,0,1-5.28,4.68A18.18,18.18,0,0,1,349.92,84.42Zm46.51-7.86H380.71L378.2,84H367.45L382.7,41.88h11.88L409.82,84H399Zm-2.64-7.92-5.21-15.42-5.16,15.42Zm55.76-26.76V84H439.29V66.66h-16V84H413.07V41.88h10.26v16.5h16V41.88Zm16.29,8.22v8.52h13.74v7.92H465.84v9.24h15.54V84h-25.8V41.88h25.8V50.1Zm46.32,12.3A9.75,9.75,0,0,1,518,66.06a10.18,10.18,0,0,1,2.22,6.48,10.4,10.4,0,0,1-3.72,8.4Q512.88,84,506.28,84H486.66V41.88h19q6.42,0,10,2.94a9.69,9.69,0,0,1,3.66,8,9.54,9.54,0,0,1-2,6.18A9.92,9.92,0,0,1,512.16,62.4Zm-15.24-3.48h6.72a5.94,5.94,0,0,0,3.84-1.08,4.64,4.64,0,0,0,0-6.6,5.72,5.72,0,0,0-3.84-1.14h-6.72Zm7.56,16.8a6.07,6.07,0,0,0,4-1.14,4.2,4.2,0,0,0,1.44-3.42,4.3,4.3,0,0,0-1.5-3.48,5.9,5.9,0,0,0-4-1.26h-7.44v9.3Zm54.79-13.14a9.22,9.22,0,0,1,5.7,3.54,10.68,10.68,0,0,1,.66,12.42,11.25,11.25,0,0,1-4.74,4A17.17,17.17,0,0,1,553.63,84H537V42.3h15.9a17.07,17.07,0,0,1,7.32,1.44,10.66,10.66,0,0,1,4.62,3.9,9.69,9.69,0,0,1,1.56,5.4,9.3,9.3,0,0,1-1.92,6A11.18,11.18,0,0,1,559.27,62.58Zm-15.48-2.76h8.46a8.11,8.11,0,0,0,5.22-1.5,5.39,5.39,0,0,0,1.92-4.44,5.33,5.33,0,0,0-1.92-4.38,7.69,7.69,0,0,0-5.22-1.62h-8.46ZM553,78.42a8.18,8.18,0,0,0,5.46-1.68,5.81,5.81,0,0,0,2-4.68,6.07,6.07,0,0,0-2.1-4.86,8.28,8.28,0,0,0-5.58-1.8h-9v13Zm39.35,6a22,22,0,0,1-10.74-2.7,20.8,20.8,0,0,1-7.74-7.62,21.8,21.8,0,0,1-2.82-11,21.47,21.47,0,0,1,2.82-11,20.35,20.35,0,0,1,7.74-7.56,21.58,21.58,0,0,1,10.74-2.76,21.37,21.37,0,0,1,10.74,2.76,19.81,19.81,0,0,1,7.74,7.56,21.47,21.47,0,0,1,2.82,11,21.8,21.8,0,0,1-2.82,11,20.23,20.23,0,0,1-7.74,7.62A21.74,21.74,0,0,1,592.38,84.42Zm0-5.94a14.55,14.55,0,0,0,7.38-1.86,13.15,13.15,0,0,0,5-5.4,17.29,17.29,0,0,0,1.86-8.16A16.93,16.93,0,0,0,604.8,55a12.75,12.75,0,0,0-5-5.34,15.57,15.57,0,0,0-14.76,0A13.14,13.14,0,0,0,579.9,55a17.39,17.39,0,0,0-1.8,8.1,17.76,17.76,0,0,0,1.8,8.16,13.56,13.56,0,0,0,5.1,5.4A14.55,14.55,0,0,0,592.38,78.48ZM640.69,84l-9.6-16.68h-5.22V84H619V42.3h14.4a17.71,17.71,0,0,1,8.1,1.68,11.43,11.43,0,0,1,5,4.5,12.07,12.07,0,0,1,1.68,6.3,12.51,12.51,0,0,1-2.4,7.44,12,12,0,0,1-7.26,4.5L648.85,84ZM625.87,61.86h7.56q3.84,0,5.76-1.92a6.86,6.86,0,0,0,2-5.16,6.57,6.57,0,0,0-1.92-5q-1.92-1.86-5.82-1.86h-7.56ZM680.7,75.48H663.24l-3,8.52H653.1L668,42.24H676L690.9,84h-7.2Zm-1.92-5.58L672,50.52,665.16,69.9Zm30.86-27.6a25,25,0,0,1,11.64,2.58A17.79,17.79,0,0,1,729,52.2a21.66,21.66,0,0,1,2.76,11.1,21.34,21.34,0,0,1-2.76,11,18,18,0,0,1-7.74,7.2A26,26,0,0,1,709.64,84H696V42.3Zm0,36.12q7.32,0,11.22-4t3.9-11.16q0-7.26-3.9-11.34t-11.22-4.08h-6.78V78.42ZM744,47.82V60.06h14.39v5.58H744V78.42h16.2V84H737.17V42.24h23.05v5.58Z"/><path class="cls-8" d="M325,110.11a4.66,4.66,0,0,0-1.85-2.07,5.2,5.2,0,0,0-2.81-.75,5.73,5.73,0,0,0-2.91.75,5.27,5.27,0,0,0-2,2.11,7.25,7.25,0,0,0,0,6.34,5.4,5.4,0,0,0,2,2.11,5.82,5.82,0,0,0,2.91.73,5.23,5.23,0,0,0,3.69-1.34,5.55,5.55,0,0,0,1.7-3.63h-6.12v-1.63h8.25v1.54a7.62,7.62,0,0,1-1.19,3.47,7.39,7.39,0,0,1-2.66,2.49,7.53,7.53,0,0,1-3.67.9,7.85,7.85,0,0,1-3.9-1,7.47,7.47,0,0,1-2.79-2.79,8.53,8.53,0,0,1,0-8,7.29,7.29,0,0,1,2.79-2.8,8.16,8.16,0,0,1,8.21.2,6.9,6.9,0,0,1,2.75,3.41ZM343,121l-3.65-6.27h-2.42V121h-2V105.67h4.95a6.49,6.49,0,0,1,2.93.59,4.17,4.17,0,0,1,1.8,1.61,4.41,4.41,0,0,1,.59,2.31,4.52,4.52,0,0,1-.92,2.79,4.42,4.42,0,0,1-2.73,1.61l3.85,6.42Zm-6.07-7.88h2.95a3.36,3.36,0,0,0,2.44-.79,2.91,2.91,0,0,0,.81-2.15,2.75,2.75,0,0,0-.81-2.12,3.49,3.49,0,0,0-2.44-.74h-2.95Zm22.73,8a7.79,7.79,0,0,1-3.89-1,7.47,7.47,0,0,1-2.79-2.79,8.06,8.06,0,0,1-1-4.05,7.92,7.92,0,0,1,1-4,7.29,7.29,0,0,1,2.79-2.8,8.05,8.05,0,0,1,7.81,0,7.16,7.16,0,0,1,2.77,2.77,8.55,8.55,0,0,1,0,8.1,7.21,7.21,0,0,1-2.77,2.79A7.85,7.85,0,0,1,359.67,121.15Zm0-1.73a5.58,5.58,0,0,0,2.89-.75,5.16,5.16,0,0,0,2-2.14,7.24,7.24,0,0,0,0-6.42,5.21,5.21,0,0,0-2-2.13,6,6,0,0,0-5.81,0,5.39,5.39,0,0,0-2,2.13,7.42,7.42,0,0,0,0,6.42,5.35,5.35,0,0,0,2,2.14A5.72,5.72,0,0,0,359.67,119.42Zm16.71-13.75v9.7a4.12,4.12,0,0,0,1,3,3.8,3.8,0,0,0,2.79,1,3.72,3.72,0,0,0,2.75-1,4.09,4.09,0,0,0,1-3v-9.7h2v9.68a6.26,6.26,0,0,1-.77,3.23,4.83,4.83,0,0,1-2.09,1.94,6.59,6.59,0,0,1-2.92.63,6.75,6.75,0,0,1-2.95-.63,5,5,0,0,1-2.07-1.94,6.46,6.46,0,0,1-.75-3.23v-9.68Zm27.54,4.48a4.25,4.25,0,0,1-1.32,3.19,5.55,5.55,0,0,1-4,1.26h-2.94V121h-2V105.67h4.95a5.55,5.55,0,0,1,3.94,1.25A4.19,4.19,0,0,1,403.92,110.15Zm-5.31,2.8a3.54,3.54,0,0,0,2.47-.73,2.65,2.65,0,0,0,.79-2.07q0-2.84-3.26-2.83h-2.94V113Zm29.41,8.2a7.79,7.79,0,0,1-3.89-1,7.43,7.43,0,0,1-2.8-2.79,8.17,8.17,0,0,1-1-4.05,8,8,0,0,1,1-4,7.24,7.24,0,0,1,2.8-2.8,7.7,7.7,0,0,1,3.89-1,7.79,7.79,0,0,1,3.92,1,7.3,7.3,0,0,1,2.77,2.77,8.63,8.63,0,0,1,0,8.1,7.35,7.35,0,0,1-2.77,2.79A7.87,7.87,0,0,1,428,121.15Zm0-1.73a5.57,5.57,0,0,0,2.88-.75,5.18,5.18,0,0,0,2-2.14,7.24,7.24,0,0,0,0-6.42,5.28,5.28,0,0,0-2-2.13,6,6,0,0,0-5.81,0,5.41,5.41,0,0,0-2,2.13,7.52,7.52,0,0,0,0,6.42,5.38,5.38,0,0,0,2,2.14A5.67,5.67,0,0,0,428,119.42Zm23.41-13.75v1.62h-6.66v5.17h5.41v1.63h-5.41V121h-2V105.67Zm16.34,7.65a7.92,7.92,0,0,1,1-4,7.24,7.24,0,0,1,2.75-2.82,7.6,7.6,0,0,1,3.89-1,7.85,7.85,0,0,1,4.38,1.21,6.88,6.88,0,0,1,2.73,3.43h-2.4a4.76,4.76,0,0,0-1.85-2.13,5.23,5.23,0,0,0-2.86-.75,5.57,5.57,0,0,0-2.88.75,5.21,5.21,0,0,0-2,2.13,7.42,7.42,0,0,0,0,6.42,5.25,5.25,0,0,0,2,2.12,5.66,5.66,0,0,0,2.88.74,5.4,5.4,0,0,0,2.86-.72,4.74,4.74,0,0,0,1.85-2.14h2.4a6.87,6.87,0,0,1-2.73,3.41,7.92,7.92,0,0,1-4.38,1.19,7.79,7.79,0,0,1-3.89-1,7.3,7.3,0,0,1-2.75-2.79A8,8,0,0,1,467.77,113.32Zm29.09,7.83a7.79,7.79,0,0,1-3.89-1,7.43,7.43,0,0,1-2.8-2.79,8.17,8.17,0,0,1-1-4.05,8,8,0,0,1,1-4,7.24,7.24,0,0,1,2.8-2.8,7.7,7.7,0,0,1,3.89-1,7.79,7.79,0,0,1,3.92,1,7.23,7.23,0,0,1,2.77,2.77,8.63,8.63,0,0,1,0,8.1,7.28,7.28,0,0,1-2.77,2.79A7.87,7.87,0,0,1,496.86,121.15Zm0-1.73a5.57,5.57,0,0,0,2.88-.75,5.18,5.18,0,0,0,2-2.14,7.24,7.24,0,0,0,0-6.42,5.28,5.28,0,0,0-2-2.13,6,6,0,0,0-5.81,0,5.41,5.41,0,0,0-2,2.13,7.52,7.52,0,0,0,0,6.42,5.38,5.38,0,0,0,2,2.14A5.67,5.67,0,0,0,496.86,119.42Zm30.3-13.64V121h-2V109.65L520.1,121h-1.41l-5.08-11.37V121h-2V105.78h2.16l5.63,12.58L525,105.78Zm18.05,4.37a4.25,4.25,0,0,1-1.32,3.19,5.55,5.55,0,0,1-4,1.26H537V121h-2V105.67h4.95a5.53,5.53,0,0,1,3.94,1.25A4.19,4.19,0,0,1,545.21,110.15ZM539.9,113a3.54,3.54,0,0,0,2.47-.73,2.65,2.65,0,0,0,.79-2.07c0-1.89-1.08-2.83-3.26-2.83H537V113Zm21.26,4.64h-6.69L553.24,121h-2.11l5.54-15.25H559L564.5,121h-2.11Zm-.57-1.63-2.78-7.74L555,116Zm22.78,5h-2l-8-12.21V121h-2V105.64h2l8,12.19V105.64h2Zm9.82-15.33V121h-2V105.67Zm9.81,1.62v5.13h5.59v1.65H603v5.28h6.25V121H601V105.64h8.25v1.65Zm18.54,13.86a6.82,6.82,0,0,1-2.73-.52,4.75,4.75,0,0,1-1.87-1.5,4,4,0,0,1-.7-2.22h2.13a2.91,2.91,0,0,0,.88,1.82,3.25,3.25,0,0,0,2.29.73,3.33,3.33,0,0,0,2.25-.7,2.37,2.37,0,0,0,.83-1.85,2.1,2.1,0,0,0-.48-1.43,3.07,3.07,0,0,0-1.21-.84,20,20,0,0,0-2-.61,17.44,17.44,0,0,1-2.44-.8A4,4,0,0,1,617,112a3.7,3.7,0,0,1-.64-2.29,3.93,3.93,0,0,1,.64-2.22,4.16,4.16,0,0,1,1.78-1.49,6.26,6.26,0,0,1,2.66-.53,5.5,5.5,0,0,1,3.52,1.08,4,4,0,0,1,1.56,2.86h-2.2a2.32,2.32,0,0,0-.92-1.54,3.22,3.22,0,0,0-2.16-.69,3.07,3.07,0,0,0-2,.66,2.2,2.2,0,0,0-.8,1.81,2,2,0,0,0,.47,1.36,3.31,3.31,0,0,0,1.16.82c.47.17,1.12.38,2,.61a16.87,16.87,0,0,1,2.44.84,3.91,3.91,0,0,1,1.59,1.25,3.61,3.61,0,0,1,.66,2.29,4,4,0,0,1-.6,2.11,4.31,4.31,0,0,1-1.76,1.61A5.78,5.78,0,0,1,621.54,121.15Z"/><rect class="cls-9" x="182" y="109" width="110" height="8"/><rect class="cls-10" x="648" y="109" width="110" height="8"/></g></g></svg>