<svg width="99" height="100" viewBox="0 0 99 100" fill="none" xmlns="http://www.w3.org/2000/svg">
<path d="M76.153 52.283C75.5215 58.4042 72.8091 64.1236 68.4688 68.4859C64.1285 72.8483 58.423 75.5895 52.305 76.252C52.1818 76.2505 52.0596 76.2737 51.9454 76.3202C51.8313 76.3666 51.7277 76.4355 51.6406 76.5226C51.5534 76.6097 51.4846 76.7133 51.4382 76.8275C51.3917 76.9416 51.3685 77.0638 51.37 77.187V97.196C51.37 97.692 51.173 98.1676 50.8223 98.5183C50.4716 98.869 49.996 99.066 49.5 99.066C49.004 99.066 48.5284 98.869 48.1777 98.5183C47.827 98.1676 47.63 97.692 47.63 97.196V89.936C47.6122 89.6939 47.508 89.4663 47.3363 89.2947C47.1647 89.123 46.9371 89.0188 46.695 89.001C38.378 88.3279 30.4891 85.0334 24.1637 79.5915C17.8382 74.1497 13.4025 66.8412 11.495 58.718C11.424 58.4773 11.4022 58.2248 11.4308 57.9755C11.4594 57.7262 11.5379 57.4853 11.6616 57.2669C11.7853 57.0486 11.9517 56.8574 12.1509 56.7048C12.35 56.5521 12.5778 56.4411 12.8208 56.3783C13.0638 56.3155 13.3169 56.3023 13.565 56.3394C13.8132 56.3765 14.0514 56.4632 14.2654 56.5942C14.4793 56.7253 14.6647 56.8981 14.8105 57.1023C14.9563 57.3066 15.0595 57.5381 15.114 57.783C16.8098 65.0745 20.7641 71.6447 26.4131 76.5569C32.0621 81.4692 39.1176 84.473 46.574 85.14C46.816 85.261 47.047 85.14 47.278 84.909C47.4001 84.8401 47.4989 84.7362 47.5616 84.6108C47.6243 84.4854 47.6481 84.3441 47.63 84.205V77.187C47.6315 77.0638 47.6083 76.9416 47.5618 76.8275C47.5154 76.7133 47.4466 76.6097 47.3594 76.5226C47.2723 76.4355 47.1687 76.3666 47.0546 76.3202C46.9404 76.2737 46.8182 76.2505 46.695 76.252C40.6062 75.5737 34.9244 72.8607 30.569 68.552C26.2145 64.1756 23.4961 58.4358 22.869 52.294C22.8333 52.0692 22.7205 51.8639 22.5498 51.7134C22.3792 51.5628 22.1614 51.4764 21.934 51.469H1.925C1.41446 51.469 0.924827 51.2662 0.56382 50.9052C0.202812 50.5442 0 50.0545 0 49.544C0 49.0335 0.202812 48.5438 0.56382 48.1828C0.924827 47.8218 1.41446 47.619 1.925 47.619H9.526C9.75281 47.6095 9.96949 47.5224 10.1397 47.3722C10.3099 47.222 10.4234 47.0179 10.461 46.794C10.9601 38.4894 14.0457 30.5493 19.2852 24.0868C24.5246 17.6243 31.6551 12.9636 39.677 10.758C40.1628 10.6658 40.6655 10.763 41.0819 11.0296C41.4983 11.2962 41.797 11.712 41.9166 12.1918C42.0361 12.6716 41.9676 13.1789 41.7251 13.6098C41.4825 14.0407 41.0842 14.3624 40.612 14.509C33.4352 16.4443 27.0419 20.5724 22.3247 26.317C17.6076 32.0616 14.8021 39.1358 14.3 46.552C14.269 46.6886 14.2702 46.8306 14.3036 46.9667C14.337 47.1027 14.4016 47.2291 14.4923 47.3359C14.5831 47.4426 14.6974 47.5268 14.8263 47.5816C14.9552 47.6365 15.0952 47.6606 15.235 47.652H21.89C22.1174 47.6446 22.3352 47.5582 22.5058 47.4076C22.6765 47.257 22.7893 47.0518 22.825 46.827C23.4479 40.6945 26.1592 34.9623 30.5048 30.5907C34.8504 26.219 40.5663 23.4735 46.695 22.814C46.8182 22.8155 46.9404 22.7923 47.0546 22.7458C47.1687 22.6994 47.2723 22.6306 47.3594 22.5434C47.4466 22.4563 47.5154 22.3527 47.5618 22.2385C47.6083 22.1244 47.6315 22.0022 47.63 21.879V1.87C47.63 1.37405 47.827 0.898404 48.1777 0.54771C48.5284 0.197017 49.004 0 49.5 0C49.996 0 50.4716 0.197017 50.8223 0.54771C51.173 0.898404 51.37 1.37405 51.37 1.87V24.563C51.3826 24.8278 51.3397 25.0923 51.244 25.3395C51.1484 25.5868 51.0022 25.8113 50.8148 25.9988C50.6273 26.1862 50.4028 26.3324 50.1555 26.428C49.9083 26.5237 49.6438 26.5666 49.379 26.554C29.04 26.554 18.876 51.458 33.253 65.846C47.63 80.234 72.171 69.938 72.523 49.533C72.5201 49.2866 72.5664 49.0421 72.6593 48.8139C72.7523 48.5857 72.8899 48.3784 73.0641 48.2041C73.2384 48.0299 73.4457 47.8923 73.6739 47.7993C73.9021 47.7064 74.1466 47.66 74.393 47.663H97.075C97.5855 47.663 98.0752 47.8658 98.4362 48.2268C98.7972 48.5878 99 49.0775 99 49.588C99 50.0985 98.7972 50.5882 98.4362 50.9492C98.0752 51.3102 97.5855 51.513 97.075 51.513H89.595C89.3629 51.5037 89.1362 51.5842 88.962 51.7379C88.7878 51.8916 88.6796 52.1065 88.66 52.338C88.0529 60.6944 84.8213 68.6454 79.4263 75.0557C74.0314 81.466 66.749 86.0079 58.619 88.033C56.166 88.616 55.319 84.876 57.794 84.293C65.0545 82.4878 71.5657 78.4503 76.4104 72.7491C81.255 67.048 84.189 59.9706 84.799 52.514C84.83 52.3774 84.8288 52.2354 84.7954 52.0993C84.762 51.9633 84.6974 51.8369 84.6067 51.7301C84.5159 51.6234 84.4016 51.5392 84.2727 51.4844C84.1438 51.4295 84.0038 51.4054 83.864 51.414H77.088C76.8606 51.4214 76.6428 51.5078 76.4722 51.6584C76.3015 51.8089 76.1887 52.0142 76.153 52.239V52.283ZM91.3 21.175L77.781 34.617C77.4507 34.9756 76.992 35.1891 76.505 35.211H67.496C67.2501 35.2326 67.0127 35.3117 66.803 35.442L50.787 51.579C50.4269 51.9155 49.9503 52.0991 49.4575 52.0912C48.9647 52.0834 48.4942 51.8846 48.145 51.5369C47.7957 51.1891 47.5951 50.7194 47.5852 50.2266C47.5753 49.7339 47.757 49.2565 48.092 48.895L64.108 32.747C64.2158 32.693 64.306 32.6096 64.3683 32.5064C64.4306 32.4032 64.4624 32.2845 64.46 32.164V23.133C64.4577 22.8728 64.5082 22.6149 64.6084 22.3748C64.7086 22.1347 64.8565 21.9174 65.043 21.736L78.485 8.305C78.7446 8.02439 79.0826 7.82844 79.4551 7.7427C79.8276 7.65695 80.2173 7.68537 80.5735 7.82426C80.9296 7.96315 81.2356 8.20607 81.4517 8.52137C81.6678 8.83668 81.784 9.20975 81.785 9.592V16.962C81.8006 17.2049 81.904 17.4338 82.0761 17.6059C82.2482 17.778 82.4771 17.8815 82.72 17.897H89.969C90.3557 17.8869 90.7364 17.9934 91.0616 18.2028C91.3868 18.4122 91.6414 18.7147 91.7922 19.0709C91.9429 19.4271 91.9829 19.8204 91.9069 20.1997C91.8309 20.5789 91.6424 20.9264 91.366 21.197L91.3 21.175ZM75.9 31.075L83.732 23.243C83.8681 23.1173 83.9642 22.9544 84.0086 22.7745C84.0529 22.5946 84.0434 22.4057 83.9813 22.2311C83.9192 22.0566 83.8073 21.9041 83.6593 21.7926C83.5113 21.6811 83.3339 21.6155 83.149 21.604H79.849C79.3381 21.6159 78.843 21.4266 78.4706 21.0767C78.0981 20.7269 77.8781 20.2446 77.858 19.734V16.533C77.8571 16.3436 77.8006 16.1585 77.6955 16.0009C77.5905 15.8432 77.4415 15.7199 77.267 15.6461C77.0925 15.5723 76.9002 15.5514 76.7139 15.5858C76.5276 15.6203 76.3555 15.7087 76.219 15.84L68.519 23.672C68.3134 23.8511 68.1869 24.1041 68.167 24.376V30.459C68.1655 30.5822 68.1887 30.7044 68.2352 30.8186C68.2816 30.9327 68.3505 31.0363 68.4376 31.1234C68.5247 31.2106 68.6283 31.2794 68.7425 31.3258C68.8566 31.3723 68.9788 31.3955 69.102 31.394H75.295C75.537 31.394 75.768 31.394 75.878 31.152L75.9 31.075ZM65.384 49.555C65.3884 52.7001 64.4596 55.7759 62.7151 58.3929C60.9707 61.01 58.4892 63.0507 55.5845 64.2568C52.6798 65.4629 49.4826 65.7802 46.3975 65.1685C43.3124 64.5567 40.4782 63.0435 38.2534 60.8204C36.0287 58.5972 34.5136 55.764 33.8997 52.6793C33.2859 49.5947 33.6009 46.3972 34.805 43.4917C36.0091 40.5862 38.0481 38.1032 40.6639 36.357C43.2798 34.6108 46.3549 33.6798 49.5 33.682C49.9726 33.7182 50.4141 33.9315 50.7362 34.2793C51.0583 34.627 51.2373 35.0835 51.2373 35.5575C51.2373 36.0315 51.0583 36.488 50.7362 36.8357C50.4141 37.1835 49.9726 37.3968 49.5 37.433C46.2909 37.433 43.2132 38.7078 40.944 40.977C38.6748 43.2462 37.4 46.3239 37.4 49.533C37.4 52.7421 38.6748 55.8198 40.944 58.089C43.2132 60.3582 46.2909 61.633 49.5 61.633C56.518 61.633 61.193 56.375 61.534 49.533C61.523 49.2676 61.5668 49.0028 61.6625 48.755C61.7583 48.5073 61.904 48.2819 62.0906 48.0929C62.2772 47.9038 62.5007 47.7552 62.7472 47.6563C62.9937 47.5574 63.258 47.5102 63.5235 47.5178C63.789 47.5253 64.0501 47.5875 64.2906 47.7003C64.531 47.8131 64.7457 47.9742 64.9213 48.1735C65.0968 48.3728 65.2295 48.6062 65.311 48.859C65.3925 49.1118 65.4211 49.3787 65.395 49.643L65.384 49.555Z" fill="#C7B180"/>
</svg>
