<svg width="100" height="90" viewBox="0 0 100 90" fill="none" xmlns="http://www.w3.org/2000/svg">
<path d="M89.4392 89.4375C92.0748 89.4375 94.6025 88.3905 96.4661 86.5269C98.3297 84.6632 99.3767 82.1356 99.3767 79.5V55.2326C99.3767 52.597 98.3297 50.0694 96.4661 48.2057C94.6025 46.3421 92.0748 45.2951 89.4392 45.2951H75.646C75.646 41.8071 75.8547 38.3091 76.2621 34.821C76.8782 31.1243 77.9117 27.8349 79.3427 24.963C80.7837 22.0811 82.632 19.8253 84.8978 18.1757C87.1536 16.3273 90.0255 15.4031 93.5235 15.4031V0C87.7697 0 82.7413 1.23225 78.4185 3.69675C74.1333 6.13627 70.4491 9.50474 67.6363 13.5547C64.8133 18.0198 62.7326 22.9129 61.4751 28.0436C60.2079 33.7056 59.5878 39.4932 59.6267 45.2951V79.5C59.6267 82.1356 60.6737 84.6632 62.5373 86.5269C64.401 88.3905 66.9286 89.4375 69.5642 89.4375H89.4392ZM29.8142 89.4375C32.4498 89.4375 34.9775 88.3905 36.8411 86.5269C38.7047 84.6632 39.7517 82.1356 39.7517 79.5V55.2326C39.7517 52.597 38.7047 50.0694 36.8411 48.2057C34.9775 46.3421 32.4498 45.2951 29.8142 45.2951H16.021C16.021 41.8071 16.2297 38.3091 16.6371 34.821C17.2532 31.1243 18.2867 27.8349 19.7177 24.963C21.1587 22.0811 23.007 19.8253 25.2728 18.1757C27.5286 16.3273 30.4005 15.4031 33.8985 15.4031V0C28.1447 0 23.1163 1.23225 18.7935 3.69675C14.5083 6.13627 10.8241 9.50474 8.01135 13.5547C5.18835 18.0198 3.10763 22.9129 1.8501 28.0436C0.582927 33.7056 -0.037172 39.4932 0.00172195 45.2951V79.5C0.00172195 82.1356 1.04871 84.6632 2.91235 86.5269C4.77599 88.3905 7.30363 89.4375 9.93922 89.4375H29.8142Z" fill="black" fill-opacity="0.15"/>
</svg>
