<svg width="86" height="86" viewBox="0 0 86 86" fill="none" xmlns="http://www.w3.org/2000/svg">
<circle cx="43" cy="43" r="43" fill="#C7B180"/>
<path d="M28.0401 61.9404C28.7532 61.9409 29.4374 61.6497 29.942 61.1306L51.958 38.45L51.958 53.7734C51.958 54.5075 52.2412 55.2116 52.7452 55.7307C53.2492 56.2498 53.9327 56.5414 54.6455 56.5414C55.3583 56.5414 56.0419 56.2498 56.5459 55.7307C57.0499 55.2116 57.333 54.5075 57.333 53.7734L57.333 31.7682C57.333 31.0341 57.0499 30.33 56.5459 29.8109C56.0418 29.2918 55.3583 29.0002 54.6455 29.0002L33.2799 29.0002C32.5671 29.0002 31.8835 29.2918 31.3795 29.8109C30.8755 30.33 30.5924 31.0341 30.5924 31.7682C30.5924 32.5023 30.8755 33.2063 31.3795 33.7254C31.8836 34.2445 32.5671 34.5361 33.2799 34.5361L48.1579 34.5361L26.1419 57.2112C25.6372 57.7302 25.3535 58.4345 25.353 59.169C25.3525 59.9035 25.6353 60.6081 26.1392 61.1279C26.6431 61.6476 27.3269 61.9399 28.0401 61.9404Z" fill="#FDFDFD"/>
</svg>
