<svg width="99" height="92" viewBox="0 0 99 92" fill="none" xmlns="http://www.w3.org/2000/svg">
<path d="M49.4997 16.8259C35.0461 16.8259 23.2859 27.7527 23.2859 41.1862C23.2859 49.3745 27.6752 56.9681 35.0267 61.4998C37.0686 62.7577 38.1939 64.7055 38.1939 66.9821V67.1366C36.388 67.4277 35.0074 68.8904 35.0074 70.6513C35.0074 71.6198 35.427 72.5003 36.1037 73.1436C35.427 73.7869 35.0074 74.6673 35.0074 75.6359C35.0074 76.6044 35.427 77.4848 36.1037 78.1281C35.427 78.7714 35.0074 79.6519 35.0074 80.6204C35.0074 82.5898 36.7302 84.1908 38.8494 84.1908H39.2652C39.7872 87.0873 42.502 89.3029 45.7659 89.3029H53.2296C56.4935 89.3029 59.2082 87.0873 59.7303 84.1908H60.146C62.2652 84.1908 63.9881 82.588 63.9881 80.6204C63.9881 79.6519 63.5685 78.7714 62.8917 78.1281C63.5685 77.4848 63.9881 76.6044 63.9881 75.6359C63.9881 74.6655 63.5685 73.7869 62.8917 73.1436C63.5685 72.5003 63.9881 71.6198 63.9881 70.6513C63.9881 68.8904 62.6075 67.4277 60.8015 67.1366V66.9821C60.8015 64.7055 61.9269 62.7577 63.9687 61.4998C71.3203 56.9681 75.7095 49.3745 75.7095 41.1862C75.7134 27.7527 63.9533 16.8259 49.4997 16.8259ZM61.6716 75.6359C61.6716 76.4157 60.9891 77.05 60.1499 77.05H38.8494C38.0103 77.05 37.3277 76.4157 37.3277 75.6359C37.3277 74.856 38.0103 74.2217 38.8494 74.2217H60.148C60.9891 74.2217 61.6716 74.856 61.6716 75.6359ZM53.2315 87.1484H45.7678C43.7898 87.1484 42.1211 85.8924 41.6377 84.1926H57.3636C56.8783 85.8924 55.2096 87.1484 53.2315 87.1484ZM60.1499 82.0363H38.8494C38.0103 82.0363 37.3277 81.402 37.3277 80.6222C37.3277 79.8423 38.0103 79.208 38.8494 79.208H60.148C60.9871 79.208 61.6697 79.8423 61.6697 80.6222C61.6716 81.402 60.9891 82.0363 60.1499 82.0363ZM61.6716 70.6513C61.6716 71.4312 60.9891 72.0655 60.1499 72.0655H38.8494C38.0103 72.0655 37.3277 71.4312 37.3277 70.6513C37.3277 69.8715 38.0103 69.2372 38.8494 69.2372H60.148C60.9891 69.2372 61.6716 69.8715 61.6716 70.6513ZM49.4997 34.0095C54.0745 34.0095 57.7948 37.4684 57.7948 41.718C57.7948 45.9677 54.0745 49.4266 49.4997 49.4266C44.9248 49.4266 41.2045 45.9695 41.2045 41.718C41.2045 37.4666 44.9267 34.0095 49.4997 34.0095ZM58.5354 36.5484C60.7513 37.808 63.0677 39.5079 65.5543 41.6552C63.0832 43.8797 60.7609 45.6137 58.5373 46.8859C59.5369 45.3819 60.1151 43.612 60.1151 41.718C60.1151 39.8223 59.537 38.0524 58.5354 36.5484ZM40.462 46.8841C38.2384 45.6119 35.9162 43.8779 33.445 41.6534C35.9316 39.5079 38.2481 37.8063 40.464 36.5466C39.4643 38.0506 38.8842 39.8223 38.8842 41.7163C38.8842 43.6102 39.4624 45.3819 40.462 46.8841ZM62.6887 59.7012C59.9778 61.3723 58.4851 63.958 58.4851 66.9803V67.0791H50.6598V51.6853C56.1106 51.317 61.6716 48.3395 68.0467 42.3955C68.2671 42.1906 68.3889 41.9121 68.3851 41.621C68.3812 41.3299 68.2517 41.055 68.0274 40.8555C60.9137 34.527 55.1999 31.7041 49.4997 31.7041C43.7994 31.7041 38.0837 34.527 30.972 40.8555C30.7477 41.0568 30.6181 41.3317 30.6143 41.621C30.6104 41.9103 30.7322 42.1888 30.9526 42.3955C37.3277 48.3377 42.8887 51.3152 48.3395 51.6853V67.0791H40.5143V66.9803C40.5143 63.958 39.0215 61.3723 36.3106 59.7012C29.6088 55.5702 25.6082 48.6486 25.6082 41.1844C25.6082 28.9423 36.3261 18.9804 49.5016 18.9804C62.6771 18.9804 73.395 28.9405 73.395 41.1844C73.3931 48.6486 69.3905 55.5702 62.6887 59.7012ZM48.3395 9.90437V3.77344C48.3395 3.17867 48.8596 2.69531 49.4997 2.69531C50.1397 2.69531 50.6598 3.17867 50.6598 3.77344V9.90437C50.6598 10.4991 50.1397 10.9825 49.4997 10.9825C48.8596 10.9825 48.3395 10.5009 48.3395 9.90437ZM24.4732 19.9848L19.8074 15.649C19.3549 15.2285 19.3549 14.5457 19.8074 14.1234C20.2599 13.703 20.9946 13.703 21.449 14.1234L26.1148 18.4593C26.5672 18.8798 26.5672 19.5626 26.1148 19.9848C25.8886 20.1951 25.5908 20.3011 25.2949 20.3011C24.9991 20.3011 24.6994 20.1951 24.4732 19.9848ZM16.4275 41.718C16.4275 42.3128 15.9073 42.7962 15.2673 42.7962H8.66797C8.02795 42.7962 7.50781 42.3128 7.50781 41.718C7.50781 41.1233 8.02795 40.6399 8.66797 40.6399H15.2654C15.9073 40.6399 16.4275 41.1215 16.4275 41.718ZM79.1919 14.1252C79.6444 14.5457 79.6444 15.2285 79.1919 15.6508L74.5262 19.9866C74.2999 20.1969 74.0022 20.3029 73.7063 20.3029C73.4105 20.3029 73.1127 20.1969 72.8865 19.9866C72.434 19.5662 72.434 18.8834 72.8865 18.4611L77.5522 14.1252C78.0047 13.703 78.7375 13.703 79.1919 14.1252ZM91.4915 41.718C91.4915 42.3128 90.9714 42.7962 90.3314 42.7962H83.7339C83.0939 42.7962 82.5738 42.3128 82.5738 41.718C82.5738 41.1233 83.0939 40.6399 83.7339 40.6399H90.3314C90.9714 40.6399 91.4915 41.1215 91.4915 41.718ZM49.4997 46.4133C52.286 46.4133 54.5521 44.3073 54.5521 41.718C54.5521 39.1287 52.286 37.0228 49.4997 37.0228C46.7134 37.0228 44.4472 39.1287 44.4472 41.718C44.4472 44.3073 46.7134 46.4133 49.4997 46.4133ZM49.4997 39.1773C51.0059 39.1773 52.2318 40.3165 52.2318 41.7163C52.2318 43.116 51.0059 44.2552 49.4997 44.2552C47.9934 44.2552 46.7675 43.116 46.7675 41.7163C46.7675 40.3165 47.9934 39.1773 49.4997 39.1773Z" fill="#C7B180"/>
</svg>
